<svg version="1.1" xmlns="http://www.w3.org/2000/svg" xmlns:xlink="http://www.w3.org/1999/xlink" width="913.236328125" height="325"><defs/><g><text fill="#eeeeee" stroke="none" font-family="Arial" font-size="24px" font-style="normal" font-weight="normal" text-decoration="none" x="0" y="0"></text><text fill="#eeeeee" stroke="none" font-family="Arial" font-size="24px" font-style="normal" font-weight="normal" text-decoration="none" x="0" y="30"></text><text fill="#eeeeee" stroke="none" font-family="Arial" font-size="24px" font-style="normal" font-weight="normal" text-decoration="none" x="0" y="60"></text><text fill="#eeeeee" stroke="none" font-family="Arial" font-size="24px" font-style="normal" font-weight="normal" text-decoration="none" x="0" y="90"></text><text fill="#eeeeee" stroke="none" font-family="Arial" font-size="24px" font-style="normal" font-weight="normal" text-decoration="none" x="0" y="120"></text><text fill="#eeeeee" stroke="none" font-family="Arial" font-size="24px" font-style="normal" font-weight="normal" text-decoration="none" x="0" y="150"></text><text fill="#eeeeee" stroke="none" font-family="Arial" font-size="24px" font-style="normal" font-weight="normal" text-decoration="none" x="0" y="180"></text><text fill="#eeeeee" stroke="none" font-family="Arial" font-size="24px" font-style="normal" font-weight="normal" text-decoration="none" x="0" y="210"></text><text fill="#eeeeee" stroke="none" font-family="Arial" font-size="24px" font-style="normal" font-weight="normal" text-decoration="none" x="0" y="240"></text><text fill="#eeeeee" stroke="none" font-family="Arial" font-size="24px" font-style="normal" font-weight="normal" text-decoration="none" x="0" y="270"></text><text fill="#eeeeee" stroke="none" font-family="Arial" font-size="24px" font-style="normal" font-weight="normal" text-decoration="none" x="0" y="300"></text><text fill="#eeeeee" stroke="none" font-family="Arial" font-size="24px" font-style="normal" font-weight="normal" text-decoration="none" x="200" y="0"></text><text fill="#eeeeee" stroke="none" font-family="Arial" font-size="24px" font-style="normal" font-weight="normal" text-decoration="none" x="200" y="30"></text><text fill="#eeeeee" stroke="none" font-family="Arial" font-size="24px" font-style="normal" font-weight="normal" text-decoration="none" x="200" y="60"></text><text fill="#eeeeee" stroke="none" font-family="Arial" font-size="24px" font-style="normal" font-weight="normal" text-decoration="none" x="200" y="90"></text><text fill="#eeeeee" stroke="none" font-family="Arial" font-size="24px" font-style="normal" font-weight="normal" text-decoration="none" x="200" y="120"></text><text fill="#eeeeee" stroke="none" font-family="Arial" font-size="24px" font-style="normal" font-weight="normal" text-decoration="none" x="200" y="150"></text><text fill="#eeeeee" stroke="none" font-family="Arial" font-size="24px" font-style="normal" font-weight="normal" text-decoration="none" x="200" y="180"></text><text fill="#eeeeee" stroke="none" font-family="Arial" font-size="24px" font-style="normal" font-weight="normal" text-decoration="none" x="200" y="210"></text><text fill="#eeeeee" stroke="none" font-family="Arial" font-size="24px" font-style="normal" font-weight="normal" text-decoration="none" x="200" y="240"></text><text fill="#eeeeee" stroke="none" font-family="Arial" font-size="24px" font-style="normal" font-weight="normal" text-decoration="none" x="200" y="270"></text><text fill="#eeeeee" stroke="none" font-family="Arial" font-size="24px" font-style="normal" font-weight="normal" text-decoration="none" x="200" y="300"></text><text fill="#eeeeee" stroke="none" font-family="Arial" font-size="24px" font-style="normal" font-weight="normal" text-decoration="none" x="400" y="0"></text><text fill="#eeeeee" stroke="none" font-family="Arial" font-size="24px" font-style="normal" font-weight="normal" text-decoration="none" x="400" y="30"></text><text fill="#eeeeee" stroke="none" font-family="Arial" font-size="24px" font-style="normal" font-weight="normal" text-decoration="none" x="400" y="60"></text><text fill="#eeeeee" stroke="none" font-family="Arial" font-size="24px" font-style="normal" font-weight="normal" text-decoration="none" x="400" y="90"></text><text fill="#eeeeee" stroke="none" font-family="Arial" font-size="24px" font-style="normal" font-weight="normal" text-decoration="none" x="400" y="120"></text><text fill="#eeeeee" stroke="none" font-family="Arial" font-size="24px" font-style="normal" font-weight="normal" text-decoration="none" x="400" y="150"></text><text fill="#eeeeee" stroke="none" font-family="Arial" font-size="24px" font-style="normal" font-weight="normal" text-decoration="none" x="400" y="180"></text><text fill="#eeeeee" stroke="none" font-family="Arial" font-size="24px" font-style="normal" font-weight="normal" text-decoration="none" x="400" y="210"></text><text fill="#eeeeee" stroke="none" font-family="Arial" font-size="24px" font-style="normal" font-weight="normal" text-decoration="none" x="400" y="240"></text><text fill="#eeeeee" stroke="none" font-family="Arial" font-size="24px" font-style="normal" font-weight="normal" text-decoration="none" x="400" y="270"></text><text fill="#eeeeee" stroke="none" font-family="Arial" font-size="24px" font-style="normal" font-weight="normal" text-decoration="none" x="400" y="300"></text><text fill="#eeeeee" stroke="none" font-family="Arial" font-size="24px" font-style="normal" font-weight="normal" text-decoration="none" x="600" y="0"></text><text fill="#eeeeee" stroke="none" font-family="Arial" font-size="24px" font-style="normal" font-weight="normal" text-decoration="none" x="600" y="30"></text><text fill="#eeeeee" stroke="none" font-family="Arial" font-size="24px" font-style="normal" font-weight="normal" text-decoration="none" x="600" y="60"></text><text fill="#eeeeee" stroke="none" font-family="Arial" font-size="24px" font-style="normal" font-weight="normal" text-decoration="none" x="600" y="90"></text><text fill="#eeeeee" stroke="none" font-family="Arial" font-size="24px" font-style="normal" font-weight="normal" text-decoration="none" x="600" y="120"></text><text fill="#eeeeee" stroke="none" font-family="Arial" font-size="24px" font-style="normal" font-weight="normal" text-decoration="none" x="600" y="150"></text><text fill="#eeeeee" stroke="none" font-family="Arial" font-size="24px" font-style="normal" font-weight="normal" text-decoration="none" x="600" y="180"></text><text fill="#eeeeee" stroke="none" font-family="Arial" font-size="24px" font-style="normal" font-weight="normal" text-decoration="none" x="600" y="210"></text><text fill="#eeeeee" stroke="none" font-family="Arial" font-size="24px" font-style="normal" font-weight="normal" text-decoration="none" x="600" y="240"></text><text fill="#eeeeee" stroke="none" font-family="Arial" font-size="24px" font-style="normal" font-weight="normal" text-decoration="none" x="600" y="270"></text><text fill="#eeeeee" stroke="none" font-family="Arial" font-size="24px" font-style="normal" font-weight="normal" text-decoration="none" x="600" y="300"></text><text fill="#eeeeee" stroke="none" font-family="Arial" font-size="24px" font-style="normal" font-weight="normal" text-decoration="none" x="800" y="0"></text><text fill="#eeeeee" stroke="none" font-family="Arial" font-size="24px" font-style="normal" font-weight="normal" text-decoration="none" x="800" y="30"></text><text fill="#eeeeee" stroke="none" font-family="Arial" font-size="24px" font-style="normal" font-weight="normal" text-decoration="none" x="800" y="60"></text><text fill="#eeeeee" stroke="none" font-family="Arial" font-size="24px" font-style="normal" font-weight="normal" text-decoration="none" x="800" y="90"></text><text fill="#eeeeee" stroke="none" font-family="Arial" font-size="24px" font-style="normal" font-weight="normal" text-decoration="none" x="800" y="120"></text><text fill="#eeeeee" stroke="none" font-family="Arial" font-size="24px" font-style="normal" font-weight="normal" text-decoration="none" x="800" y="150"></text><text fill="#eeeeee" stroke="none" font-family="Arial" font-size="24px" font-style="normal" font-weight="normal" text-decoration="none" x="800" y="180"></text><text fill="#eeeeee" stroke="none" font-family="Arial" font-size="24px" font-style="normal" font-weight="normal" text-decoration="none" x="800" y="210"></text><text fill="#eeeeee" stroke="none" font-family="Arial" font-size="24px" font-style="normal" font-weight="normal" text-decoration="none" x="800" y="240"></text><text fill="#eeeeee" stroke="none" font-family="Arial" font-size="24px" font-style="normal" font-weight="normal" text-decoration="none" x="800" y="270"></text><text fill="#eeeeee" stroke="none" font-family="Arial" font-size="24px" font-style="normal" font-weight="normal" text-decoration="none" x="800" y="300"></text><g transform="translate(-86,-422) scale(1,1)"><rect fill="#C0C0C0" stroke="none" x="479" y="439" width="50.919921875" height="44" opacity="0.2"/></g><g transform="translate(-86,-422) scale(1,1)"><rect fill="#8fbcd3" stroke="none" x="472" y="432" width="50.919921875" height="44"/></g><g transform="translate(-86,-422) scale(1,1)"><path fill="none" stroke="#000000" d="M 472 432 L 522.919921875 432 L 522.919921875 476 L 472 476 L 472 432 Z Z" stroke-miterlimit="10"/></g><g transform="translate(-86,-422) scale(1,1)"><path fill="none" stroke="#000000" d="M 472 457 L 522.919921875 457" stroke-miterlimit="10"/></g><g transform="translate(-86,-422) scale(1,1)"><path fill="none" stroke="#000000" d="M 472 467 L 522.919921875 467" stroke-miterlimit="10"/></g><g transform="translate(-86,-422) scale(1,1)"><g><path fill="none" stroke="none"/><text fill="#000000" stroke="none" font-family="Arial" font-size="13px" font-style="normal" font-weight="bold" text-decoration="none" x="479.404052734375" y="449.5">Client</text></g></g><g transform="translate(-86,-422) scale(1,1)"><rect fill="#C0C0C0" stroke="none" x="479" y="535" width="120.236328125" height="44" opacity="0.2"/></g><g transform="translate(-86,-422) scale(1,1)"><rect fill="#8fbcd3" stroke="none" x="472" y="528" width="120.236328125" height="44"/></g><g transform="translate(-86,-422) scale(1,1)"><path fill="none" stroke="#000000" d="M 472 528 L 592.236328125 528 L 592.236328125 572 L 472 572 L 472 528 Z Z" stroke-miterlimit="10"/></g><g transform="translate(-86,-422) scale(1,1)"><path fill="none" stroke="#000000" d="M 472 553 L 592.236328125 553" stroke-miterlimit="10"/></g><g transform="translate(-86,-422) scale(1,1)"><path fill="none" stroke="#000000" d="M 472 563 L 592.236328125 563" stroke-miterlimit="10"/></g><g transform="translate(-86,-422) scale(1,1)"><g><path fill="none" stroke="none"/><text fill="#000000" stroke="none" font-family="Arial" font-size="13px" font-style="normal" font-weight="bold" text-decoration="none" x="476.5" y="545.5">AbstractProductA</text></g></g><g transform="translate(-86,-422) scale(1,1)"><rect fill="#C0C0C0" stroke="none" x="791" y="535" width="120.236328125" height="44" opacity="0.2"/></g><g transform="translate(-86,-422) scale(1,1)"><rect fill="#8fbcd3" stroke="none" x="784" y="528" width="120.236328125" height="44"/></g><g transform="translate(-86,-422) scale(1,1)"><path fill="none" stroke="#000000" d="M 784 528 L 904.236328125 528 L 904.236328125 572 L 784 572 L 784 528 Z Z" stroke-miterlimit="10"/></g><g transform="translate(-86,-422) scale(1,1)"><path fill="none" stroke="#000000" d="M 784 553 L 904.236328125 553" stroke-miterlimit="10"/></g><g transform="translate(-86,-422) scale(1,1)"><path fill="none" stroke="#000000" d="M 784 563 L 904.236328125 563" stroke-miterlimit="10"/></g><g transform="translate(-86,-422) scale(1,1)"><g><path fill="none" stroke="none"/><text fill="#000000" stroke="none" font-family="Arial" font-size="13px" font-style="normal" font-weight="bold" text-decoration="none" x="788.5" y="545.5">AbstractProductB</text></g></g><g transform="translate(-86,-422) scale(1,1)"><rect fill="#C0C0C0" stroke="none" x="391" y="615" width="133.236328125" height="44" opacity="0.2"/></g><g transform="translate(-86,-422) scale(1,1)"><rect fill="#8fbcd3" stroke="none" x="384" y="608" width="133.236328125" height="44"/></g><g transform="translate(-86,-422) scale(1,1)"><path fill="none" stroke="#000000" d="M 384 608 L 517.236328125 608 L 517.236328125 652 L 384 652 L 384 608 Z Z" stroke-miterlimit="10"/></g><g transform="translate(-86,-422) scale(1,1)"><path fill="none" stroke="#000000" d="M 384 633 L 517.236328125 633" stroke-miterlimit="10"/></g><g transform="translate(-86,-422) scale(1,1)"><path fill="none" stroke="#000000" d="M 384 643 L 517.236328125 643" stroke-miterlimit="10"/></g><g transform="translate(-86,-422) scale(1,1)"><g><path fill="none" stroke="none"/><text fill="#000000" stroke="none" font-family="Arial" font-size="13px" font-style="normal" font-weight="bold" text-decoration="none" x="388.5" y="625.5">ConcreteProductAA</text></g></g><g transform="translate(-86,-422) scale(1,1)"><rect fill="#C0C0C0" stroke="none" x="543" y="615" width="133.236328125" height="44" opacity="0.2"/></g><g transform="translate(-86,-422) scale(1,1)"><rect fill="#8fbcd3" stroke="none" x="536" y="608" width="133.236328125" height="44"/></g><g transform="translate(-86,-422) scale(1,1)"><path fill="none" stroke="#000000" d="M 536 608 L 669.236328125 608 L 669.236328125 652 L 536 652 L 536 608 Z Z" stroke-miterlimit="10"/></g><g transform="translate(-86,-422) scale(1,1)"><path fill="none" stroke="#000000" d="M 536 633 L 669.236328125 633" stroke-miterlimit="10"/></g><g transform="translate(-86,-422) scale(1,1)"><path fill="none" stroke="#000000" d="M 536 643 L 669.236328125 643" stroke-miterlimit="10"/></g><g transform="translate(-86,-422) scale(1,1)"><g><path fill="none" stroke="none"/><text fill="#000000" stroke="none" font-family="Arial" font-size="13px" font-style="normal" font-weight="bold" text-decoration="none" x="540.5" y="625.5">ConcreteProductAB</text></g></g><g transform="translate(-86,-422) scale(1,1)"><rect fill="#C0C0C0" stroke="none" x="711" y="615" width="133.236328125" height="44" opacity="0.2"/></g><g transform="translate(-86,-422) scale(1,1)"><rect fill="#8fbcd3" stroke="none" x="704" y="608" width="133.236328125" height="44"/></g><g transform="translate(-86,-422) scale(1,1)"><path fill="none" stroke="#000000" d="M 704 608 L 837.236328125 608 L 837.236328125 652 L 704 652 L 704 608 Z Z" stroke-miterlimit="10"/></g><g transform="translate(-86,-422) scale(1,1)"><path fill="none" stroke="#000000" d="M 704 633 L 837.236328125 633" stroke-miterlimit="10"/></g><g transform="translate(-86,-422) scale(1,1)"><path fill="none" stroke="#000000" d="M 704 643 L 837.236328125 643" stroke-miterlimit="10"/></g><g transform="translate(-86,-422) scale(1,1)"><g><path fill="none" stroke="none"/><text fill="#000000" stroke="none" font-family="Arial" font-size="13px" font-style="normal" font-weight="bold" text-decoration="none" x="708.5" y="625.5">ConcreteProductBA</text></g></g><g transform="translate(-86,-422) scale(1,1)"><rect fill="#C0C0C0" stroke="none" x="863" y="615" width="133.236328125" height="44" opacity="0.2"/></g><g transform="translate(-86,-422) scale(1,1)"><rect fill="#8fbcd3" stroke="none" x="856" y="608" width="133.236328125" height="44"/></g><g transform="translate(-86,-422) scale(1,1)"><path fill="none" stroke="#000000" d="M 856 608 L 989.236328125 608 L 989.236328125 652 L 856 652 L 856 608 Z Z" stroke-miterlimit="10"/></g><g transform="translate(-86,-422) scale(1,1)"><path fill="none" stroke="#000000" d="M 856 633 L 989.236328125 633" stroke-miterlimit="10"/></g><g transform="translate(-86,-422) scale(1,1)"><path fill="none" stroke="#000000" d="M 856 643 L 989.236328125 643" stroke-miterlimit="10"/></g><g transform="translate(-86,-422) scale(1,1)"><g><path fill="none" stroke="none"/><text fill="#000000" stroke="none" font-family="Arial" font-size="13px" font-style="normal" font-weight="bold" text-decoration="none" x="860.5" y="625.5">ConcreteProductBB</text></g></g><g transform="translate(-86,-422) scale(1,1)"><rect fill="#C0C0C0" stroke="none" x="183" y="535" width="108.6962890625" height="44" opacity="0.2"/></g><g transform="translate(-86,-422) scale(1,1)"><rect fill="#8fbcd3" stroke="none" x="176" y="528" width="108.6962890625" height="44"/></g><g transform="translate(-86,-422) scale(1,1)"><path fill="none" stroke="#000000" d="M 176 528 L 284.6962890625 528 L 284.6962890625 572 L 176 572 L 176 528 Z Z" stroke-miterlimit="10"/></g><g transform="translate(-86,-422) scale(1,1)"><path fill="none" stroke="#000000" d="M 176 553 L 284.6962890625 553" stroke-miterlimit="10"/></g><g transform="translate(-86,-422) scale(1,1)"><path fill="none" stroke="#000000" d="M 176 563 L 284.6962890625 563" stroke-miterlimit="10"/></g><g transform="translate(-86,-422) scale(1,1)"><g><path fill="none" stroke="none"/><text fill="#000000" stroke="none" font-family="Arial" font-size="13px" font-style="normal" font-weight="bold" text-decoration="none" x="180.5" y="545.5">AbstractFactory</text></g></g><g transform="translate(-86,-422) scale(1,1)"><rect fill="#C0C0C0" stroke="none" x="103" y="615" width="121.6962890625" height="72" opacity="0.2"/></g><g transform="translate(-86,-422) scale(1,1)"><rect fill="#8fbcd3" stroke="none" x="96" y="608" width="121.6962890625" height="72"/></g><g transform="translate(-86,-422) scale(1,1)"><path fill="none" stroke="#000000" d="M 96 608 L 217.6962890625 608 L 217.6962890625 680 L 96 680 L 96 608 Z Z" stroke-miterlimit="10"/></g><g transform="translate(-86,-422) scale(1,1)"><path fill="none" stroke="#000000" d="M 96 633 L 217.6962890625 633" stroke-miterlimit="10"/></g><g transform="translate(-86,-422) scale(1,1)"><path fill="none" stroke="#000000" d="M 96 643 L 217.6962890625 643" stroke-miterlimit="10"/></g><g transform="translate(-86,-422) scale(1,1)"><g><path fill="none" stroke="none"/><text fill="#000000" stroke="none" font-family="Arial" font-size="13px" font-style="normal" font-weight="bold" text-decoration="none" x="100.5" y="625.5">ConcreteFactoryA</text></g></g><g transform="translate(-86,-422) scale(1,1)"><g><path fill="none" stroke="none"/><text fill="#000000" stroke="none" font-family="Arial" font-size="13px" font-style="normal" font-weight="normal" text-decoration="none" x="101" y="658.5">+createProductA()</text></g></g><g transform="translate(-86,-422) scale(1,1)"><g><path fill="none" stroke="none"/><text fill="#000000" stroke="none" font-family="Arial" font-size="13px" font-style="normal" font-weight="normal" text-decoration="none" x="101" y="673.5">+createProductB()</text></g></g><g transform="translate(-86,-422) scale(1,1)"><rect fill="#C0C0C0" stroke="none" x="247" y="615" width="121.6962890625" height="72" opacity="0.2"/></g><g transform="translate(-86,-422) scale(1,1)"><rect fill="#8fbcd3" stroke="none" x="240" y="608" width="121.6962890625" height="72"/></g><g transform="translate(-86,-422) scale(1,1)"><path fill="none" stroke="#000000" d="M 240 608 L 361.6962890625 608 L 361.6962890625 680 L 240 680 L 240 608 Z Z" stroke-miterlimit="10"/></g><g transform="translate(-86,-422) scale(1,1)"><path fill="none" stroke="#000000" d="M 240 633 L 361.6962890625 633" stroke-miterlimit="10"/></g><g transform="translate(-86,-422) scale(1,1)"><path fill="none" stroke="#000000" d="M 240 643 L 361.6962890625 643" stroke-miterlimit="10"/></g><g transform="translate(-86,-422) scale(1,1)"><g><path fill="none" stroke="none"/><text fill="#000000" stroke="none" font-family="Arial" font-size="13px" font-style="normal" font-weight="bold" text-decoration="none" x="244.5" y="625.5">ConcreteFactoryB</text></g></g><g transform="translate(-86,-422) scale(1,1)"><g><path fill="none" stroke="none"/><text fill="#000000" stroke="none" font-family="Arial" font-size="13px" font-style="normal" font-weight="normal" text-decoration="none" x="245" y="658.5">+createProductA()</text></g></g><g transform="translate(-86,-422) scale(1,1)"><g><path fill="none" stroke="none"/><text fill="#000000" stroke="none" font-family="Arial" font-size="13px" font-style="normal" font-weight="normal" text-decoration="none" x="245" y="673.5">+createProductB()</text></g></g><g transform="translate(-86,-422) scale(1,1)"><path fill="none" stroke="#000000" d="M 791 607 L 823 573" stroke-miterlimit="10"/></g><g transform="translate(-86,-422) scale(1,1)"><path fill="#FFFFFF" stroke="none" d="M 815.2004644085798 593.5710292537386 L 823 573 L 802.9389812118956 582.0308097745063"/></g><g transform="translate(-86,-422) scale(1,1)"><path fill="none" stroke="#000000" d="M 815.2004644085798 593.5710292537386 L 823 573 L 802.9389812118956 582.0308097745063 L 815.2004644085798 593.5710292537386" stroke-miterlimit="10"/></g><g transform="translate(-86,-422) scale(1,1)"><path fill="none" stroke="#000000" d="M 900 607 L 866 573" stroke-miterlimit="10"/></g><g transform="translate(-86,-422) scale(1,1)"><path fill="#FFFFFF" stroke="none" d="M 886.3253497152483 581.419035512032 L 866 573 L 874.419035512032 593.3253497152483"/></g><g transform="translate(-86,-422) scale(1,1)"><path fill="none" stroke="#000000" d="M 886.3253497152483 581.419035512032 L 866 573 L 874.419035512032 593.3253497152483 L 886.3253497152483 581.419035512032" stroke-miterlimit="10"/></g><g transform="translate(-86,-422) scale(1,1)"><path fill="none" stroke="#000000" d="M 474 607 L 508 573" stroke-miterlimit="10"/></g><g transform="translate(-86,-422) scale(1,1)"><path fill="#FFFFFF" stroke="none" d="M 499.580964487968 593.3253497152483 L 508 573 L 487.6746502847517 581.419035512032"/></g><g transform="translate(-86,-422) scale(1,1)"><path fill="none" stroke="#000000" d="M 499.580964487968 593.3253497152483 L 508 573 L 487.6746502847517 581.419035512032 L 499.580964487968 593.3253497152483" stroke-miterlimit="10"/></g><g transform="translate(-86,-422) scale(1,1)"><path fill="none" stroke="#000000" d="M 582 607 L 552 573" stroke-miterlimit="10"/></g><g transform="translate(-86,-422) scale(1,1)"><path fill="#FFFFFF" stroke="none" d="M 571.7606026855499 582.6705005818644 L 552 573 L 559.1347796203806 593.8109326981902"/></g><g transform="translate(-86,-422) scale(1,1)"><path fill="none" stroke="#000000" d="M 571.7606026855499 582.6705005818644 L 552 573 L 559.1347796203806 593.8109326981902 L 571.7606026855499 582.6705005818644" stroke-miterlimit="10"/></g><g transform="translate(-86,-422) scale(1,1)"><path fill="none" stroke="#000000" d="M 185 607 L 212 573" stroke-miterlimit="10"/></g><g transform="translate(-86,-422) scale(1,1)"><path fill="#FFFFFF" stroke="none" d="M 205.9530659845751 594.1526496924877 L 212 573 L 192.7669899146839 583.681353989927"/></g><g transform="translate(-86,-422) scale(1,1)"><path fill="none" stroke="#000000" d="M 205.9530659845751 594.1526496924877 L 212 573 L 192.7669899146839 583.681353989927 L 205.9530659845751 594.1526496924877" stroke-miterlimit="10"/></g><g transform="translate(-86,-422) scale(1,1)"><path fill="none" stroke="#000000" d="M 272 607 L 247 573" stroke-miterlimit="10"/></g><g transform="translate(-86,-422) scale(1,1)"><path fill="#FFFFFF" stroke="none" d="M 265.8233475597291 584.3877823409847 L 247 573 L 252.257738588129 594.3624948201024"/></g><g transform="translate(-86,-422) scale(1,1)"><path fill="none" stroke="#000000" d="M 265.8233475597291 584.3877823409847 L 247 573 L 252.257738588129 594.3624948201024 L 265.8233475597291 584.3877823409847" stroke-miterlimit="10"/></g><g transform="translate(-86,-422) scale(1,1)"><path fill="none" stroke="#000000" d="M 298 681 L 296 712 L 600 712 L 601 653" stroke-miterlimit="10" stroke-dasharray="3"/></g><g transform="translate(-86,-422) scale(1,1)"><path fill="none" stroke="#000000" d="M 605.0366892537772 663.2325529497012 L 601 653 L 596.6188627653046 663.089877924473" stroke-miterlimit="10"/></g><g transform="translate(-86,-422) scale(1,1)"><path fill="none" stroke="#000000" d="M 298 681 L 296 712 L 920 712 L 921 653" stroke-miterlimit="10" stroke-dasharray="3"/></g><g transform="translate(-86,-422) scale(1,1)"><path fill="none" stroke="#000000" d="M 925.0366892537772 663.2325529497012 L 921 653 L 916.6188627653046 663.089877924473" stroke-miterlimit="10"/></g><g transform="translate(-86,-422) scale(1,1)"><path fill="none" stroke="#000000" d="M 154 681 L 152 736 L 448 736 L 450 653" stroke-miterlimit="10" stroke-dasharray="3"/></g><g transform="translate(-86,-422) scale(1,1)"><path fill="none" stroke="#000000" d="M 453.96348352128354 663.2611304628931 L 450 653 L 445.5468911420691 663.0583210079724" stroke-miterlimit="10"/></g><g transform="translate(-86,-422) scale(1,1)"><path fill="none" stroke="#000000" d="M 154 681 L 152 736 L 768 736 L 770 653" stroke-miterlimit="10" stroke-dasharray="3"/></g><g transform="translate(-86,-422) scale(1,1)"><path fill="none" stroke="#000000" d="M 773.9634835212835 663.2611304628931 L 770 653 L 765.5468911420691 663.0583210079724" stroke-miterlimit="10"/></g><g transform="translate(-86,-422) scale(1,1)"><path fill="none" stroke="#000000" d="M 471 454 L 232 456 L 230 527" stroke-miterlimit="10"/></g><g transform="translate(-86,-422) scale(1,1)"><path fill="none" stroke="#000000" d="M 226.07831038397893 516.7228238043909 L 230 527 L 234.4940076581667 516.9598856994386" stroke-miterlimit="10"/></g><g transform="translate(-86,-422) scale(1,1)"><path fill="none" stroke="#000000" d="M 505 477 L 524 527" stroke-miterlimit="10"/></g><g transform="translate(-86,-422) scale(1,1)"><path fill="none" stroke="#000000" d="M 516.4550493146104 518.995393878832 L 524 527 L 524.3250254756481 516.0048029376377" stroke-miterlimit="10"/></g><g transform="translate(-86,-422) scale(1,1)"><path fill="none" stroke="#000000" d="M 524 454 L 848 456 L 845 527" stroke-miterlimit="10"/></g><g transform="translate(-86,-422) scale(1,1)"><path fill="none" stroke="#000000" d="M 841.2232609568264 516.6686766481845 L 845 527 L 849.6347910124996 517.0240934111002" stroke-miterlimit="10"/></g></g></svg>
