<svg version="1.1" xmlns="http://www.w3.org/2000/svg" xmlns:xlink="http://www.w3.org/1999/xlink" width="555.51904296875" height="296"><defs/><g><text fill="#eeeeee" stroke="none" font-family="Arial" font-size="24px" font-style="normal" font-weight="normal" text-decoration="none" x="0" y="0"></text><text fill="#eeeeee" stroke="none" font-family="Arial" font-size="24px" font-style="normal" font-weight="normal" text-decoration="none" x="0" y="30"></text><text fill="#eeeeee" stroke="none" font-family="Arial" font-size="24px" font-style="normal" font-weight="normal" text-decoration="none" x="0" y="60"></text><text fill="#eeeeee" stroke="none" font-family="Arial" font-size="24px" font-style="normal" font-weight="normal" text-decoration="none" x="0" y="90"></text><text fill="#eeeeee" stroke="none" font-family="Arial" font-size="24px" font-style="normal" font-weight="normal" text-decoration="none" x="0" y="120"></text><text fill="#eeeeee" stroke="none" font-family="Arial" font-size="24px" font-style="normal" font-weight="normal" text-decoration="none" x="0" y="150"></text><text fill="#eeeeee" stroke="none" font-family="Arial" font-size="24px" font-style="normal" font-weight="normal" text-decoration="none" x="0" y="180"></text><text fill="#eeeeee" stroke="none" font-family="Arial" font-size="24px" font-style="normal" font-weight="normal" text-decoration="none" x="0" y="210"></text><text fill="#eeeeee" stroke="none" font-family="Arial" font-size="24px" font-style="normal" font-weight="normal" text-decoration="none" x="0" y="240"></text><text fill="#eeeeee" stroke="none" font-family="Arial" font-size="24px" font-style="normal" font-weight="normal" text-decoration="none" x="0" y="270"></text><text fill="#eeeeee" stroke="none" font-family="Arial" font-size="24px" font-style="normal" font-weight="normal" text-decoration="none" x="200" y="0"></text><text fill="#eeeeee" stroke="none" font-family="Arial" font-size="24px" font-style="normal" font-weight="normal" text-decoration="none" x="200" y="30"></text><text fill="#eeeeee" stroke="none" font-family="Arial" font-size="24px" font-style="normal" font-weight="normal" text-decoration="none" x="200" y="60"></text><text fill="#eeeeee" stroke="none" font-family="Arial" font-size="24px" font-style="normal" font-weight="normal" text-decoration="none" x="200" y="90"></text><text fill="#eeeeee" stroke="none" font-family="Arial" font-size="24px" font-style="normal" font-weight="normal" text-decoration="none" x="200" y="120"></text><text fill="#eeeeee" stroke="none" font-family="Arial" font-size="24px" font-style="normal" font-weight="normal" text-decoration="none" x="200" y="150"></text><text fill="#eeeeee" stroke="none" font-family="Arial" font-size="24px" font-style="normal" font-weight="normal" text-decoration="none" x="200" y="180"></text><text fill="#eeeeee" stroke="none" font-family="Arial" font-size="24px" font-style="normal" font-weight="normal" text-decoration="none" x="200" y="210"></text><text fill="#eeeeee" stroke="none" font-family="Arial" font-size="24px" font-style="normal" font-weight="normal" text-decoration="none" x="200" y="240"></text><text fill="#eeeeee" stroke="none" font-family="Arial" font-size="24px" font-style="normal" font-weight="normal" text-decoration="none" x="200" y="270"></text><text fill="#eeeeee" stroke="none" font-family="Arial" font-size="24px" font-style="normal" font-weight="normal" text-decoration="none" x="400" y="0"></text><text fill="#eeeeee" stroke="none" font-family="Arial" font-size="24px" font-style="normal" font-weight="normal" text-decoration="none" x="400" y="30"></text><text fill="#eeeeee" stroke="none" font-family="Arial" font-size="24px" font-style="normal" font-weight="normal" text-decoration="none" x="400" y="60"></text><text fill="#eeeeee" stroke="none" font-family="Arial" font-size="24px" font-style="normal" font-weight="normal" text-decoration="none" x="400" y="90"></text><text fill="#eeeeee" stroke="none" font-family="Arial" font-size="24px" font-style="normal" font-weight="normal" text-decoration="none" x="400" y="120"></text><text fill="#eeeeee" stroke="none" font-family="Arial" font-size="24px" font-style="normal" font-weight="normal" text-decoration="none" x="400" y="150"></text><text fill="#eeeeee" stroke="none" font-family="Arial" font-size="24px" font-style="normal" font-weight="normal" text-decoration="none" x="400" y="180"></text><text fill="#eeeeee" stroke="none" font-family="Arial" font-size="24px" font-style="normal" font-weight="normal" text-decoration="none" x="400" y="210"></text><text fill="#eeeeee" stroke="none" font-family="Arial" font-size="24px" font-style="normal" font-weight="normal" text-decoration="none" x="400" y="240"></text><text fill="#eeeeee" stroke="none" font-family="Arial" font-size="24px" font-style="normal" font-weight="normal" text-decoration="none" x="400" y="270"></text><g transform="translate(-70,-78) scale(1,1)"><rect fill="#C0C0C0" stroke="none" x="423" y="95" width="89.57080078125" height="72" opacity="0.2"/></g><g transform="translate(-70,-78) scale(1,1)"><rect fill="#8fbcd3" stroke="none" x="416" y="88" width="89.57080078125" height="72"/></g><g transform="translate(-70,-78) scale(1,1)"><path fill="none" stroke="#000000" d="M 416 88 L 505.57080078125 88 L 505.57080078125 160 L 416 160 L 416 88 Z Z" stroke-miterlimit="10"/></g><g transform="translate(-70,-78) scale(1,1)"><path fill="none" stroke="#000000" d="M 416 113 L 505.57080078125 113" stroke-miterlimit="10"/></g><g transform="translate(-70,-78) scale(1,1)"><path fill="none" stroke="#000000" d="M 416 123 L 505.57080078125 123" stroke-miterlimit="10"/></g><g transform="translate(-70,-78) scale(1,1)"><g><path fill="none" stroke="none"/><text fill="#000000" stroke="none" font-family="Arial" font-size="13px" font-style="normal" font-weight="bold" text-decoration="none" x="438.39404296875" y="105.5">Builder</text></g></g><g transform="translate(-70,-78) scale(1,1)"><g><path fill="none" stroke="none"/><text fill="#000000" stroke="none" font-family="Arial" font-size="13px" font-style="normal" font-weight="normal" text-decoration="none" x="421" y="138.5">+buildPart()</text></g></g><g transform="translate(-70,-78) scale(1,1)"><g><path fill="none" stroke="none"/><text fill="#000000" stroke="none" font-family="Arial" font-size="13px" font-style="normal" font-weight="normal" text-decoration="none" x="421" y="153.5">+getResult()</text></g></g><g transform="translate(-70,-78) scale(1,1)"><rect fill="#C0C0C0" stroke="none" x="311" y="207" width="119.51904296875" height="72" opacity="0.2"/></g><g transform="translate(-70,-78) scale(1,1)"><rect fill="#8fbcd3" stroke="none" x="304" y="200" width="119.51904296875" height="72"/></g><g transform="translate(-70,-78) scale(1,1)"><path fill="none" stroke="#000000" d="M 304 200 L 423.51904296875 200 L 423.51904296875 272 L 304 272 L 304 200 Z Z" stroke-miterlimit="10"/></g><g transform="translate(-70,-78) scale(1,1)"><path fill="none" stroke="#000000" d="M 304 225 L 423.51904296875 225" stroke-miterlimit="10"/></g><g transform="translate(-70,-78) scale(1,1)"><path fill="none" stroke="#000000" d="M 304 235 L 423.51904296875 235" stroke-miterlimit="10"/></g><g transform="translate(-70,-78) scale(1,1)"><g><path fill="none" stroke="none"/><text fill="#000000" stroke="none" font-family="Arial" font-size="13px" font-style="normal" font-weight="bold" text-decoration="none" x="308.5" y="217.5">ConcreteBuilderA</text></g></g><g transform="translate(-70,-78) scale(1,1)"><g><path fill="none" stroke="none"/><text fill="#000000" stroke="none" font-family="Arial" font-size="13px" font-style="normal" font-weight="normal" text-decoration="none" x="309" y="250.5">+buildPart()</text></g></g><g transform="translate(-70,-78) scale(1,1)"><g><path fill="none" stroke="none"/><text fill="#000000" stroke="none" font-family="Arial" font-size="13px" font-style="normal" font-weight="normal" text-decoration="none" x="309" y="265.5">+getResult()</text></g></g><g transform="translate(-70,-78) scale(1,1)"><rect fill="#C0C0C0" stroke="none" x="503" y="207" width="119.51904296875" height="72" opacity="0.2"/></g><g transform="translate(-70,-78) scale(1,1)"><rect fill="#8fbcd3" stroke="none" x="496" y="200" width="119.51904296875" height="72"/></g><g transform="translate(-70,-78) scale(1,1)"><path fill="none" stroke="#000000" d="M 496 200 L 615.51904296875 200 L 615.51904296875 272 L 496 272 L 496 200 Z Z" stroke-miterlimit="10"/></g><g transform="translate(-70,-78) scale(1,1)"><path fill="none" stroke="#000000" d="M 496 225 L 615.51904296875 225" stroke-miterlimit="10"/></g><g transform="translate(-70,-78) scale(1,1)"><path fill="none" stroke="#000000" d="M 496 235 L 615.51904296875 235" stroke-miterlimit="10"/></g><g transform="translate(-70,-78) scale(1,1)"><g><path fill="none" stroke="none"/><text fill="#000000" stroke="none" font-family="Arial" font-size="13px" font-style="normal" font-weight="bold" text-decoration="none" x="500.5" y="217.5">ConcreteBuilderB</text></g></g><g transform="translate(-70,-78) scale(1,1)"><g><path fill="none" stroke="none"/><text fill="#000000" stroke="none" font-family="Arial" font-size="13px" font-style="normal" font-weight="normal" text-decoration="none" x="501" y="250.5">+buildPart()</text></g></g><g transform="translate(-70,-78) scale(1,1)"><g><path fill="none" stroke="none"/><text fill="#000000" stroke="none" font-family="Arial" font-size="13px" font-style="normal" font-weight="normal" text-decoration="none" x="501" y="265.5">+getResult()</text></g></g><g transform="translate(-70,-78) scale(1,1)"><rect fill="#C0C0C0" stroke="none" x="335" y="327" width="67.5" height="44" opacity="0.2"/></g><g transform="translate(-70,-78) scale(1,1)"><rect fill="#8fbcd3" stroke="none" x="328" y="320" width="67.5" height="44"/></g><g transform="translate(-70,-78) scale(1,1)"><path fill="none" stroke="#000000" d="M 328 320 L 395.5 320 L 395.5 364 L 328 364 L 328 320 Z Z" stroke-miterlimit="10"/></g><g transform="translate(-70,-78) scale(1,1)"><path fill="none" stroke="#000000" d="M 328 345 L 395.5 345" stroke-miterlimit="10"/></g><g transform="translate(-70,-78) scale(1,1)"><path fill="none" stroke="#000000" d="M 328 355 L 395.5 355" stroke-miterlimit="10"/></g><g transform="translate(-70,-78) scale(1,1)"><g><path fill="none" stroke="none"/><text fill="#000000" stroke="none" font-family="Arial" font-size="13px" font-style="normal" font-weight="bold" text-decoration="none" x="332.5" y="337.5">ProductA</text></g></g><g transform="translate(-70,-78) scale(1,1)"><rect fill="#C0C0C0" stroke="none" x="535" y="327" width="67.5" height="44" opacity="0.2"/></g><g transform="translate(-70,-78) scale(1,1)"><rect fill="#8fbcd3" stroke="none" x="528" y="320" width="67.5" height="44"/></g><g transform="translate(-70,-78) scale(1,1)"><path fill="none" stroke="#000000" d="M 528 320 L 595.5 320 L 595.5 364 L 528 364 L 528 320 Z Z" stroke-miterlimit="10"/></g><g transform="translate(-70,-78) scale(1,1)"><path fill="none" stroke="#000000" d="M 528 345 L 595.5 345" stroke-miterlimit="10"/></g><g transform="translate(-70,-78) scale(1,1)"><path fill="none" stroke="#000000" d="M 528 355 L 595.5 355" stroke-miterlimit="10"/></g><g transform="translate(-70,-78) scale(1,1)"><g><path fill="none" stroke="none"/><text fill="#000000" stroke="none" font-family="Arial" font-size="13px" font-style="normal" font-weight="bold" text-decoration="none" x="532.5" y="337.5">ProductB</text></g></g><g transform="translate(-70,-78) scale(1,1)"><rect fill="#C0C0C0" stroke="none" x="183" y="111" width="58.84814453125" height="44" opacity="0.2"/></g><g transform="translate(-70,-78) scale(1,1)"><rect fill="#8fbcd3" stroke="none" x="176" y="104" width="58.84814453125" height="44"/></g><g transform="translate(-70,-78) scale(1,1)"><path fill="none" stroke="#000000" d="M 176 104 L 234.84814453125 104 L 234.84814453125 148 L 176 148 L 176 104 Z Z" stroke-miterlimit="10"/></g><g transform="translate(-70,-78) scale(1,1)"><path fill="none" stroke="#000000" d="M 176 129 L 234.84814453125 129" stroke-miterlimit="10"/></g><g transform="translate(-70,-78) scale(1,1)"><path fill="none" stroke="#000000" d="M 176 139 L 234.84814453125 139" stroke-miterlimit="10"/></g><g transform="translate(-70,-78) scale(1,1)"><g><path fill="none" stroke="none"/><text fill="#000000" stroke="none" font-family="Arial" font-size="13px" font-style="normal" font-weight="bold" text-decoration="none" x="180.5" y="121.5">Director</text></g></g><g transform="translate(-70,-78) scale(1,1)"><path fill="none" stroke="#000000" d="M 395 199 L 428 161" stroke-miterlimit="10"/></g><g transform="translate(-70,-78) scale(1,1)"><path fill="#FFFFFF" stroke="none" d="M 421.0295900609415 181.86656141489235 L 428 161 L 408.31628878792566 170.82606294095757"/></g><g transform="translate(-70,-78) scale(1,1)"><path fill="none" stroke="#000000" d="M 421.0295900609415 181.86656141489235 L 428 161 L 408.31628878792566 170.82606294095757 L 421.0295900609415 181.86656141489235" stroke-miterlimit="10"/></g><g transform="translate(-70,-78) scale(1,1)"><path fill="none" stroke="#000000" d="M 524 199 L 491 161" stroke-miterlimit="10"/></g><g transform="translate(-70,-78) scale(1,1)"><path fill="#FFFFFF" stroke="none" d="M 510.68371121207434 170.82606294095757 L 491 161 L 497.9704099390585 181.86656141489235"/></g><g transform="translate(-70,-78) scale(1,1)"><path fill="none" stroke="#000000" d="M 510.68371121207434 170.82606294095757 L 491 161 L 497.9704099390585 181.86656141489235 L 510.68371121207434 170.82606294095757" stroke-miterlimit="10"/></g><g transform="translate(-70,-78) scale(1,1)"><path fill="none" stroke="#000000" d="M 362 273 L 361 319" stroke-miterlimit="10" stroke-dasharray="3"/></g><g transform="translate(-70,-78) scale(1,1)"><path fill="none" stroke="#000000" d="M 357.0123521078249 308.74823604017183 L 361 319 L 365.42939894957703 308.93121531934037" stroke-miterlimit="10"/></g><g transform="translate(-70,-78) scale(1,1)"><path fill="none" stroke="#000000" d="M 557 273 L 560 319" stroke-miterlimit="10" stroke-dasharray="3"/></g><g transform="translate(-70,-78) scale(1,1)"><path fill="none" stroke="#000000" d="M 555.1380278627038 309.1328207203803 L 560 319 L 563.5392159115803 308.58491715197533" stroke-miterlimit="10"/></g><g transform="translate(-70,-78) scale(1,1)"><path fill="none" stroke="#000000" d="M 415 124 L 236 126" stroke-miterlimit="10"/></g><g transform="translate(-70,-78) scale(1,1)"><path fill="#000000" stroke="none" d="M 246.11500978022724 121.67720262493056 L 236 126 L 246.20907134497395 130.09571266975993 L 257.9986268880276 125.75420528616729"/></g><g transform="translate(-70,-78) scale(1,1)"><path fill="none" stroke="#000000" d="M 246.11500978022724 121.67720262493056 L 236 126 L 246.20907134497395 130.09571266975993 L 257.9986268880276 125.75420528616729 L 246.11500978022724 121.67720262493056" stroke-miterlimit="10"/></g><g transform="translate(-70,-78) scale(1,1)"><path fill="#8fbcd3" stroke="none" d="M 80 176 L 229 176 L 239 186 L 239 227 L 80 227 L 80 176"/></g><g transform="translate(-70,-78) scale(1,1)"><path fill="none" stroke="#000000" d="M 80 176 L 229 176 L 239 186 L 239 227 L 80 227 L 80 176 L 80 176" stroke-miterlimit="10"/></g><g transform="translate(-70,-78) scale(1,1)"><path fill="none" stroke="#000000" d="M 229 176 L 229 186 L 239 186 L 229 176" stroke-miterlimit="10"/></g><g transform="translate(-70,-78) scale(1,1)"><g><path fill="none" stroke="none"/><text fill="#000000" stroke="none" font-family="Arial" font-size="13px" font-style="normal" font-weight="normal" text-decoration="none" x="85" y="190">For all objects in structure</text><text fill="#000000" stroke="none" font-family="Arial" font-size="13px" font-style="normal" font-weight="normal" text-decoration="none" x="85" y="203">{</text></g></g><g transform="translate(-70,-78) scale(1,1)"><g><path fill="none" stroke="none"/><text fill="#000000" stroke="none" font-family="Arial" font-size="13px" font-style="normal" font-weight="normal" text-decoration="none" x="85" y="205">   builder.buildPart(); }</text></g></g><g transform="translate(-70,-78) scale(1,1)"><path fill="none" stroke="#000000" d="M 176 175 L 191 149" stroke-miterlimit="10" stroke-dasharray="3"/></g></g></svg>
