<svg version="1.1" xmlns="http://www.w3.org/2000/svg" xmlns:xlink="http://www.w3.org/1999/xlink" width="405.57080078125" height="355"><defs/><g><text fill="#eeeeee" stroke="none" font-family="Arial" font-size="24px" font-style="normal" font-weight="normal" text-decoration="none" x="0" y="0"></text><text fill="#eeeeee" stroke="none" font-family="Arial" font-size="24px" font-style="normal" font-weight="normal" text-decoration="none" x="0" y="30"></text><text fill="#eeeeee" stroke="none" font-family="Arial" font-size="24px" font-style="normal" font-weight="normal" text-decoration="none" x="0" y="60"></text><text fill="#eeeeee" stroke="none" font-family="Arial" font-size="24px" font-style="normal" font-weight="normal" text-decoration="none" x="0" y="90"></text><text fill="#eeeeee" stroke="none" font-family="Arial" font-size="24px" font-style="normal" font-weight="normal" text-decoration="none" x="0" y="120"></text><text fill="#eeeeee" stroke="none" font-family="Arial" font-size="24px" font-style="normal" font-weight="normal" text-decoration="none" x="0" y="150"></text><text fill="#eeeeee" stroke="none" font-family="Arial" font-size="24px" font-style="normal" font-weight="normal" text-decoration="none" x="0" y="180"></text><text fill="#eeeeee" stroke="none" font-family="Arial" font-size="24px" font-style="normal" font-weight="normal" text-decoration="none" x="0" y="210"></text><text fill="#eeeeee" stroke="none" font-family="Arial" font-size="24px" font-style="normal" font-weight="normal" text-decoration="none" x="0" y="240"></text><text fill="#eeeeee" stroke="none" font-family="Arial" font-size="24px" font-style="normal" font-weight="normal" text-decoration="none" x="0" y="270"></text><text fill="#eeeeee" stroke="none" font-family="Arial" font-size="24px" font-style="normal" font-weight="normal" text-decoration="none" x="0" y="300"></text><text fill="#eeeeee" stroke="none" font-family="Arial" font-size="24px" font-style="normal" font-weight="normal" text-decoration="none" x="0" y="330"></text><text fill="#eeeeee" stroke="none" font-family="Arial" font-size="24px" font-style="normal" font-weight="normal" text-decoration="none" x="200" y="0"></text><text fill="#eeeeee" stroke="none" font-family="Arial" font-size="24px" font-style="normal" font-weight="normal" text-decoration="none" x="200" y="30"></text><text fill="#eeeeee" stroke="none" font-family="Arial" font-size="24px" font-style="normal" font-weight="normal" text-decoration="none" x="200" y="60"></text><text fill="#eeeeee" stroke="none" font-family="Arial" font-size="24px" font-style="normal" font-weight="normal" text-decoration="none" x="200" y="90"></text><text fill="#eeeeee" stroke="none" font-family="Arial" font-size="24px" font-style="normal" font-weight="normal" text-decoration="none" x="200" y="120"></text><text fill="#eeeeee" stroke="none" font-family="Arial" font-size="24px" font-style="normal" font-weight="normal" text-decoration="none" x="200" y="150"></text><text fill="#eeeeee" stroke="none" font-family="Arial" font-size="24px" font-style="normal" font-weight="normal" text-decoration="none" x="200" y="180"></text><text fill="#eeeeee" stroke="none" font-family="Arial" font-size="24px" font-style="normal" font-weight="normal" text-decoration="none" x="200" y="210"></text><text fill="#eeeeee" stroke="none" font-family="Arial" font-size="24px" font-style="normal" font-weight="normal" text-decoration="none" x="200" y="240"></text><text fill="#eeeeee" stroke="none" font-family="Arial" font-size="24px" font-style="normal" font-weight="normal" text-decoration="none" x="200" y="270"></text><text fill="#eeeeee" stroke="none" font-family="Arial" font-size="24px" font-style="normal" font-weight="normal" text-decoration="none" x="200" y="300"></text><text fill="#eeeeee" stroke="none" font-family="Arial" font-size="24px" font-style="normal" font-weight="normal" text-decoration="none" x="200" y="330"></text><text fill="#eeeeee" stroke="none" font-family="Arial" font-size="24px" font-style="normal" font-weight="normal" text-decoration="none" x="400" y="0"></text><text fill="#eeeeee" stroke="none" font-family="Arial" font-size="24px" font-style="normal" font-weight="normal" text-decoration="none" x="400" y="30"></text><text fill="#eeeeee" stroke="none" font-family="Arial" font-size="24px" font-style="normal" font-weight="normal" text-decoration="none" x="400" y="60"></text><text fill="#eeeeee" stroke="none" font-family="Arial" font-size="24px" font-style="normal" font-weight="normal" text-decoration="none" x="400" y="90"></text><text fill="#eeeeee" stroke="none" font-family="Arial" font-size="24px" font-style="normal" font-weight="normal" text-decoration="none" x="400" y="120"></text><text fill="#eeeeee" stroke="none" font-family="Arial" font-size="24px" font-style="normal" font-weight="normal" text-decoration="none" x="400" y="150"></text><text fill="#eeeeee" stroke="none" font-family="Arial" font-size="24px" font-style="normal" font-weight="normal" text-decoration="none" x="400" y="180"></text><text fill="#eeeeee" stroke="none" font-family="Arial" font-size="24px" font-style="normal" font-weight="normal" text-decoration="none" x="400" y="210"></text><text fill="#eeeeee" stroke="none" font-family="Arial" font-size="24px" font-style="normal" font-weight="normal" text-decoration="none" x="400" y="240"></text><text fill="#eeeeee" stroke="none" font-family="Arial" font-size="24px" font-style="normal" font-weight="normal" text-decoration="none" x="400" y="270"></text><text fill="#eeeeee" stroke="none" font-family="Arial" font-size="24px" font-style="normal" font-weight="normal" text-decoration="none" x="400" y="300"></text><text fill="#eeeeee" stroke="none" font-family="Arial" font-size="24px" font-style="normal" font-weight="normal" text-decoration="none" x="400" y="330"></text><g transform="translate(-406,-30) scale(1,1)"><rect fill="#C0C0C0" stroke="none" x="567" y="47" width="50.919921875" height="44" opacity="0.2"/></g><g transform="translate(-406,-30) scale(1,1)"><rect fill="#8fbcd3" stroke="none" x="560" y="40" width="50.919921875" height="44"/></g><g transform="translate(-406,-30) scale(1,1)"><path fill="none" stroke="#000000" d="M 560 40 L 610.919921875 40 L 610.919921875 84 L 560 84 L 560 40 Z Z" stroke-miterlimit="10"/></g><g transform="translate(-406,-30) scale(1,1)"><path fill="none" stroke="#000000" d="M 560 65 L 610.919921875 65" stroke-miterlimit="10"/></g><g transform="translate(-406,-30) scale(1,1)"><path fill="none" stroke="#000000" d="M 560 75 L 610.919921875 75" stroke-miterlimit="10"/></g><g transform="translate(-406,-30) scale(1,1)"><g><path fill="none" stroke="none"/><text fill="#000000" stroke="none" font-family="Arial" font-size="13px" font-style="normal" font-weight="bold" text-decoration="none" x="567.404052734375" y="57.5">Client</text></g></g><g transform="translate(-406,-30) scale(1,1)"><rect fill="#C0C0C0" stroke="none" x="423" y="135" width="55.24267578125" height="44" opacity="0.2"/></g><g transform="translate(-406,-30) scale(1,1)"><rect fill="#8fbcd3" stroke="none" x="416" y="128" width="55.24267578125" height="44"/></g><g transform="translate(-406,-30) scale(1,1)"><path fill="none" stroke="#000000" d="M 416 128 L 471.24267578125 128 L 471.24267578125 172 L 416 172 L 416 128 Z Z" stroke-miterlimit="10"/></g><g transform="translate(-406,-30) scale(1,1)"><path fill="none" stroke="#000000" d="M 416 153 L 471.24267578125 153" stroke-miterlimit="10"/></g><g transform="translate(-406,-30) scale(1,1)"><path fill="none" stroke="#000000" d="M 416 163 L 471.24267578125 163" stroke-miterlimit="10"/></g><g transform="translate(-406,-30) scale(1,1)"><g><path fill="none" stroke="none"/><text fill="#000000" stroke="none" font-family="Arial" font-size="13px" font-style="normal" font-weight="bold" text-decoration="none" x="420.5" y="145.5">Invoker</text></g></g><g transform="translate(-406,-30) scale(1,1)"><rect fill="#C0C0C0" stroke="none" x="543" y="127" width="89.57080078125" height="57" opacity="0.2"/></g><g transform="translate(-406,-30) scale(1,1)"><rect fill="#8fbcd3" stroke="none" x="536" y="120" width="89.57080078125" height="57"/></g><g transform="translate(-406,-30) scale(1,1)"><path fill="none" stroke="#000000" d="M 536 120 L 625.57080078125 120 L 625.57080078125 177 L 536 177 L 536 120 Z Z" stroke-miterlimit="10"/></g><g transform="translate(-406,-30) scale(1,1)"><path fill="none" stroke="#000000" d="M 536 145 L 625.57080078125 145" stroke-miterlimit="10"/></g><g transform="translate(-406,-30) scale(1,1)"><path fill="none" stroke="#000000" d="M 536 155 L 625.57080078125 155" stroke-miterlimit="10"/></g><g transform="translate(-406,-30) scale(1,1)"><g><path fill="none" stroke="none"/><text fill="#000000" stroke="none" font-family="Arial" font-size="13px" font-style="normal" font-weight="bold" text-decoration="none" x="549.005859375" y="137.5">Command</text></g></g><g transform="translate(-406,-30) scale(1,1)"><g><path fill="none" stroke="none"/><text fill="#000000" stroke="none" font-family="Arial" font-size="13px" font-style="italic" font-weight="normal" text-decoration="none" x="541" y="170.5">+execute()</text></g></g><g transform="translate(-406,-30) scale(1,1)"><rect fill="#C0C0C0" stroke="none" x="719" y="127" width="89.57080078125" height="72" opacity="0.2"/></g><g transform="translate(-406,-30) scale(1,1)"><rect fill="#8fbcd3" stroke="none" x="712" y="120" width="89.57080078125" height="72"/></g><g transform="translate(-406,-30) scale(1,1)"><path fill="none" stroke="#000000" d="M 712 120 L 801.57080078125 120 L 801.57080078125 192 L 712 192 L 712 120 Z Z" stroke-miterlimit="10"/></g><g transform="translate(-406,-30) scale(1,1)"><path fill="none" stroke="#000000" d="M 712 145 L 801.57080078125 145" stroke-miterlimit="10"/></g><g transform="translate(-406,-30) scale(1,1)"><path fill="none" stroke="#000000" d="M 712 155 L 801.57080078125 155" stroke-miterlimit="10"/></g><g transform="translate(-406,-30) scale(1,1)"><g><path fill="none" stroke="none"/><text fill="#000000" stroke="none" font-family="Arial" font-size="13px" font-style="normal" font-weight="bold" text-decoration="none" x="729.680908203125" y="137.5">Receiver</text></g></g><g transform="translate(-406,-30) scale(1,1)"><g><path fill="none" stroke="none"/><text fill="#000000" stroke="none" font-family="Arial" font-size="13px" font-style="normal" font-weight="normal" text-decoration="none" x="717" y="170.5">+action1()</text></g></g><g transform="translate(-406,-30) scale(1,1)"><g><path fill="none" stroke="none"/><text fill="#000000" stroke="none" font-family="Arial" font-size="13px" font-style="normal" font-weight="normal" text-decoration="none" x="717" y="185.5">+action2()</text></g></g><g transform="translate(-406,-30) scale(1,1)"><rect fill="#C0C0C0" stroke="none" x="423" y="231" width="138.29541015625" height="70" opacity="0.2"/></g><g transform="translate(-406,-30) scale(1,1)"><rect fill="#8fbcd3" stroke="none" x="416" y="224" width="138.29541015625" height="70"/></g><g transform="translate(-406,-30) scale(1,1)"><path fill="none" stroke="#000000" d="M 416 224 L 554.29541015625 224 L 554.29541015625 294 L 416 294 L 416 224 Z Z" stroke-miterlimit="10"/></g><g transform="translate(-406,-30) scale(1,1)"><path fill="none" stroke="#000000" d="M 416 249 L 554.29541015625 249" stroke-miterlimit="10"/></g><g transform="translate(-406,-30) scale(1,1)"><path fill="none" stroke="#000000" d="M 416 272 L 554.29541015625 272" stroke-miterlimit="10"/></g><g transform="translate(-406,-30) scale(1,1)"><g><path fill="none" stroke="none"/><text fill="#000000" stroke="none" font-family="Arial" font-size="13px" font-style="normal" font-weight="bold" text-decoration="none" x="420.5" y="241.5">ConcreteCommandA</text></g></g><g transform="translate(-406,-30) scale(1,1)"><g><path fill="none" stroke="none"/><text fill="#000000" stroke="none" font-family="Arial" font-size="13px" font-style="normal" font-weight="normal" text-decoration="none" x="421" y="264.5">-state</text></g></g><g transform="translate(-406,-30) scale(1,1)"><g><path fill="none" stroke="none"/><text fill="#000000" stroke="none" font-family="Arial" font-size="13px" font-style="normal" font-weight="normal" text-decoration="none" x="421" y="287.5">+execute()</text></g></g><g transform="translate(-406,-30) scale(1,1)"><rect fill="#C0C0C0" stroke="none" x="599" y="231" width="138.29541015625" height="70" opacity="0.2"/></g><g transform="translate(-406,-30) scale(1,1)"><rect fill="#8fbcd3" stroke="none" x="592" y="224" width="138.29541015625" height="70"/></g><g transform="translate(-406,-30) scale(1,1)"><path fill="none" stroke="#000000" d="M 592 224 L 730.29541015625 224 L 730.29541015625 294 L 592 294 L 592 224 Z Z" stroke-miterlimit="10"/></g><g transform="translate(-406,-30) scale(1,1)"><path fill="none" stroke="#000000" d="M 592 249 L 730.29541015625 249" stroke-miterlimit="10"/></g><g transform="translate(-406,-30) scale(1,1)"><path fill="none" stroke="#000000" d="M 592 272 L 730.29541015625 272" stroke-miterlimit="10"/></g><g transform="translate(-406,-30) scale(1,1)"><g><path fill="none" stroke="none"/><text fill="#000000" stroke="none" font-family="Arial" font-size="13px" font-style="normal" font-weight="bold" text-decoration="none" x="596.5" y="241.5">ConcreteCommandB</text></g></g><g transform="translate(-406,-30) scale(1,1)"><g><path fill="none" stroke="none"/><text fill="#000000" stroke="none" font-family="Arial" font-size="13px" font-style="normal" font-weight="normal" text-decoration="none" x="597" y="264.5">+state</text></g></g><g transform="translate(-406,-30) scale(1,1)"><g><path fill="none" stroke="none"/><text fill="#000000" stroke="none" font-family="Arial" font-size="13px" font-style="normal" font-weight="normal" text-decoration="none" x="597" y="287.5">+execute()</text></g></g><g transform="translate(-406,-30) scale(1,1)"><path fill="none" stroke="#000000" d="M 535 149 L 472 150" stroke-miterlimit="10"/></g><g transform="translate(-406,-30) scale(1,1)"><path fill="#000000" stroke="none" d="M 482.0945855168562 145.62972046170088 L 472 150 L 482.2282041694487 154.04769557502445 L 493.9972290446392 149.65083763421208"/></g><g transform="translate(-406,-30) scale(1,1)"><path fill="none" stroke="#000000" d="M 482.0945855168562 145.62972046170088 L 472 150 L 482.2282041694487 154.04769557502445 L 493.9972290446392 149.65083763421208 L 482.0945855168562 145.62972046170088" stroke-miterlimit="10"/></g><g transform="translate(-406,-30) scale(1,1)"><path fill="none" stroke="#000000" d="M 627 150 L 711 154" stroke-miterlimit="10"/></g><g transform="translate(-406,-30) scale(1,1)"><path fill="none" stroke="#000000" d="M 700.6486015496341 157.72136401360612 L 711 154 L 701.0490542316979 149.31185769026683" stroke-miterlimit="10"/></g><g transform="translate(-406,-30) scale(1,1)"><path fill="none" stroke="#000000" d="M 559 62 L 440 64 L 442 127" stroke-miterlimit="10"/></g><g transform="translate(-406,-30) scale(1,1)"><path fill="none" stroke="#000000" d="M 437.47013969096975 116.976010495782 L 442 127 L 445.88493601063226 116.70887410468161" stroke-miterlimit="10"/></g><g transform="translate(-406,-30) scale(1,1)"><path fill="none" stroke="#000000" d="M 612 62 L 752 64 L 754 119" stroke-miterlimit="10"/></g><g transform="translate(-406,-30) scale(1,1)"><path fill="none" stroke="#000000" d="M 749.4239549158333 108.99700987765792 L 754 119 L 757.8374296376205 108.6910653423202" stroke-miterlimit="10"/></g><g transform="translate(-406,-30) scale(1,1)"><path fill="none" stroke="#000000" d="M 516 223 L 554 178" stroke-miterlimit="10"/></g><g transform="translate(-406,-30) scale(1,1)"><path fill="#FFFFFF" stroke="none" d="M 547.318869241881 198.96097544946122 L 554 178 L 534.4540792543412 188.09737501553877"/></g><g transform="translate(-406,-30) scale(1,1)"><path fill="none" stroke="#000000" d="M 547.318869241881 198.96097544946122 L 554 178 L 534.4540792543412 188.09737501553877 L 547.318869241881 198.96097544946122" stroke-miterlimit="10"/></g><g transform="translate(-406,-30) scale(1,1)"><path fill="none" stroke="#000000" d="M 635 223 L 602 178" stroke-miterlimit="10"/></g><g transform="translate(-406,-30) scale(1,1)"><path fill="#FFFFFF" stroke="none" d="M 620.808825569309 189.41175186828517 L 602 178 L 607.2305209749305 199.36917523749597"/></g><g transform="translate(-406,-30) scale(1,1)"><path fill="none" stroke="#000000" d="M 620.808825569309 189.41175186828517 L 602 178 L 607.2305209749305 199.36917523749597 L 620.808825569309 189.41175186828517" stroke-miterlimit="10"/></g><g transform="translate(-406,-30) scale(1,1)"><path fill="#8fbcd3" stroke="none" d="M 424 336 L 535.32080078125 336 L 545.32080078125 346 L 545.32080078125 374 L 424 374 L 424 336"/></g><g transform="translate(-406,-30) scale(1,1)"><path fill="none" stroke="#000000" d="M 424 336 L 535.32080078125 336 L 545.32080078125 346 L 545.32080078125 374 L 424 374 L 424 336 L 424 336" stroke-miterlimit="10"/></g><g transform="translate(-406,-30) scale(1,1)"><path fill="none" stroke="#000000" d="M 535.32080078125 336 L 535.32080078125 346 L 545.32080078125 346 L 535.32080078125 336" stroke-miterlimit="10"/></g><g transform="translate(-406,-30) scale(1,1)"><g><path fill="none" stroke="none"/><text fill="#000000" stroke="none" font-family="Arial" font-size="13px" font-style="normal" font-weight="normal" text-decoration="none" x="429" y="350">receiver.action1();</text></g></g><g transform="translate(-406,-30) scale(1,1)"><path fill="#8fbcd3" stroke="none" d="M 608 336 L 719.32080078125 336 L 729.32080078125 346 L 729.32080078125 374 L 608 374 L 608 336"/></g><g transform="translate(-406,-30) scale(1,1)"><path fill="none" stroke="#000000" d="M 608 336 L 719.32080078125 336 L 729.32080078125 346 L 729.32080078125 374 L 608 374 L 608 336 L 608 336" stroke-miterlimit="10"/></g><g transform="translate(-406,-30) scale(1,1)"><path fill="none" stroke="#000000" d="M 719.32080078125 336 L 719.32080078125 346 L 729.32080078125 346 L 719.32080078125 336" stroke-miterlimit="10"/></g><g transform="translate(-406,-30) scale(1,1)"><g><path fill="none" stroke="none"/><text fill="#000000" stroke="none" font-family="Arial" font-size="13px" font-style="normal" font-weight="normal" text-decoration="none" x="613" y="350">receiver.action2();</text></g></g><g transform="translate(-406,-30) scale(1,1)"><path fill="none" stroke="#000000" d="M 485 295 L 485 335" stroke-miterlimit="10" stroke-dasharray="3"/></g><g transform="translate(-406,-30) scale(1,1)"><path fill="none" stroke="#000000" d="M 664 295 L 667 335" stroke-miterlimit="10" stroke-dasharray="3"/></g><g transform="translate(-406,-30) scale(1,1)"><path fill="none" stroke="#000000" d="M 559 79 L 520 104 L 493 223" stroke-miterlimit="10" stroke-dasharray="3"/></g><g transform="translate(-406,-30) scale(1,1)"><path fill="none" stroke="#000000" d="M 491.143485701484 212.15779751805908 L 493 223 L 499.35384104812755 214.0206512521715" stroke-miterlimit="10"/></g><g transform="translate(-406,-30) scale(1,1)"><path fill="none" stroke="#000000" d="M 612 80 L 648 104 L 658 223" stroke-miterlimit="10" stroke-dasharray="3"/></g><g transform="translate(-406,-30) scale(1,1)"><path fill="none" stroke="#000000" d="M 652.9542602316294 213.22551739528464 L 658 223 L 661.3437261260667 212.52052026129832" stroke-miterlimit="10"/></g></g></svg>
