<svg version="1.1" xmlns="http://www.w3.org/2000/svg" xmlns:xlink="http://www.w3.org/1999/xlink" width="676" height="274"><defs/><g><text fill="#eeeeee" stroke="none" font-family="Arial" font-size="24px" font-style="normal" font-weight="normal" text-decoration="none" x="0" y="0"></text><text fill="#eeeeee" stroke="none" font-family="Arial" font-size="24px" font-style="normal" font-weight="normal" text-decoration="none" x="0" y="30"></text><text fill="#eeeeee" stroke="none" font-family="Arial" font-size="24px" font-style="normal" font-weight="normal" text-decoration="none" x="0" y="60"></text><text fill="#eeeeee" stroke="none" font-family="Arial" font-size="24px" font-style="normal" font-weight="normal" text-decoration="none" x="0" y="90"></text><text fill="#eeeeee" stroke="none" font-family="Arial" font-size="24px" font-style="normal" font-weight="normal" text-decoration="none" x="0" y="120"></text><text fill="#eeeeee" stroke="none" font-family="Arial" font-size="24px" font-style="normal" font-weight="normal" text-decoration="none" x="0" y="150"></text><text fill="#eeeeee" stroke="none" font-family="Arial" font-size="24px" font-style="normal" font-weight="normal" text-decoration="none" x="0" y="180"></text><text fill="#eeeeee" stroke="none" font-family="Arial" font-size="24px" font-style="normal" font-weight="normal" text-decoration="none" x="0" y="210"></text><text fill="#eeeeee" stroke="none" font-family="Arial" font-size="24px" font-style="normal" font-weight="normal" text-decoration="none" x="0" y="240"></text><text fill="#eeeeee" stroke="none" font-family="Arial" font-size="24px" font-style="normal" font-weight="normal" text-decoration="none" x="0" y="270"></text><text fill="#eeeeee" stroke="none" font-family="Arial" font-size="24px" font-style="normal" font-weight="normal" text-decoration="none" x="200" y="0"></text><text fill="#eeeeee" stroke="none" font-family="Arial" font-size="24px" font-style="normal" font-weight="normal" text-decoration="none" x="200" y="30"></text><text fill="#eeeeee" stroke="none" font-family="Arial" font-size="24px" font-style="normal" font-weight="normal" text-decoration="none" x="200" y="60"></text><text fill="#eeeeee" stroke="none" font-family="Arial" font-size="24px" font-style="normal" font-weight="normal" text-decoration="none" x="200" y="90"></text><text fill="#eeeeee" stroke="none" font-family="Arial" font-size="24px" font-style="normal" font-weight="normal" text-decoration="none" x="200" y="120"></text><text fill="#eeeeee" stroke="none" font-family="Arial" font-size="24px" font-style="normal" font-weight="normal" text-decoration="none" x="200" y="150"></text><text fill="#eeeeee" stroke="none" font-family="Arial" font-size="24px" font-style="normal" font-weight="normal" text-decoration="none" x="200" y="180"></text><text fill="#eeeeee" stroke="none" font-family="Arial" font-size="24px" font-style="normal" font-weight="normal" text-decoration="none" x="200" y="210"></text><text fill="#eeeeee" stroke="none" font-family="Arial" font-size="24px" font-style="normal" font-weight="normal" text-decoration="none" x="200" y="240"></text><text fill="#eeeeee" stroke="none" font-family="Arial" font-size="24px" font-style="normal" font-weight="normal" text-decoration="none" x="200" y="270"></text><text fill="#eeeeee" stroke="none" font-family="Arial" font-size="24px" font-style="normal" font-weight="normal" text-decoration="none" x="400" y="0"></text><text fill="#eeeeee" stroke="none" font-family="Arial" font-size="24px" font-style="normal" font-weight="normal" text-decoration="none" x="400" y="30"></text><text fill="#eeeeee" stroke="none" font-family="Arial" font-size="24px" font-style="normal" font-weight="normal" text-decoration="none" x="400" y="60"></text><text fill="#eeeeee" stroke="none" font-family="Arial" font-size="24px" font-style="normal" font-weight="normal" text-decoration="none" x="400" y="90"></text><text fill="#eeeeee" stroke="none" font-family="Arial" font-size="24px" font-style="normal" font-weight="normal" text-decoration="none" x="400" y="120"></text><text fill="#eeeeee" stroke="none" font-family="Arial" font-size="24px" font-style="normal" font-weight="normal" text-decoration="none" x="400" y="150"></text><text fill="#eeeeee" stroke="none" font-family="Arial" font-size="24px" font-style="normal" font-weight="normal" text-decoration="none" x="400" y="180"></text><text fill="#eeeeee" stroke="none" font-family="Arial" font-size="24px" font-style="normal" font-weight="normal" text-decoration="none" x="400" y="210"></text><text fill="#eeeeee" stroke="none" font-family="Arial" font-size="24px" font-style="normal" font-weight="normal" text-decoration="none" x="400" y="240"></text><text fill="#eeeeee" stroke="none" font-family="Arial" font-size="24px" font-style="normal" font-weight="normal" text-decoration="none" x="400" y="270"></text><text fill="#eeeeee" stroke="none" font-family="Arial" font-size="24px" font-style="normal" font-weight="normal" text-decoration="none" x="600" y="0"></text><text fill="#eeeeee" stroke="none" font-family="Arial" font-size="24px" font-style="normal" font-weight="normal" text-decoration="none" x="600" y="30"></text><text fill="#eeeeee" stroke="none" font-family="Arial" font-size="24px" font-style="normal" font-weight="normal" text-decoration="none" x="600" y="60"></text><text fill="#eeeeee" stroke="none" font-family="Arial" font-size="24px" font-style="normal" font-weight="normal" text-decoration="none" x="600" y="90"></text><text fill="#eeeeee" stroke="none" font-family="Arial" font-size="24px" font-style="normal" font-weight="normal" text-decoration="none" x="600" y="120"></text><text fill="#eeeeee" stroke="none" font-family="Arial" font-size="24px" font-style="normal" font-weight="normal" text-decoration="none" x="600" y="150"></text><text fill="#eeeeee" stroke="none" font-family="Arial" font-size="24px" font-style="normal" font-weight="normal" text-decoration="none" x="600" y="180"></text><text fill="#eeeeee" stroke="none" font-family="Arial" font-size="24px" font-style="normal" font-weight="normal" text-decoration="none" x="600" y="210"></text><text fill="#eeeeee" stroke="none" font-family="Arial" font-size="24px" font-style="normal" font-weight="normal" text-decoration="none" x="600" y="240"></text><text fill="#eeeeee" stroke="none" font-family="Arial" font-size="24px" font-style="normal" font-weight="normal" text-decoration="none" x="600" y="270"></text><g transform="translate(-246,-78) scale(1,1)"><rect fill="#C0C0C0" stroke="none" x="263" y="119" width="50.919921875" height="44" opacity="0.2"/></g><g transform="translate(-246,-78) scale(1,1)"><rect fill="#8fbcd3" stroke="none" x="256" y="112" width="50.919921875" height="44"/></g><g transform="translate(-246,-78) scale(1,1)"><path fill="none" stroke="#000000" d="M 256 112 L 306.919921875 112 L 306.919921875 156 L 256 156 L 256 112 Z Z" stroke-miterlimit="10"/></g><g transform="translate(-246,-78) scale(1,1)"><path fill="none" stroke="#000000" d="M 256 137 L 306.919921875 137" stroke-miterlimit="10"/></g><g transform="translate(-246,-78) scale(1,1)"><path fill="none" stroke="#000000" d="M 256 147 L 306.919921875 147" stroke-miterlimit="10"/></g><g transform="translate(-246,-78) scale(1,1)"><g><path fill="none" stroke="none"/><text fill="#000000" stroke="none" font-family="Arial" font-size="13px" font-style="normal" font-weight="bold" text-decoration="none" x="263.404052734375" y="129.5">Client</text></g></g><g transform="translate(-246,-78) scale(1,1)"><rect fill="#C0C0C0" stroke="none" x="383" y="95" width="203.01611328125" height="102" opacity="0.2"/></g><g transform="translate(-246,-78) scale(1,1)"><rect fill="#8fbcd3" stroke="none" x="376" y="88" width="203.01611328125" height="102"/></g><g transform="translate(-246,-78) scale(1,1)"><path fill="none" stroke="#000000" d="M 376 88 L 579.01611328125 88 L 579.01611328125 190 L 376 190 L 376 88 Z Z" stroke-miterlimit="10"/></g><g transform="translate(-246,-78) scale(1,1)"><path fill="none" stroke="#000000" d="M 376 113 L 579.01611328125 113" stroke-miterlimit="10"/></g><g transform="translate(-246,-78) scale(1,1)"><path fill="none" stroke="#000000" d="M 376 123 L 579.01611328125 123" stroke-miterlimit="10"/></g><g transform="translate(-246,-78) scale(1,1)"><g><path fill="none" stroke="none"/><text fill="#000000" stroke="none" font-family="Arial" font-size="13px" font-style="normal" font-weight="bold" text-decoration="none" x="441.402587890625" y="105.5">Component</text></g></g><g transform="translate(-246,-78) scale(1,1)"><g><path fill="none" stroke="none"/><text fill="#000000" stroke="none" font-family="Arial" font-size="13px" font-style="italic" font-weight="normal" text-decoration="none" x="381" y="138.5">+operation()</text></g></g><g transform="translate(-246,-78) scale(1,1)"><g><path fill="none" stroke="none"/><text fill="#000000" stroke="none" font-family="Arial" font-size="13px" font-style="italic" font-weight="normal" text-decoration="none" x="381" y="153.5">+addComponent(Component)</text></g></g><g transform="translate(-246,-78) scale(1,1)"><g><path fill="none" stroke="none"/><text fill="#000000" stroke="none" font-family="Arial" font-size="13px" font-style="italic" font-weight="normal" text-decoration="none" x="381" y="168.5">+removeComponent(Component)</text></g></g><g transform="translate(-246,-78) scale(1,1)"><g><path fill="none" stroke="none"/><text fill="#000000" stroke="none" font-family="Arial" font-size="13px" font-style="italic" font-weight="normal" text-decoration="none" x="381" y="183.5">+getChild(int)</text></g></g><g transform="translate(-246,-78) scale(1,1)"><rect fill="#C0C0C0" stroke="none" x="343" y="247" width="89.57080078125" height="57" opacity="0.2"/></g><g transform="translate(-246,-78) scale(1,1)"><rect fill="#8fbcd3" stroke="none" x="336" y="240" width="89.57080078125" height="57"/></g><g transform="translate(-246,-78) scale(1,1)"><path fill="none" stroke="#000000" d="M 336 240 L 425.57080078125 240 L 425.57080078125 297 L 336 297 L 336 240 Z Z" stroke-miterlimit="10"/></g><g transform="translate(-246,-78) scale(1,1)"><path fill="none" stroke="#000000" d="M 336 265 L 425.57080078125 265" stroke-miterlimit="10"/></g><g transform="translate(-246,-78) scale(1,1)"><path fill="none" stroke="#000000" d="M 336 275 L 425.57080078125 275" stroke-miterlimit="10"/></g><g transform="translate(-246,-78) scale(1,1)"><g><path fill="none" stroke="none"/><text fill="#000000" stroke="none" font-family="Arial" font-size="13px" font-style="normal" font-weight="bold" text-decoration="none" x="367.42041015625" y="257.5">Leaf</text></g></g><g transform="translate(-246,-78) scale(1,1)"><g><path fill="none" stroke="none"/><text fill="#000000" stroke="none" font-family="Arial" font-size="13px" font-style="normal" font-weight="normal" text-decoration="none" x="341" y="290.5">+operation()</text></g></g><g transform="translate(-246,-78) scale(1,1)"><rect fill="#C0C0C0" stroke="none" x="487" y="247" width="203.01611328125" height="102" opacity="0.2"/></g><g transform="translate(-246,-78) scale(1,1)"><rect fill="#8fbcd3" stroke="none" x="480" y="240" width="203.01611328125" height="102"/></g><g transform="translate(-246,-78) scale(1,1)"><path fill="none" stroke="#000000" d="M 480 240 L 683.01611328125 240 L 683.01611328125 342 L 480 342 L 480 240 Z Z" stroke-miterlimit="10"/></g><g transform="translate(-246,-78) scale(1,1)"><path fill="none" stroke="#000000" d="M 480 265 L 683.01611328125 265" stroke-miterlimit="10"/></g><g transform="translate(-246,-78) scale(1,1)"><path fill="none" stroke="#000000" d="M 480 275 L 683.01611328125 275" stroke-miterlimit="10"/></g><g transform="translate(-246,-78) scale(1,1)"><g><path fill="none" stroke="none"/><text fill="#000000" stroke="none" font-family="Arial" font-size="13px" font-style="normal" font-weight="bold" text-decoration="none" x="547.922607421875" y="257.5">Composite</text></g></g><g transform="translate(-246,-78) scale(1,1)"><g><path fill="none" stroke="none"/><text fill="#000000" stroke="none" font-family="Arial" font-size="13px" font-style="normal" font-weight="normal" text-decoration="none" x="485" y="290.5">+operation()</text></g></g><g transform="translate(-246,-78) scale(1,1)"><g><path fill="none" stroke="none"/><text fill="#000000" stroke="none" font-family="Arial" font-size="13px" font-style="normal" font-weight="normal" text-decoration="none" x="485" y="305.5">+addComponent(Component)</text></g></g><g transform="translate(-246,-78) scale(1,1)"><g><path fill="none" stroke="none"/><text fill="#000000" stroke="none" font-family="Arial" font-size="13px" font-style="normal" font-weight="normal" text-decoration="none" x="485" y="320.5">+removeComponent(Component)</text></g></g><g transform="translate(-246,-78) scale(1,1)"><g><path fill="none" stroke="none"/><text fill="#000000" stroke="none" font-family="Arial" font-size="13px" font-style="normal" font-weight="normal" text-decoration="none" x="485" y="335.5">+getChild(int)</text></g></g><g transform="translate(-246,-78) scale(1,1)"><path fill="#8fbcd3" stroke="none" d="M 752 280 L 901 280 L 911 290 L 911 331 L 752 331 L 752 280"/></g><g transform="translate(-246,-78) scale(1,1)"><path fill="none" stroke="#000000" d="M 752 280 L 901 280 L 911 290 L 911 331 L 752 331 L 752 280 L 752 280" stroke-miterlimit="10"/></g><g transform="translate(-246,-78) scale(1,1)"><path fill="none" stroke="#000000" d="M 901 280 L 901 290 L 911 290 L 901 280" stroke-miterlimit="10"/></g><g transform="translate(-246,-78) scale(1,1)"><g><path fill="none" stroke="none"/><text fill="#000000" stroke="none" font-family="Arial" font-size="13px" font-style="normal" font-weight="normal" text-decoration="none" x="757" y="294">forall child in childrens { </text></g></g><g transform="translate(-246,-78) scale(1,1)"><g><path fill="none" stroke="none"/><text fill="#000000" stroke="none" font-family="Arial" font-size="13px" font-style="normal" font-weight="normal" text-decoration="none" x="757" y="309">     child.operation();         </text><text fill="#000000" stroke="none" font-family="Arial" font-size="13px" font-style="normal" font-weight="normal" text-decoration="none" x="757" y="322">    }</text></g></g><g transform="translate(-246,-78) scale(1,1)"><path fill="none" stroke="#000000" d="M 402 239 L 438 191" stroke-miterlimit="10"/></g><g transform="translate(-246,-78) scale(1,1)"><path fill="#FFFFFF" stroke="none" d="M 432.5400185804766 212.31170107941784 L 438 191 L 419.06956176122543 202.20885846497947"/></g><g transform="translate(-246,-78) scale(1,1)"><path fill="none" stroke="#000000" d="M 432.5400185804766 212.31170107941784 L 438 191 L 419.06956176122543 202.20885846497947 L 432.5400185804766 212.31170107941784" stroke-miterlimit="10"/></g><g transform="translate(-246,-78) scale(1,1)"><path fill="none" stroke="#000000" d="M 545 239 L 513 191" stroke-miterlimit="10"/></g><g transform="translate(-246,-78) scale(1,1)"><path fill="#FFFFFF" stroke="none" d="M 531.2795364512216 203.24167256254066 L 513 191 L 517.2694144995677 212.58175386364326"/></g><g transform="translate(-246,-78) scale(1,1)"><path fill="none" stroke="#000000" d="M 531.2795364512216 203.24167256254066 L 513 191 L 517.2694144995677 212.58175386364326 L 531.2795364512216 203.24167256254066" stroke-miterlimit="10"/></g><g transform="translate(-246,-78) scale(1,1)"><path fill="none" stroke="#000000" d="M 580 138 L 720 136 L 720 288 L 684 289" stroke-miterlimit="10"/></g><g transform="translate(-246,-78) scale(1,1)"><path fill="#000000" stroke="none" d="M 694.0418703775051 284.50991767097923 L 684 289 L 694.2756423026667 292.9257069767938 L 705.9915172543598 288.38912452071224"/></g><g transform="translate(-246,-78) scale(1,1)"><path fill="none" stroke="#000000" d="M 694.0418703775051 284.50991767097923 L 684 289 L 694.2756423026667 292.9257069767938 L 705.9915172543598 288.38912452071224 L 694.0418703775051 284.50991767097923" stroke-miterlimit="10"/></g><g transform="translate(-246,-78) scale(1,1)"><path fill="none" stroke="#000000" d="M 684 297 L 751 301" stroke-miterlimit="10" stroke-dasharray="3"/></g><g transform="translate(-246,-78) scale(1,1)"><path fill="none" stroke="#000000" d="M 308 135 L 375 136" stroke-miterlimit="10"/></g><g transform="translate(-246,-78) scale(1,1)"><path fill="none" stroke="#000000" d="M 364.77563528005294 140.05738414172262 L 375 136 L 364.90127853271014 131.63928621369178" stroke-miterlimit="10"/></g></g></svg>
