<svg version="1.1" xmlns="http://www.w3.org/2000/svg" xmlns:xlink="http://www.w3.org/1999/xlink" width="676" height="300"><defs/><g><text fill="#eeeeee" stroke="none" font-family="Arial" font-size="24px" font-style="normal" font-weight="normal" text-decoration="none" x="0" y="0"></text><text fill="#eeeeee" stroke="none" font-family="Arial" font-size="24px" font-style="normal" font-weight="normal" text-decoration="none" x="0" y="30"></text><text fill="#eeeeee" stroke="none" font-family="Arial" font-size="24px" font-style="normal" font-weight="normal" text-decoration="none" x="0" y="60"></text><text fill="#eeeeee" stroke="none" font-family="Arial" font-size="24px" font-style="normal" font-weight="normal" text-decoration="none" x="0" y="90"></text><text fill="#eeeeee" stroke="none" font-family="Arial" font-size="24px" font-style="normal" font-weight="normal" text-decoration="none" x="0" y="120"></text><text fill="#eeeeee" stroke="none" font-family="Arial" font-size="24px" font-style="normal" font-weight="normal" text-decoration="none" x="0" y="150"></text><text fill="#eeeeee" stroke="none" font-family="Arial" font-size="24px" font-style="normal" font-weight="normal" text-decoration="none" x="0" y="180"></text><text fill="#eeeeee" stroke="none" font-family="Arial" font-size="24px" font-style="normal" font-weight="normal" text-decoration="none" x="0" y="210"></text><text fill="#eeeeee" stroke="none" font-family="Arial" font-size="24px" font-style="normal" font-weight="normal" text-decoration="none" x="0" y="240"></text><text fill="#eeeeee" stroke="none" font-family="Arial" font-size="24px" font-style="normal" font-weight="normal" text-decoration="none" x="0" y="270"></text><text fill="#eeeeee" stroke="none" font-family="Arial" font-size="24px" font-style="normal" font-weight="normal" text-decoration="none" x="200" y="0"></text><text fill="#eeeeee" stroke="none" font-family="Arial" font-size="24px" font-style="normal" font-weight="normal" text-decoration="none" x="200" y="30"></text><text fill="#eeeeee" stroke="none" font-family="Arial" font-size="24px" font-style="normal" font-weight="normal" text-decoration="none" x="200" y="60"></text><text fill="#eeeeee" stroke="none" font-family="Arial" font-size="24px" font-style="normal" font-weight="normal" text-decoration="none" x="200" y="90"></text><text fill="#eeeeee" stroke="none" font-family="Arial" font-size="24px" font-style="normal" font-weight="normal" text-decoration="none" x="200" y="120"></text><text fill="#eeeeee" stroke="none" font-family="Arial" font-size="24px" font-style="normal" font-weight="normal" text-decoration="none" x="200" y="150"></text><text fill="#eeeeee" stroke="none" font-family="Arial" font-size="24px" font-style="normal" font-weight="normal" text-decoration="none" x="200" y="180"></text><text fill="#eeeeee" stroke="none" font-family="Arial" font-size="24px" font-style="normal" font-weight="normal" text-decoration="none" x="200" y="210"></text><text fill="#eeeeee" stroke="none" font-family="Arial" font-size="24px" font-style="normal" font-weight="normal" text-decoration="none" x="200" y="240"></text><text fill="#eeeeee" stroke="none" font-family="Arial" font-size="24px" font-style="normal" font-weight="normal" text-decoration="none" x="200" y="270"></text><text fill="#eeeeee" stroke="none" font-family="Arial" font-size="24px" font-style="normal" font-weight="normal" text-decoration="none" x="400" y="0"></text><text fill="#eeeeee" stroke="none" font-family="Arial" font-size="24px" font-style="normal" font-weight="normal" text-decoration="none" x="400" y="30"></text><text fill="#eeeeee" stroke="none" font-family="Arial" font-size="24px" font-style="normal" font-weight="normal" text-decoration="none" x="400" y="60"></text><text fill="#eeeeee" stroke="none" font-family="Arial" font-size="24px" font-style="normal" font-weight="normal" text-decoration="none" x="400" y="90"></text><text fill="#eeeeee" stroke="none" font-family="Arial" font-size="24px" font-style="normal" font-weight="normal" text-decoration="none" x="400" y="120"></text><text fill="#eeeeee" stroke="none" font-family="Arial" font-size="24px" font-style="normal" font-weight="normal" text-decoration="none" x="400" y="150"></text><text fill="#eeeeee" stroke="none" font-family="Arial" font-size="24px" font-style="normal" font-weight="normal" text-decoration="none" x="400" y="180"></text><text fill="#eeeeee" stroke="none" font-family="Arial" font-size="24px" font-style="normal" font-weight="normal" text-decoration="none" x="400" y="210"></text><text fill="#eeeeee" stroke="none" font-family="Arial" font-size="24px" font-style="normal" font-weight="normal" text-decoration="none" x="400" y="240"></text><text fill="#eeeeee" stroke="none" font-family="Arial" font-size="24px" font-style="normal" font-weight="normal" text-decoration="none" x="400" y="270"></text><text fill="#eeeeee" stroke="none" font-family="Arial" font-size="24px" font-style="normal" font-weight="normal" text-decoration="none" x="600" y="0"></text><text fill="#eeeeee" stroke="none" font-family="Arial" font-size="24px" font-style="normal" font-weight="normal" text-decoration="none" x="600" y="30"></text><text fill="#eeeeee" stroke="none" font-family="Arial" font-size="24px" font-style="normal" font-weight="normal" text-decoration="none" x="600" y="60"></text><text fill="#eeeeee" stroke="none" font-family="Arial" font-size="24px" font-style="normal" font-weight="normal" text-decoration="none" x="600" y="90"></text><text fill="#eeeeee" stroke="none" font-family="Arial" font-size="24px" font-style="normal" font-weight="normal" text-decoration="none" x="600" y="120"></text><text fill="#eeeeee" stroke="none" font-family="Arial" font-size="24px" font-style="normal" font-weight="normal" text-decoration="none" x="600" y="150"></text><text fill="#eeeeee" stroke="none" font-family="Arial" font-size="24px" font-style="normal" font-weight="normal" text-decoration="none" x="600" y="180"></text><text fill="#eeeeee" stroke="none" font-family="Arial" font-size="24px" font-style="normal" font-weight="normal" text-decoration="none" x="600" y="210"></text><text fill="#eeeeee" stroke="none" font-family="Arial" font-size="24px" font-style="normal" font-weight="normal" text-decoration="none" x="600" y="240"></text><text fill="#eeeeee" stroke="none" font-family="Arial" font-size="24px" font-style="normal" font-weight="normal" text-decoration="none" x="600" y="270"></text><g transform="translate(-246,-118) scale(1,1)"><rect fill="#C0C0C0" stroke="none" x="263" y="143" width="50.919921875" height="44" opacity="0.2"/></g><g transform="translate(-246,-118) scale(1,1)"><rect fill="#8fbcd3" stroke="none" x="256" y="136" width="50.919921875" height="44"/></g><g transform="translate(-246,-118) scale(1,1)"><path fill="none" stroke="#000000" d="M 256 136 L 306.919921875 136 L 306.919921875 180 L 256 180 L 256 136 Z Z" stroke-miterlimit="10"/></g><g transform="translate(-246,-118) scale(1,1)"><path fill="none" stroke="#000000" d="M 256 161 L 306.919921875 161" stroke-miterlimit="10"/></g><g transform="translate(-246,-118) scale(1,1)"><path fill="none" stroke="#000000" d="M 256 171 L 306.919921875 171" stroke-miterlimit="10"/></g><g transform="translate(-246,-118) scale(1,1)"><g><path fill="none" stroke="none"/><text fill="#000000" stroke="none" font-family="Arial" font-size="13px" font-style="normal" font-weight="bold" text-decoration="none" x="263.404052734375" y="153.5">Client</text></g></g><g transform="translate(-246,-118) scale(1,1)"><rect fill="#C0C0C0" stroke="none" x="407" y="135" width="147.01611328125" height="57" opacity="0.2"/></g><g transform="translate(-246,-118) scale(1,1)"><rect fill="#8fbcd3" stroke="none" x="400" y="128" width="147.01611328125" height="57"/></g><g transform="translate(-246,-118) scale(1,1)"><path fill="none" stroke="#000000" d="M 400 128 L 547.01611328125 128 L 547.01611328125 185 L 400 185 L 400 128 Z Z" stroke-miterlimit="10"/></g><g transform="translate(-246,-118) scale(1,1)"><path fill="none" stroke="#000000" d="M 400 153 L 547.01611328125 153" stroke-miterlimit="10"/></g><g transform="translate(-246,-118) scale(1,1)"><path fill="none" stroke="#000000" d="M 400 163 L 547.01611328125 163" stroke-miterlimit="10"/></g><g transform="translate(-246,-118) scale(1,1)"><g><path fill="none" stroke="none"/><text fill="#000000" stroke="none" font-family="Arial" font-size="13px" font-style="normal" font-weight="bold" text-decoration="none" x="437.402587890625" y="145.5">Component</text></g></g><g transform="translate(-246,-118) scale(1,1)"><g><path fill="none" stroke="none"/><text fill="#000000" stroke="none" font-family="Arial" font-size="13px" font-style="italic" font-weight="normal" text-decoration="none" x="405" y="178.5">+operation()</text></g></g><g transform="translate(-246,-118) scale(1,1)"><rect fill="#C0C0C0" stroke="none" x="303" y="247" width="137.55908203125" height="57" opacity="0.2"/></g><g transform="translate(-246,-118) scale(1,1)"><rect fill="#8fbcd3" stroke="none" x="296" y="240" width="137.55908203125" height="57"/></g><g transform="translate(-246,-118) scale(1,1)"><path fill="none" stroke="#000000" d="M 296 240 L 433.55908203125 240 L 433.55908203125 297 L 296 297 L 296 240 Z Z" stroke-miterlimit="10"/></g><g transform="translate(-246,-118) scale(1,1)"><path fill="none" stroke="#000000" d="M 296 265 L 433.55908203125 265" stroke-miterlimit="10"/></g><g transform="translate(-246,-118) scale(1,1)"><path fill="none" stroke="#000000" d="M 296 275 L 433.55908203125 275" stroke-miterlimit="10"/></g><g transform="translate(-246,-118) scale(1,1)"><g><path fill="none" stroke="none"/><text fill="#000000" stroke="none" font-family="Arial" font-size="13px" font-style="normal" font-weight="bold" text-decoration="none" x="300.5" y="257.5">ConcreteComponent</text></g></g><g transform="translate(-246,-118) scale(1,1)"><g><path fill="none" stroke="none"/><text fill="#000000" stroke="none" font-family="Arial" font-size="13px" font-style="normal" font-weight="normal" text-decoration="none" x="301" y="290.5">+operation()</text></g></g><g transform="translate(-246,-118) scale(1,1)"><rect fill="#C0C0C0" stroke="none" x="503" y="247" width="131.01611328125" height="57" opacity="0.2"/></g><g transform="translate(-246,-118) scale(1,1)"><rect fill="#8fbcd3" stroke="none" x="496" y="240" width="131.01611328125" height="57"/></g><g transform="translate(-246,-118) scale(1,1)"><path fill="none" stroke="#000000" d="M 496 240 L 627.01611328125 240 L 627.01611328125 297 L 496 297 L 496 240 Z Z" stroke-miterlimit="10"/></g><g transform="translate(-246,-118) scale(1,1)"><path fill="none" stroke="#000000" d="M 496 265 L 627.01611328125 265" stroke-miterlimit="10"/></g><g transform="translate(-246,-118) scale(1,1)"><path fill="none" stroke="#000000" d="M 496 275 L 627.01611328125 275" stroke-miterlimit="10"/></g><g transform="translate(-246,-118) scale(1,1)"><g><path fill="none" stroke="none"/><text fill="#000000" stroke="none" font-family="Arial" font-size="13px" font-style="normal" font-weight="bold" text-decoration="none" x="530.804443359375" y="257.5">Decorator</text></g></g><g transform="translate(-246,-118) scale(1,1)"><g><path fill="none" stroke="none"/><text fill="#000000" stroke="none" font-family="Arial" font-size="13px" font-style="normal" font-weight="normal" text-decoration="none" x="501" y="290.5">+operation()</text></g></g><g transform="translate(-246,-118) scale(1,1)"><path fill="#8fbcd3" stroke="none" d="M 752 296 L 901 296 L 911 306 L 911 319 L 752 319 L 752 296"/></g><g transform="translate(-246,-118) scale(1,1)"><path fill="none" stroke="#000000" d="M 752 296 L 901 296 L 911 306 L 911 319 L 752 319 L 752 296 L 752 296" stroke-miterlimit="10"/></g><g transform="translate(-246,-118) scale(1,1)"><path fill="none" stroke="#000000" d="M 901 296 L 901 306 L 911 306 L 901 296" stroke-miterlimit="10"/></g><g transform="translate(-246,-118) scale(1,1)"><g><path fill="none" stroke="none"/><text fill="#000000" stroke="none" font-family="Arial" font-size="13px" font-style="normal" font-weight="normal" text-decoration="none" x="757" y="310">component.operation();</text></g></g><g transform="translate(-246,-118) scale(1,1)"><path fill="none" stroke="#000000" d="M 392 239 L 444 186" stroke-miterlimit="10"/></g><g transform="translate(-246,-118) scale(1,1)"><path fill="#FFFFFF" stroke="none" d="M 435.774912258555 206.40460564788083 L 444 186 L 423.755749661116 194.61221970322376"/></g><g transform="translate(-246,-118) scale(1,1)"><path fill="none" stroke="#000000" d="M 435.774912258555 206.40460564788083 L 444 186 L 423.755749661116 194.61221970322376 L 435.774912258555 206.40460564788083" stroke-miterlimit="10"/></g><g transform="translate(-246,-118) scale(1,1)"><path fill="none" stroke="#000000" d="M 538 239 L 497 186" stroke-miterlimit="10"/></g><g transform="translate(-246,-118) scale(1,1)"><path fill="#FFFFFF" stroke="none" d="M 516.095607818841 196.92509780409392 L 497 186 L 502.77742303718026 207.2278445219824"/></g><g transform="translate(-246,-118) scale(1,1)"><path fill="none" stroke="#000000" d="M 516.095607818841 196.92509780409392 L 497 186 L 502.77742303718026 207.2278445219824 L 516.095607818841 196.92509780409392" stroke-miterlimit="10"/></g><g transform="translate(-246,-118) scale(1,1)"><path fill="none" stroke="#000000" d="M 548 155 L 720 152 L 720 272 L 628 270" stroke-miterlimit="10"/></g><g transform="translate(-246,-118) scale(1,1)"><path fill="#000000" stroke="none" d="M 638.2517639598282 266.0123521078249 L 628 270 L 638.0687846806596 274.42939894957703 L 649.9948033541261 270.47814789900275"/></g><g transform="translate(-246,-118) scale(1,1)"><path fill="none" stroke="#000000" d="M 638.2517639598282 266.0123521078249 L 628 270 L 638.0687846806596 274.42939894957703 L 649.9948033541261 270.47814789900275 L 638.2517639598282 266.0123521078249" stroke-miterlimit="10"/></g><g transform="translate(-246,-118) scale(1,1)"><path fill="none" stroke="#000000" d="M 628 278 L 751 296" stroke-miterlimit="10" stroke-dasharray="3"/></g><g transform="translate(-246,-118) scale(1,1)"><path fill="none" stroke="#000000" d="M 308 158 L 399 157" stroke-miterlimit="10"/></g><g transform="translate(-246,-118) scale(1,1)"><path fill="none" stroke="#000000" d="M 388.88419434488014 161.32093461508566 L 399 157 L 388.7916830567088 152.9024073914903" stroke-miterlimit="10"/></g><g transform="translate(-246,-118) scale(1,1)"><rect fill="#C0C0C0" stroke="none" x="407" y="343" width="136.1435546875" height="70" opacity="0.2"/></g><g transform="translate(-246,-118) scale(1,1)"><rect fill="#8fbcd3" stroke="none" x="400" y="336" width="136.1435546875" height="70"/></g><g transform="translate(-246,-118) scale(1,1)"><path fill="none" stroke="#000000" d="M 400 336 L 536.1435546875 336 L 536.1435546875 406 L 400 406 L 400 336 Z Z" stroke-miterlimit="10"/></g><g transform="translate(-246,-118) scale(1,1)"><path fill="none" stroke="#000000" d="M 400 361 L 536.1435546875 361" stroke-miterlimit="10"/></g><g transform="translate(-246,-118) scale(1,1)"><path fill="none" stroke="#000000" d="M 400 384 L 536.1435546875 384" stroke-miterlimit="10"/></g><g transform="translate(-246,-118) scale(1,1)"><g><path fill="none" stroke="none"/><text fill="#000000" stroke="none" font-family="Arial" font-size="13px" font-style="normal" font-weight="bold" text-decoration="none" x="404.5" y="353.5">ConcreteDecoratorA</text></g></g><g transform="translate(-246,-118) scale(1,1)"><g><path fill="none" stroke="none"/><text fill="#000000" stroke="none" font-family="Arial" font-size="13px" font-style="normal" font-weight="normal" text-decoration="none" x="405" y="376.5">-addState</text></g></g><g transform="translate(-246,-118) scale(1,1)"><g><path fill="none" stroke="none"/><text fill="#000000" stroke="none" font-family="Arial" font-size="13px" font-style="normal" font-weight="normal" text-decoration="none" x="405" y="399.5">+operation()</text></g></g><g transform="translate(-246,-118) scale(1,1)"><rect fill="#C0C0C0" stroke="none" x="599" y="343" width="136.1435546875" height="72" opacity="0.2"/></g><g transform="translate(-246,-118) scale(1,1)"><rect fill="#8fbcd3" stroke="none" x="592" y="336" width="136.1435546875" height="72"/></g><g transform="translate(-246,-118) scale(1,1)"><path fill="none" stroke="#000000" d="M 592 336 L 728.1435546875 336 L 728.1435546875 408 L 592 408 L 592 336 Z Z" stroke-miterlimit="10"/></g><g transform="translate(-246,-118) scale(1,1)"><path fill="none" stroke="#000000" d="M 592 361 L 728.1435546875 361" stroke-miterlimit="10"/></g><g transform="translate(-246,-118) scale(1,1)"><path fill="none" stroke="#000000" d="M 592 371 L 728.1435546875 371" stroke-miterlimit="10"/></g><g transform="translate(-246,-118) scale(1,1)"><g><path fill="none" stroke="none"/><text fill="#000000" stroke="none" font-family="Arial" font-size="13px" font-style="normal" font-weight="bold" text-decoration="none" x="596.5" y="353.5">ConcreteDecoratorB</text></g></g><g transform="translate(-246,-118) scale(1,1)"><g><path fill="none" stroke="none"/><text fill="#000000" stroke="none" font-family="Arial" font-size="13px" font-style="normal" font-weight="normal" text-decoration="none" x="597" y="386.5">+operation()</text></g></g><g transform="translate(-246,-118) scale(1,1)"><g><path fill="none" stroke="none"/><text fill="#000000" stroke="none" font-family="Arial" font-size="13px" font-style="normal" font-weight="normal" text-decoration="none" x="597" y="401.5">+addBehavior()</text></g></g><g transform="translate(-246,-118) scale(1,1)"><path fill="none" stroke="#000000" d="M 501 335 L 534 298" stroke-miterlimit="10"/></g><g transform="translate(-246,-118) scale(1,1)"><path fill="#FFFFFF" stroke="none" d="M 526.7542332251668 318.77255073034416 L 534 298 L 514.1880576946513 307.56488066258714"/></g><g transform="translate(-246,-118) scale(1,1)"><path fill="none" stroke="#000000" d="M 526.7542332251668 318.77255073034416 L 534 298 L 514.1880576946513 307.56488066258714 L 526.7542332251668 318.77255073034416" stroke-miterlimit="10"/></g><g transform="translate(-246,-118) scale(1,1)"><path fill="none" stroke="#000000" d="M 625 335 L 590 298" stroke-miterlimit="10"/></g><g transform="translate(-246,-118) scale(1,1)"><path fill="#FFFFFF" stroke="none" d="M 610.0837407550104 306.9801646580415 L 590 298 L 597.8514139535876 318.55128460533336"/></g><g transform="translate(-246,-118) scale(1,1)"><path fill="none" stroke="#000000" d="M 610.0837407550104 306.9801646580415 L 590 298 L 597.8514139535876 318.55128460533336 L 610.0837407550104 306.9801646580415" stroke-miterlimit="10"/></g><g transform="translate(-246,-118) scale(1,1)"><path fill="#8fbcd3" stroke="none" d="M 776 352 L 900.33984375 352 L 910.33984375 362 L 910.33984375 391 L 776 391 L 776 352"/></g><g transform="translate(-246,-118) scale(1,1)"><path fill="none" stroke="#000000" d="M 776 352 L 900.33984375 352 L 910.33984375 362 L 910.33984375 391 L 776 391 L 776 352 L 776 352" stroke-miterlimit="10"/></g><g transform="translate(-246,-118) scale(1,1)"><path fill="none" stroke="#000000" d="M 900.33984375 352 L 900.33984375 362 L 910.33984375 362 L 900.33984375 352" stroke-miterlimit="10"/></g><g transform="translate(-246,-118) scale(1,1)"><g><path fill="none" stroke="none"/><text fill="#000000" stroke="none" font-family="Arial" font-size="13px" font-style="normal" font-weight="normal" text-decoration="none" x="781" y="366">super.operation();</text><text fill="#000000" stroke="none" font-family="Arial" font-size="13px" font-style="normal" font-weight="normal" text-decoration="none" x="781" y="379">this.addBehaviour();</text></g></g><g transform="translate(-246,-118) scale(1,1)"><path fill="none" stroke="#000000" d="M 729 372 L 775 372" stroke-miterlimit="10" stroke-dasharray="3"/></g></g></svg>
