<svg version="1.1" xmlns="http://www.w3.org/2000/svg" xmlns:xlink="http://www.w3.org/1999/xlink" width="623.5" height="276"><defs/><g><text fill="#eeeeee" stroke="none" font-family="Arial" font-size="24px" font-style="normal" font-weight="normal" text-decoration="none" x="0" y="0"></text><text fill="#eeeeee" stroke="none" font-family="Arial" font-size="24px" font-style="normal" font-weight="normal" text-decoration="none" x="0" y="30"></text><text fill="#eeeeee" stroke="none" font-family="Arial" font-size="24px" font-style="normal" font-weight="normal" text-decoration="none" x="0" y="60"></text><text fill="#eeeeee" stroke="none" font-family="Arial" font-size="24px" font-style="normal" font-weight="normal" text-decoration="none" x="0" y="90"></text><text fill="#eeeeee" stroke="none" font-family="Arial" font-size="24px" font-style="normal" font-weight="normal" text-decoration="none" x="0" y="120"></text><text fill="#eeeeee" stroke="none" font-family="Arial" font-size="24px" font-style="normal" font-weight="normal" text-decoration="none" x="0" y="150"></text><text fill="#eeeeee" stroke="none" font-family="Arial" font-size="24px" font-style="normal" font-weight="normal" text-decoration="none" x="0" y="180"></text><text fill="#eeeeee" stroke="none" font-family="Arial" font-size="24px" font-style="normal" font-weight="normal" text-decoration="none" x="0" y="210"></text><text fill="#eeeeee" stroke="none" font-family="Arial" font-size="24px" font-style="normal" font-weight="normal" text-decoration="none" x="0" y="240"></text><text fill="#eeeeee" stroke="none" font-family="Arial" font-size="24px" font-style="normal" font-weight="normal" text-decoration="none" x="0" y="270"></text><text fill="#eeeeee" stroke="none" font-family="Arial" font-size="24px" font-style="normal" font-weight="normal" text-decoration="none" x="200" y="0"></text><text fill="#eeeeee" stroke="none" font-family="Arial" font-size="24px" font-style="normal" font-weight="normal" text-decoration="none" x="200" y="30"></text><text fill="#eeeeee" stroke="none" font-family="Arial" font-size="24px" font-style="normal" font-weight="normal" text-decoration="none" x="200" y="60"></text><text fill="#eeeeee" stroke="none" font-family="Arial" font-size="24px" font-style="normal" font-weight="normal" text-decoration="none" x="200" y="90"></text><text fill="#eeeeee" stroke="none" font-family="Arial" font-size="24px" font-style="normal" font-weight="normal" text-decoration="none" x="200" y="120"></text><text fill="#eeeeee" stroke="none" font-family="Arial" font-size="24px" font-style="normal" font-weight="normal" text-decoration="none" x="200" y="150"></text><text fill="#eeeeee" stroke="none" font-family="Arial" font-size="24px" font-style="normal" font-weight="normal" text-decoration="none" x="200" y="180"></text><text fill="#eeeeee" stroke="none" font-family="Arial" font-size="24px" font-style="normal" font-weight="normal" text-decoration="none" x="200" y="210"></text><text fill="#eeeeee" stroke="none" font-family="Arial" font-size="24px" font-style="normal" font-weight="normal" text-decoration="none" x="200" y="240"></text><text fill="#eeeeee" stroke="none" font-family="Arial" font-size="24px" font-style="normal" font-weight="normal" text-decoration="none" x="200" y="270"></text><text fill="#eeeeee" stroke="none" font-family="Arial" font-size="24px" font-style="normal" font-weight="normal" text-decoration="none" x="400" y="0"></text><text fill="#eeeeee" stroke="none" font-family="Arial" font-size="24px" font-style="normal" font-weight="normal" text-decoration="none" x="400" y="30"></text><text fill="#eeeeee" stroke="none" font-family="Arial" font-size="24px" font-style="normal" font-weight="normal" text-decoration="none" x="400" y="60"></text><text fill="#eeeeee" stroke="none" font-family="Arial" font-size="24px" font-style="normal" font-weight="normal" text-decoration="none" x="400" y="90"></text><text fill="#eeeeee" stroke="none" font-family="Arial" font-size="24px" font-style="normal" font-weight="normal" text-decoration="none" x="400" y="120"></text><text fill="#eeeeee" stroke="none" font-family="Arial" font-size="24px" font-style="normal" font-weight="normal" text-decoration="none" x="400" y="150"></text><text fill="#eeeeee" stroke="none" font-family="Arial" font-size="24px" font-style="normal" font-weight="normal" text-decoration="none" x="400" y="180"></text><text fill="#eeeeee" stroke="none" font-family="Arial" font-size="24px" font-style="normal" font-weight="normal" text-decoration="none" x="400" y="210"></text><text fill="#eeeeee" stroke="none" font-family="Arial" font-size="24px" font-style="normal" font-weight="normal" text-decoration="none" x="400" y="240"></text><text fill="#eeeeee" stroke="none" font-family="Arial" font-size="24px" font-style="normal" font-weight="normal" text-decoration="none" x="400" y="270"></text><text fill="#eeeeee" stroke="none" font-family="Arial" font-size="24px" font-style="normal" font-weight="normal" text-decoration="none" x="600" y="0"></text><text fill="#eeeeee" stroke="none" font-family="Arial" font-size="24px" font-style="normal" font-weight="normal" text-decoration="none" x="600" y="30"></text><text fill="#eeeeee" stroke="none" font-family="Arial" font-size="24px" font-style="normal" font-weight="normal" text-decoration="none" x="600" y="60"></text><text fill="#eeeeee" stroke="none" font-family="Arial" font-size="24px" font-style="normal" font-weight="normal" text-decoration="none" x="600" y="90"></text><text fill="#eeeeee" stroke="none" font-family="Arial" font-size="24px" font-style="normal" font-weight="normal" text-decoration="none" x="600" y="120"></text><text fill="#eeeeee" stroke="none" font-family="Arial" font-size="24px" font-style="normal" font-weight="normal" text-decoration="none" x="600" y="150"></text><text fill="#eeeeee" stroke="none" font-family="Arial" font-size="24px" font-style="normal" font-weight="normal" text-decoration="none" x="600" y="180"></text><text fill="#eeeeee" stroke="none" font-family="Arial" font-size="24px" font-style="normal" font-weight="normal" text-decoration="none" x="600" y="210"></text><text fill="#eeeeee" stroke="none" font-family="Arial" font-size="24px" font-style="normal" font-weight="normal" text-decoration="none" x="600" y="240"></text><text fill="#eeeeee" stroke="none" font-family="Arial" font-size="24px" font-style="normal" font-weight="normal" text-decoration="none" x="600" y="270"></text><g transform="translate(-198,-78) scale(1,1)"><rect fill="#C0C0C0" stroke="none" x="367" y="95" width="107.62353515625" height="72" opacity="0.2"/></g><g transform="translate(-198,-78) scale(1,1)"><rect fill="#8fbcd3" stroke="none" x="360" y="88" width="107.62353515625" height="72"/></g><g transform="translate(-198,-78) scale(1,1)"><path fill="none" stroke="#000000" d="M 360 88 L 467.62353515625 88 L 467.62353515625 160 L 360 160 L 360 88 Z Z" stroke-miterlimit="10"/></g><g transform="translate(-198,-78) scale(1,1)"><path fill="none" stroke="#000000" d="M 360 113 L 467.62353515625 113" stroke-miterlimit="10"/></g><g transform="translate(-198,-78) scale(1,1)"><path fill="none" stroke="#000000" d="M 360 123 L 467.62353515625 123" stroke-miterlimit="10"/></g><g transform="translate(-198,-78) scale(1,1)"><g><path fill="none" stroke="none"/><text fill="#000000" stroke="none" font-family="Arial" font-size="13px" font-style="normal" font-weight="bold" text-decoration="none" x="390.693603515625" y="105.5">Creator</text></g></g><g transform="translate(-198,-78) scale(1,1)"><g><path fill="none" stroke="none"/><text fill="#000000" stroke="none" font-family="Arial" font-size="13px" font-style="italic" font-weight="normal" text-decoration="none" x="365" y="138.5">+factoryMethod()</text></g></g><g transform="translate(-198,-78) scale(1,1)"><g><path fill="none" stroke="none"/><text fill="#000000" stroke="none" font-family="Arial" font-size="13px" font-style="normal" font-weight="normal" text-decoration="none" x="365" y="153.5">+operation()</text></g></g><g transform="translate(-198,-78) scale(1,1)"><rect fill="#C0C0C0" stroke="none" x="247" y="207" width="120.97265625" height="57" opacity="0.2"/></g><g transform="translate(-198,-78) scale(1,1)"><rect fill="#8fbcd3" stroke="none" x="240" y="200" width="120.97265625" height="57"/></g><g transform="translate(-198,-78) scale(1,1)"><path fill="none" stroke="#000000" d="M 240 200 L 360.97265625 200 L 360.97265625 257 L 240 257 L 240 200 Z Z" stroke-miterlimit="10"/></g><g transform="translate(-198,-78) scale(1,1)"><path fill="none" stroke="#000000" d="M 240 225 L 360.97265625 225" stroke-miterlimit="10"/></g><g transform="translate(-198,-78) scale(1,1)"><path fill="none" stroke="#000000" d="M 240 235 L 360.97265625 235" stroke-miterlimit="10"/></g><g transform="translate(-198,-78) scale(1,1)"><g><path fill="none" stroke="none"/><text fill="#000000" stroke="none" font-family="Arial" font-size="13px" font-style="normal" font-weight="bold" text-decoration="none" x="244.5" y="217.5">ConcreteCreatorA</text></g></g><g transform="translate(-198,-78) scale(1,1)"><g><path fill="none" stroke="none"/><text fill="#000000" stroke="none" font-family="Arial" font-size="13px" font-style="normal" font-weight="normal" text-decoration="none" x="245" y="250.5">+factoryMethod()</text></g></g><g transform="translate(-198,-78) scale(1,1)"><rect fill="#C0C0C0" stroke="none" x="447" y="207" width="120.97265625" height="57" opacity="0.2"/></g><g transform="translate(-198,-78) scale(1,1)"><rect fill="#8fbcd3" stroke="none" x="440" y="200" width="120.97265625" height="57"/></g><g transform="translate(-198,-78) scale(1,1)"><path fill="none" stroke="#000000" d="M 440 200 L 560.97265625 200 L 560.97265625 257 L 440 257 L 440 200 Z Z" stroke-miterlimit="10"/></g><g transform="translate(-198,-78) scale(1,1)"><path fill="none" stroke="#000000" d="M 440 225 L 560.97265625 225" stroke-miterlimit="10"/></g><g transform="translate(-198,-78) scale(1,1)"><path fill="none" stroke="#000000" d="M 440 235 L 560.97265625 235" stroke-miterlimit="10"/></g><g transform="translate(-198,-78) scale(1,1)"><g><path fill="none" stroke="none"/><text fill="#000000" stroke="none" font-family="Arial" font-size="13px" font-style="normal" font-weight="bold" text-decoration="none" x="444.5" y="217.5">ConcreteCreatorB</text></g></g><g transform="translate(-198,-78) scale(1,1)"><g><path fill="none" stroke="none"/><text fill="#000000" stroke="none" font-family="Arial" font-size="13px" font-style="normal" font-weight="normal" text-decoration="none" x="445" y="250.5">+factoryMethod()</text></g></g><g transform="translate(-198,-78) scale(1,1)"><rect fill="#C0C0C0" stroke="none" x="623" y="215" width="67.5" height="44" opacity="0.2"/></g><g transform="translate(-198,-78) scale(1,1)"><rect fill="#8fbcd3" stroke="none" x="616" y="208" width="67.5" height="44"/></g><g transform="translate(-198,-78) scale(1,1)"><path fill="none" stroke="#000000" d="M 616 208 L 683.5 208 L 683.5 252 L 616 252 L 616 208 Z Z" stroke-miterlimit="10"/></g><g transform="translate(-198,-78) scale(1,1)"><path fill="none" stroke="#000000" d="M 616 233 L 683.5 233" stroke-miterlimit="10"/></g><g transform="translate(-198,-78) scale(1,1)"><path fill="none" stroke="#000000" d="M 616 243 L 683.5 243" stroke-miterlimit="10"/></g><g transform="translate(-198,-78) scale(1,1)"><g><path fill="none" stroke="none"/><text fill="#000000" stroke="none" font-family="Arial" font-size="13px" font-style="normal" font-weight="bold" text-decoration="none" x="620.5" y="225.5">ProductA</text></g></g><g transform="translate(-198,-78) scale(1,1)"><rect fill="#C0C0C0" stroke="none" x="751" y="215" width="67.5" height="44" opacity="0.2"/></g><g transform="translate(-198,-78) scale(1,1)"><rect fill="#8fbcd3" stroke="none" x="744" y="208" width="67.5" height="44"/></g><g transform="translate(-198,-78) scale(1,1)"><path fill="none" stroke="#000000" d="M 744 208 L 811.5 208 L 811.5 252 L 744 252 L 744 208 Z Z" stroke-miterlimit="10"/></g><g transform="translate(-198,-78) scale(1,1)"><path fill="none" stroke="#000000" d="M 744 233 L 811.5 233" stroke-miterlimit="10"/></g><g transform="translate(-198,-78) scale(1,1)"><path fill="none" stroke="#000000" d="M 744 243 L 811.5 243" stroke-miterlimit="10"/></g><g transform="translate(-198,-78) scale(1,1)"><g><path fill="none" stroke="none"/><text fill="#000000" stroke="none" font-family="Arial" font-size="13px" font-style="normal" font-weight="bold" text-decoration="none" x="748.5" y="225.5">ProductB</text></g></g><g transform="translate(-198,-78) scale(1,1)"><rect fill="#C0C0C0" stroke="none" x="215" y="111" width="58.84814453125" height="44" opacity="0.2"/></g><g transform="translate(-198,-78) scale(1,1)"><rect fill="#8fbcd3" stroke="none" x="208" y="104" width="58.84814453125" height="44"/></g><g transform="translate(-198,-78) scale(1,1)"><path fill="none" stroke="#000000" d="M 208 104 L 266.84814453125 104 L 266.84814453125 148 L 208 148 L 208 104 Z Z" stroke-miterlimit="10"/></g><g transform="translate(-198,-78) scale(1,1)"><path fill="none" stroke="#000000" d="M 208 129 L 266.84814453125 129" stroke-miterlimit="10"/></g><g transform="translate(-198,-78) scale(1,1)"><path fill="none" stroke="#000000" d="M 208 139 L 266.84814453125 139" stroke-miterlimit="10"/></g><g transform="translate(-198,-78) scale(1,1)"><g><path fill="none" stroke="none"/><text fill="#000000" stroke="none" font-family="Arial" font-size="13px" font-style="normal" font-weight="bold" text-decoration="none" x="219.3681640625" y="121.5">Client</text></g></g><g transform="translate(-198,-78) scale(1,1)"><path fill="none" stroke="#000000" d="M 332 199 L 373 161" stroke-miterlimit="10"/></g><g transform="translate(-198,-78) scale(1,1)"><path fill="#FFFFFF" stroke="none" d="M 363.81573558524764 180.9912302562877 L 373 161 L 352.3698098736356 168.64167883060102"/></g><g transform="translate(-198,-78) scale(1,1)"><path fill="none" stroke="#000000" d="M 363.81573558524764 180.9912302562877 L 373 161 L 352.3698098736356 168.64167883060102 L 363.81573558524764 180.9912302562877" stroke-miterlimit="10"/></g><g transform="translate(-198,-78) scale(1,1)"><path fill="none" stroke="#000000" d="M 476 199 L 444 161" stroke-miterlimit="10"/></g><g transform="translate(-198,-78) scale(1,1)"><path fill="#FFFFFF" stroke="none" d="M 463.53209883762565 171.12408588452422 L 444 161 L 450.6524697566289 181.97008932115307"/></g><g transform="translate(-198,-78) scale(1,1)"><path fill="none" stroke="#000000" d="M 463.53209883762565 171.12408588452422 L 444 161 L 450.6524697566289 181.97008932115307 L 463.53209883762565 171.12408588452422" stroke-miterlimit="10"/></g><g transform="translate(-198,-78) scale(1,1)"><path fill="none" stroke="#000000" d="M 359 125 L 268 126" stroke-miterlimit="10"/></g><g transform="translate(-198,-78) scale(1,1)"><path fill="#000000" stroke="none" d="M 278.11580565511986 121.67906538491434 L 268 126 L 278.2083169432912 130.0975926085097 L 289.9986717783065 125.75825635408454"/></g><g transform="translate(-198,-78) scale(1,1)"><path fill="none" stroke="#000000" d="M 278.11580565511986 121.67906538491434 L 268 126 L 278.2083169432912 130.0975926085097 L 289.9986717783065 125.75825635408454 L 278.11580565511986 121.67906538491434" stroke-miterlimit="10"/></g><g transform="translate(-198,-78) scale(1,1)"><rect fill="#C0C0C0" stroke="none" x="695" y="143" width="58.11181640625" height="44" opacity="0.2"/></g><g transform="translate(-198,-78) scale(1,1)"><rect fill="#8fbcd3" stroke="none" x="688" y="136" width="58.11181640625" height="44"/></g><g transform="translate(-198,-78) scale(1,1)"><path fill="none" stroke="#000000" d="M 688 136 L 746.11181640625 136 L 746.11181640625 180 L 688 180 L 688 136 Z Z" stroke-miterlimit="10"/></g><g transform="translate(-198,-78) scale(1,1)"><path fill="none" stroke="#000000" d="M 688 161 L 746.11181640625 161" stroke-miterlimit="10"/></g><g transform="translate(-198,-78) scale(1,1)"><path fill="none" stroke="#000000" d="M 688 171 L 746.11181640625 171" stroke-miterlimit="10"/></g><g transform="translate(-198,-78) scale(1,1)"><g><path fill="none" stroke="none"/><text fill="#000000" stroke="none" font-family="Arial" font-size="13px" font-style="normal" font-weight="bold" text-decoration="none" x="692.5" y="153.5">Product</text></g></g><g transform="translate(-198,-78) scale(1,1)"><path fill="none" stroke="#000000" d="M 671 207 L 695 181" stroke-miterlimit="10"/></g><g transform="translate(-198,-78) scale(1,1)"><path fill="#FFFFFF" stroke="none" d="M 687.4000560017381 201.64560125603717 L 695 181 L 675.0273834123736 190.2246727120084"/></g><g transform="translate(-198,-78) scale(1,1)"><path fill="none" stroke="#000000" d="M 687.4000560017381 201.64560125603717 L 695 181 L 675.0273834123736 190.2246727120084 L 687.4000560017381 201.64560125603717" stroke-miterlimit="10"/></g><g transform="translate(-198,-78) scale(1,1)"><path fill="none" stroke="#000000" d="M 758 207 L 736 181" stroke-miterlimit="10"/></g><g transform="translate(-198,-78) scale(1,1)"><path fill="#FFFFFF" stroke="none" d="M 755.5559781995721 191.07788254832636 L 736 181 L 742.7020257077306 201.95430388757686"/></g><g transform="translate(-198,-78) scale(1,1)"><path fill="none" stroke="#000000" d="M 755.5559781995721 191.07788254832636 L 736 181 L 742.7020257077306 201.95430388757686 L 755.5559781995721 191.07788254832636" stroke-miterlimit="10"/></g><g transform="translate(-198,-78) scale(1,1)"><path fill="#8fbcd3" stroke="none" d="M 504 112 L 626.87353515625 112 L 636.87353515625 122 L 636.87353515625 135 L 504 135 L 504 112"/></g><g transform="translate(-198,-78) scale(1,1)"><path fill="none" stroke="#000000" d="M 504 112 L 626.87353515625 112 L 636.87353515625 122 L 636.87353515625 135 L 504 135 L 504 112 L 504 112" stroke-miterlimit="10"/></g><g transform="translate(-198,-78) scale(1,1)"><path fill="none" stroke="#000000" d="M 626.87353515625 112 L 626.87353515625 122 L 636.87353515625 122 L 626.87353515625 112" stroke-miterlimit="10"/></g><g transform="translate(-198,-78) scale(1,1)"><g><path fill="none" stroke="none"/><text fill="#000000" stroke="none" font-family="Arial" font-size="13px" font-style="normal" font-weight="normal" text-decoration="none" x="509" y="126">this.factoryMethod()</text></g></g><g transform="translate(-198,-78) scale(1,1)"><path fill="#8fbcd3" stroke="none" d="M 224 320 L 357 320 L 367 330 L 367 343 L 224 343 L 224 320"/></g><g transform="translate(-198,-78) scale(1,1)"><path fill="none" stroke="#000000" d="M 224 320 L 357 320 L 367 330 L 367 343 L 224 343 L 224 320 L 224 320" stroke-miterlimit="10"/></g><g transform="translate(-198,-78) scale(1,1)"><path fill="none" stroke="#000000" d="M 357 320 L 357 330 L 367 330 L 357 320" stroke-miterlimit="10"/></g><g transform="translate(-198,-78) scale(1,1)"><g><path fill="none" stroke="none"/><text fill="#000000" stroke="none" font-family="Arial" font-size="13px" font-style="normal" font-weight="normal" text-decoration="none" x="229" y="334">return new ProductA</text></g></g><g transform="translate(-198,-78) scale(1,1)"><path fill="#8fbcd3" stroke="none" d="M 424 320 L 557 320 L 567 330 L 567 343 L 424 343 L 424 320"/></g><g transform="translate(-198,-78) scale(1,1)"><path fill="none" stroke="#000000" d="M 424 320 L 557 320 L 567 330 L 567 343 L 424 343 L 424 320 L 424 320" stroke-miterlimit="10"/></g><g transform="translate(-198,-78) scale(1,1)"><path fill="none" stroke="#000000" d="M 557 320 L 557 330 L 567 330 L 557 320" stroke-miterlimit="10"/></g><g transform="translate(-198,-78) scale(1,1)"><g><path fill="none" stroke="none"/><text fill="#000000" stroke="none" font-family="Arial" font-size="13px" font-style="normal" font-weight="normal" text-decoration="none" x="429" y="334">return new ProductB</text></g></g><g transform="translate(-198,-78) scale(1,1)"><path fill="none" stroke="#000000" d="M 298 258 L 296 296 L 648 296 L 649 253" stroke-miterlimit="10" stroke-dasharray="3"/></g><g transform="translate(-198,-78) scale(1,1)"><path fill="none" stroke="#000000" d="M 652.9721025036246 263.2577971173493 L 649 253 L 644.5553427141674 263.0620585175945" stroke-miterlimit="10"/></g><g transform="translate(-198,-78) scale(1,1)"><path fill="none" stroke="#000000" d="M 498 258 L 496 280 L 776 280 L 777 253" stroke-miterlimit="10" stroke-dasharray="3"/></g><g transform="translate(-198,-78) scale(1,1)"><path fill="none" stroke="#000000" d="M 780.8304960648887 263.3115129780684 L 777 253 L 772.417228991706 262.9999104938764" stroke-miterlimit="10"/></g><g transform="translate(-198,-78) scale(1,1)"><path fill="none" stroke="#000000" d="M 503 124 L 469 124" stroke-miterlimit="10" stroke-dasharray="3"/></g><g transform="translate(-198,-78) scale(1,1)"><path fill="none" stroke="#000000" d="M 297 319 L 299 258" stroke-miterlimit="10" stroke-dasharray="3"/></g><g transform="translate(-198,-78) scale(1,1)"><path fill="none" stroke="#000000" d="M 497 319 L 499 258" stroke-miterlimit="10" stroke-dasharray="3"/></g></g></svg>
