<svg version="1.1" xmlns="http://www.w3.org/2000/svg" xmlns:xlink="http://www.w3.org/1999/xlink" width="536.78173828125" height="305"><defs/><g><text fill="#eeeeee" stroke="none" font-family="Arial" font-size="24px" font-style="normal" font-weight="normal" text-decoration="none" x="0" y="0"></text><text fill="#eeeeee" stroke="none" font-family="Arial" font-size="24px" font-style="normal" font-weight="normal" text-decoration="none" x="0" y="30"></text><text fill="#eeeeee" stroke="none" font-family="Arial" font-size="24px" font-style="normal" font-weight="normal" text-decoration="none" x="0" y="60"></text><text fill="#eeeeee" stroke="none" font-family="Arial" font-size="24px" font-style="normal" font-weight="normal" text-decoration="none" x="0" y="90"></text><text fill="#eeeeee" stroke="none" font-family="Arial" font-size="24px" font-style="normal" font-weight="normal" text-decoration="none" x="0" y="120"></text><text fill="#eeeeee" stroke="none" font-family="Arial" font-size="24px" font-style="normal" font-weight="normal" text-decoration="none" x="0" y="150"></text><text fill="#eeeeee" stroke="none" font-family="Arial" font-size="24px" font-style="normal" font-weight="normal" text-decoration="none" x="0" y="180"></text><text fill="#eeeeee" stroke="none" font-family="Arial" font-size="24px" font-style="normal" font-weight="normal" text-decoration="none" x="0" y="210"></text><text fill="#eeeeee" stroke="none" font-family="Arial" font-size="24px" font-style="normal" font-weight="normal" text-decoration="none" x="0" y="240"></text><text fill="#eeeeee" stroke="none" font-family="Arial" font-size="24px" font-style="normal" font-weight="normal" text-decoration="none" x="0" y="270"></text><text fill="#eeeeee" stroke="none" font-family="Arial" font-size="24px" font-style="normal" font-weight="normal" text-decoration="none" x="0" y="300"></text><text fill="#eeeeee" stroke="none" font-family="Arial" font-size="24px" font-style="normal" font-weight="normal" text-decoration="none" x="200" y="0"></text><text fill="#eeeeee" stroke="none" font-family="Arial" font-size="24px" font-style="normal" font-weight="normal" text-decoration="none" x="200" y="30"></text><text fill="#eeeeee" stroke="none" font-family="Arial" font-size="24px" font-style="normal" font-weight="normal" text-decoration="none" x="200" y="60"></text><text fill="#eeeeee" stroke="none" font-family="Arial" font-size="24px" font-style="normal" font-weight="normal" text-decoration="none" x="200" y="90"></text><text fill="#eeeeee" stroke="none" font-family="Arial" font-size="24px" font-style="normal" font-weight="normal" text-decoration="none" x="200" y="120"></text><text fill="#eeeeee" stroke="none" font-family="Arial" font-size="24px" font-style="normal" font-weight="normal" text-decoration="none" x="200" y="150"></text><text fill="#eeeeee" stroke="none" font-family="Arial" font-size="24px" font-style="normal" font-weight="normal" text-decoration="none" x="200" y="180"></text><text fill="#eeeeee" stroke="none" font-family="Arial" font-size="24px" font-style="normal" font-weight="normal" text-decoration="none" x="200" y="210"></text><text fill="#eeeeee" stroke="none" font-family="Arial" font-size="24px" font-style="normal" font-weight="normal" text-decoration="none" x="200" y="240"></text><text fill="#eeeeee" stroke="none" font-family="Arial" font-size="24px" font-style="normal" font-weight="normal" text-decoration="none" x="200" y="270"></text><text fill="#eeeeee" stroke="none" font-family="Arial" font-size="24px" font-style="normal" font-weight="normal" text-decoration="none" x="200" y="300"></text><text fill="#eeeeee" stroke="none" font-family="Arial" font-size="24px" font-style="normal" font-weight="normal" text-decoration="none" x="400" y="0"></text><text fill="#eeeeee" stroke="none" font-family="Arial" font-size="24px" font-style="normal" font-weight="normal" text-decoration="none" x="400" y="30"></text><text fill="#eeeeee" stroke="none" font-family="Arial" font-size="24px" font-style="normal" font-weight="normal" text-decoration="none" x="400" y="60"></text><text fill="#eeeeee" stroke="none" font-family="Arial" font-size="24px" font-style="normal" font-weight="normal" text-decoration="none" x="400" y="90"></text><text fill="#eeeeee" stroke="none" font-family="Arial" font-size="24px" font-style="normal" font-weight="normal" text-decoration="none" x="400" y="120"></text><text fill="#eeeeee" stroke="none" font-family="Arial" font-size="24px" font-style="normal" font-weight="normal" text-decoration="none" x="400" y="150"></text><text fill="#eeeeee" stroke="none" font-family="Arial" font-size="24px" font-style="normal" font-weight="normal" text-decoration="none" x="400" y="180"></text><text fill="#eeeeee" stroke="none" font-family="Arial" font-size="24px" font-style="normal" font-weight="normal" text-decoration="none" x="400" y="210"></text><text fill="#eeeeee" stroke="none" font-family="Arial" font-size="24px" font-style="normal" font-weight="normal" text-decoration="none" x="400" y="240"></text><text fill="#eeeeee" stroke="none" font-family="Arial" font-size="24px" font-style="normal" font-weight="normal" text-decoration="none" x="400" y="270"></text><text fill="#eeeeee" stroke="none" font-family="Arial" font-size="24px" font-style="normal" font-weight="normal" text-decoration="none" x="400" y="300"></text><g transform="translate(-310,-542) scale(1,1)"><rect fill="#C0C0C0" stroke="none" x="599" y="559" width="50.919921875" height="44" opacity="0.2"/></g><g transform="translate(-310,-542) scale(1,1)"><rect fill="#8fbcd3" stroke="none" x="592" y="552" width="50.919921875" height="44"/></g><g transform="translate(-310,-542) scale(1,1)"><path fill="none" stroke="#000000" d="M 592 552 L 642.919921875 552 L 642.919921875 596 L 592 596 L 592 552 Z Z" stroke-miterlimit="10"/></g><g transform="translate(-310,-542) scale(1,1)"><path fill="none" stroke="#000000" d="M 592 577 L 642.919921875 577" stroke-miterlimit="10"/></g><g transform="translate(-310,-542) scale(1,1)"><path fill="none" stroke="#000000" d="M 592 587 L 642.919921875 587" stroke-miterlimit="10"/></g><g transform="translate(-310,-542) scale(1,1)"><g><path fill="none" stroke="none"/><text fill="#000000" stroke="none" font-family="Arial" font-size="13px" font-style="normal" font-weight="bold" text-decoration="none" x="599.404052734375" y="569.5">Client</text></g></g><g transform="translate(-310,-542) scale(1,1)"><rect fill="#C0C0C0" stroke="none" x="327" y="631" width="160" height="85" opacity="0.2"/></g><g transform="translate(-310,-542) scale(1,1)"><rect fill="#8fbcd3" stroke="none" x="320" y="624" width="160" height="85"/></g><g transform="translate(-310,-542) scale(1,1)"><path fill="none" stroke="#000000" d="M 320 624 L 480 624 L 480 709 L 320 709 L 320 624 Z Z" stroke-miterlimit="10"/></g><g transform="translate(-310,-542) scale(1,1)"><path fill="none" stroke="#000000" d="M 320 649 L 480 649" stroke-miterlimit="10"/></g><g transform="translate(-310,-542) scale(1,1)"><path fill="none" stroke="#000000" d="M 320 672 L 480 672" stroke-miterlimit="10"/></g><g transform="translate(-310,-542) scale(1,1)"><g><path fill="none" stroke="none"/><text fill="#000000" stroke="none" font-family="Arial" font-size="13px" font-style="normal" font-weight="bold" text-decoration="none" x="368.582275390625" y="641.5">Originator</text></g></g><g transform="translate(-310,-542) scale(1,1)"><g><path fill="none" stroke="none"/><text fill="#000000" stroke="none" font-family="Arial" font-size="13px" font-style="normal" font-weight="normal" text-decoration="none" x="325" y="664.5">+state</text></g></g><g transform="translate(-310,-542) scale(1,1)"><g><path fill="none" stroke="none"/><text fill="#000000" stroke="none" font-family="Arial" font-size="13px" font-style="normal" font-weight="normal" text-decoration="none" x="325" y="687.5">+setMemento(memento)</text></g></g><g transform="translate(-310,-542) scale(1,1)"><g><path fill="none" stroke="none"/><text fill="#000000" stroke="none" font-family="Arial" font-size="13px" font-style="normal" font-weight="normal" text-decoration="none" x="325" y="702.5">+createMemento()</text></g></g><g transform="translate(-310,-542) scale(1,1)"><rect fill="#C0C0C0" stroke="none" x="743" y="647" width="71.63232421875" height="44" opacity="0.2"/></g><g transform="translate(-310,-542) scale(1,1)"><rect fill="#8fbcd3" stroke="none" x="736" y="640" width="71.63232421875" height="44"/></g><g transform="translate(-310,-542) scale(1,1)"><path fill="none" stroke="#000000" d="M 736 640 L 807.63232421875 640 L 807.63232421875 684 L 736 684 L 736 640 Z Z" stroke-miterlimit="10"/></g><g transform="translate(-310,-542) scale(1,1)"><path fill="none" stroke="#000000" d="M 736 665 L 807.63232421875 665" stroke-miterlimit="10"/></g><g transform="translate(-310,-542) scale(1,1)"><path fill="none" stroke="#000000" d="M 736 675 L 807.63232421875 675" stroke-miterlimit="10"/></g><g transform="translate(-310,-542) scale(1,1)"><g><path fill="none" stroke="none"/><text fill="#000000" stroke="none" font-family="Arial" font-size="13px" font-style="normal" font-weight="bold" text-decoration="none" x="740.5" y="657.5">CareTaker</text></g></g><g transform="translate(-310,-542) scale(1,1)"><rect fill="#C0C0C0" stroke="none" x="575" y="759" width="89.57080078125" height="85" opacity="0.2"/></g><g transform="translate(-310,-542) scale(1,1)"><rect fill="#8fbcd3" stroke="none" x="568" y="752" width="89.57080078125" height="85"/></g><g transform="translate(-310,-542) scale(1,1)"><path fill="none" stroke="#000000" d="M 568 752 L 657.57080078125 752 L 657.57080078125 837 L 568 837 L 568 752 Z Z" stroke-miterlimit="10"/></g><g transform="translate(-310,-542) scale(1,1)"><path fill="none" stroke="#000000" d="M 568 777 L 657.57080078125 777" stroke-miterlimit="10"/></g><g transform="translate(-310,-542) scale(1,1)"><path fill="none" stroke="#000000" d="M 568 800 L 657.57080078125 800" stroke-miterlimit="10"/></g><g transform="translate(-310,-542) scale(1,1)"><g><path fill="none" stroke="none"/><text fill="#000000" stroke="none" font-family="Arial" font-size="13px" font-style="normal" font-weight="bold" text-decoration="none" x="584.255859375" y="769.5">Memento</text></g></g><g transform="translate(-310,-542) scale(1,1)"><g><path fill="none" stroke="none"/><text fill="#000000" stroke="none" font-family="Arial" font-size="13px" font-style="normal" font-weight="normal" text-decoration="none" x="573" y="792.5">+state</text></g></g><g transform="translate(-310,-542) scale(1,1)"><g><path fill="none" stroke="none"/><text fill="#000000" stroke="none" font-family="Arial" font-size="13px" font-style="normal" font-weight="normal" text-decoration="none" x="573" y="815.5">-getState()</text></g></g><g transform="translate(-310,-542) scale(1,1)"><g><path fill="none" stroke="none"/><text fill="#000000" stroke="none" font-family="Arial" font-size="13px" font-style="normal" font-weight="normal" text-decoration="none" x="573" y="830.5">-setState()</text></g></g><g transform="translate(-310,-542) scale(1,1)"><path fill="#8fbcd3" stroke="none" d="M 520 632 L 646.498046875 632 L 656.498046875 642 L 656.498046875 670 L 520 670 L 520 632"/></g><g transform="translate(-310,-542) scale(1,1)"><path fill="none" stroke="#000000" d="M 520 632 L 646.498046875 632 L 656.498046875 642 L 656.498046875 670 L 520 670 L 520 632 L 520 632" stroke-miterlimit="10"/></g><g transform="translate(-310,-542) scale(1,1)"><path fill="none" stroke="#000000" d="M 646.498046875 632 L 646.498046875 642 L 656.498046875 642 L 646.498046875 632" stroke-miterlimit="10"/></g><g transform="translate(-310,-542) scale(1,1)"><g><path fill="none" stroke="none"/><text fill="#000000" stroke="none" font-family="Arial" font-size="13px" font-style="normal" font-weight="normal" text-decoration="none" x="525" y="646">state =</text><text fill="#000000" stroke="none" font-family="Arial" font-size="13px" font-style="normal" font-weight="normal" text-decoration="none" x="525" y="659">memento.getState();</text></g></g><g transform="translate(-310,-542) scale(1,1)"><path fill="#8fbcd3" stroke="none" d="M 504 688 L 685 688 L 695 698 L 695 711 L 504 711 L 504 688"/></g><g transform="translate(-310,-542) scale(1,1)"><path fill="none" stroke="#000000" d="M 504 688 L 685 688 L 695 698 L 695 711 L 504 711 L 504 688 L 504 688" stroke-miterlimit="10"/></g><g transform="translate(-310,-542) scale(1,1)"><path fill="none" stroke="#000000" d="M 685 688 L 685 698 L 695 698 L 685 688" stroke-miterlimit="10"/></g><g transform="translate(-310,-542) scale(1,1)"><g><path fill="none" stroke="none"/><text fill="#000000" stroke="none" font-family="Arial" font-size="13px" font-style="normal" font-weight="normal" text-decoration="none" x="509" y="702">return new Memento( state );</text></g></g><g transform="translate(-310,-542) scale(1,1)"><path fill="none" stroke="#000000" d="M 480 687 L 600 687 L 600 688" stroke-miterlimit="10" stroke-dasharray="3"/></g><g transform="translate(-310,-542) scale(1,1)"><path fill="none" stroke="#000000" d="M 480 660 L 520 660" stroke-miterlimit="10" stroke-dasharray="3"/></g><g transform="translate(-310,-542) scale(1,1)"><path fill="none" stroke="#000000" d="M 592 576 L 400 576 L 400 624" stroke-miterlimit="10"/></g><g transform="translate(-310,-542) scale(1,1)"><path fill="none" stroke="#000000" d="M 395.790482243984 613.8373251423759 L 400 624 L 404.209517756016 613.8373251423759" stroke-miterlimit="10"/></g><g transform="translate(-310,-542) scale(1,1)"><path fill="none" stroke="#000000" d="M 643 576 L 768 576 L 768 640" stroke-miterlimit="10"/></g><g transform="translate(-310,-542) scale(1,1)"><path fill="none" stroke="#000000" d="M 763.790482243984 629.8373251423759 L 768 640 L 772.209517756016 629.8373251423759" stroke-miterlimit="10"/></g><g transform="translate(-310,-542) scale(1,1)"><path fill="none" stroke="#000000" d="M 400 709 L 400 794 L 568 794" stroke-miterlimit="10" stroke-dasharray="3"/></g><g transform="translate(-310,-542) scale(1,1)"><path fill="none" stroke="#000000" d="M 557.8373251423759 798.209517756016 L 568 794 L 557.8373251423758 789.790482243984" stroke-miterlimit="10"/></g><g transform="translate(-310,-542) scale(1,1)"><path fill="none" stroke="#000000" d="M 770 684 L 770 792 L 768 792 L 768 793 L 658 793" stroke-miterlimit="10"/></g><g transform="translate(-310,-542) scale(1,1)"><path fill="none" stroke="#000000" d="M 668.1626748576241 788.790482243984 L 658 793 L 668.1626748576241 797.209517756016" stroke-miterlimit="10"/></g><g transform="translate(-310,-542) scale(1,1)"><g><path fill="none" stroke="none"/><text fill="#000000" stroke="none" font-family="Arial" font-size="13px" font-style="normal" font-weight="normal" text-decoration="none" x="777.13134765625" y="714.5">-memento</text></g></g></g></svg>
