<svg version="1.1" xmlns="http://www.w3.org/2000/svg" xmlns:xlink="http://www.w3.org/1999/xlink" width="732" height="436"><defs/><g><text fill="#eeeeee" stroke="none" font-family="Arial" font-size="24px" font-style="normal" font-weight="normal" text-decoration="none" x="0" y="0"></text><text fill="#eeeeee" stroke="none" font-family="Arial" font-size="24px" font-style="normal" font-weight="normal" text-decoration="none" x="0" y="30"></text><text fill="#eeeeee" stroke="none" font-family="Arial" font-size="24px" font-style="normal" font-weight="normal" text-decoration="none" x="0" y="60"></text><text fill="#eeeeee" stroke="none" font-family="Arial" font-size="24px" font-style="normal" font-weight="normal" text-decoration="none" x="0" y="90"></text><text fill="#eeeeee" stroke="none" font-family="Arial" font-size="24px" font-style="normal" font-weight="normal" text-decoration="none" x="0" y="120"></text><text fill="#eeeeee" stroke="none" font-family="Arial" font-size="24px" font-style="normal" font-weight="normal" text-decoration="none" x="0" y="150"></text><text fill="#eeeeee" stroke="none" font-family="Arial" font-size="24px" font-style="normal" font-weight="normal" text-decoration="none" x="0" y="180"></text><text fill="#eeeeee" stroke="none" font-family="Arial" font-size="24px" font-style="normal" font-weight="normal" text-decoration="none" x="0" y="210"></text><text fill="#eeeeee" stroke="none" font-family="Arial" font-size="24px" font-style="normal" font-weight="normal" text-decoration="none" x="0" y="240"></text><text fill="#eeeeee" stroke="none" font-family="Arial" font-size="24px" font-style="normal" font-weight="normal" text-decoration="none" x="0" y="270"></text><text fill="#eeeeee" stroke="none" font-family="Arial" font-size="24px" font-style="normal" font-weight="normal" text-decoration="none" x="0" y="300"></text><text fill="#eeeeee" stroke="none" font-family="Arial" font-size="24px" font-style="normal" font-weight="normal" text-decoration="none" x="0" y="330"></text><text fill="#eeeeee" stroke="none" font-family="Arial" font-size="24px" font-style="normal" font-weight="normal" text-decoration="none" x="0" y="360"></text><text fill="#eeeeee" stroke="none" font-family="Arial" font-size="24px" font-style="normal" font-weight="normal" text-decoration="none" x="0" y="390"></text><text fill="#eeeeee" stroke="none" font-family="Arial" font-size="24px" font-style="normal" font-weight="normal" text-decoration="none" x="0" y="420"></text><text fill="#eeeeee" stroke="none" font-family="Arial" font-size="24px" font-style="normal" font-weight="normal" text-decoration="none" x="200" y="0"></text><text fill="#eeeeee" stroke="none" font-family="Arial" font-size="24px" font-style="normal" font-weight="normal" text-decoration="none" x="200" y="30"></text><text fill="#eeeeee" stroke="none" font-family="Arial" font-size="24px" font-style="normal" font-weight="normal" text-decoration="none" x="200" y="60"></text><text fill="#eeeeee" stroke="none" font-family="Arial" font-size="24px" font-style="normal" font-weight="normal" text-decoration="none" x="200" y="90"></text><text fill="#eeeeee" stroke="none" font-family="Arial" font-size="24px" font-style="normal" font-weight="normal" text-decoration="none" x="200" y="120"></text><text fill="#eeeeee" stroke="none" font-family="Arial" font-size="24px" font-style="normal" font-weight="normal" text-decoration="none" x="200" y="150"></text><text fill="#eeeeee" stroke="none" font-family="Arial" font-size="24px" font-style="normal" font-weight="normal" text-decoration="none" x="200" y="180"></text><text fill="#eeeeee" stroke="none" font-family="Arial" font-size="24px" font-style="normal" font-weight="normal" text-decoration="none" x="200" y="210"></text><text fill="#eeeeee" stroke="none" font-family="Arial" font-size="24px" font-style="normal" font-weight="normal" text-decoration="none" x="200" y="240"></text><text fill="#eeeeee" stroke="none" font-family="Arial" font-size="24px" font-style="normal" font-weight="normal" text-decoration="none" x="200" y="270"></text><text fill="#eeeeee" stroke="none" font-family="Arial" font-size="24px" font-style="normal" font-weight="normal" text-decoration="none" x="200" y="300"></text><text fill="#eeeeee" stroke="none" font-family="Arial" font-size="24px" font-style="normal" font-weight="normal" text-decoration="none" x="200" y="330"></text><text fill="#eeeeee" stroke="none" font-family="Arial" font-size="24px" font-style="normal" font-weight="normal" text-decoration="none" x="200" y="360"></text><text fill="#eeeeee" stroke="none" font-family="Arial" font-size="24px" font-style="normal" font-weight="normal" text-decoration="none" x="200" y="390"></text><text fill="#eeeeee" stroke="none" font-family="Arial" font-size="24px" font-style="normal" font-weight="normal" text-decoration="none" x="200" y="420"></text><text fill="#eeeeee" stroke="none" font-family="Arial" font-size="24px" font-style="normal" font-weight="normal" text-decoration="none" x="400" y="0"></text><text fill="#eeeeee" stroke="none" font-family="Arial" font-size="24px" font-style="normal" font-weight="normal" text-decoration="none" x="400" y="30"></text><text fill="#eeeeee" stroke="none" font-family="Arial" font-size="24px" font-style="normal" font-weight="normal" text-decoration="none" x="400" y="60"></text><text fill="#eeeeee" stroke="none" font-family="Arial" font-size="24px" font-style="normal" font-weight="normal" text-decoration="none" x="400" y="90"></text><text fill="#eeeeee" stroke="none" font-family="Arial" font-size="24px" font-style="normal" font-weight="normal" text-decoration="none" x="400" y="120"></text><text fill="#eeeeee" stroke="none" font-family="Arial" font-size="24px" font-style="normal" font-weight="normal" text-decoration="none" x="400" y="150"></text><text fill="#eeeeee" stroke="none" font-family="Arial" font-size="24px" font-style="normal" font-weight="normal" text-decoration="none" x="400" y="180"></text><text fill="#eeeeee" stroke="none" font-family="Arial" font-size="24px" font-style="normal" font-weight="normal" text-decoration="none" x="400" y="210"></text><text fill="#eeeeee" stroke="none" font-family="Arial" font-size="24px" font-style="normal" font-weight="normal" text-decoration="none" x="400" y="240"></text><text fill="#eeeeee" stroke="none" font-family="Arial" font-size="24px" font-style="normal" font-weight="normal" text-decoration="none" x="400" y="270"></text><text fill="#eeeeee" stroke="none" font-family="Arial" font-size="24px" font-style="normal" font-weight="normal" text-decoration="none" x="400" y="300"></text><text fill="#eeeeee" stroke="none" font-family="Arial" font-size="24px" font-style="normal" font-weight="normal" text-decoration="none" x="400" y="330"></text><text fill="#eeeeee" stroke="none" font-family="Arial" font-size="24px" font-style="normal" font-weight="normal" text-decoration="none" x="400" y="360"></text><text fill="#eeeeee" stroke="none" font-family="Arial" font-size="24px" font-style="normal" font-weight="normal" text-decoration="none" x="400" y="390"></text><text fill="#eeeeee" stroke="none" font-family="Arial" font-size="24px" font-style="normal" font-weight="normal" text-decoration="none" x="400" y="420"></text><text fill="#eeeeee" stroke="none" font-family="Arial" font-size="24px" font-style="normal" font-weight="normal" text-decoration="none" x="600" y="0"></text><text fill="#eeeeee" stroke="none" font-family="Arial" font-size="24px" font-style="normal" font-weight="normal" text-decoration="none" x="600" y="30"></text><text fill="#eeeeee" stroke="none" font-family="Arial" font-size="24px" font-style="normal" font-weight="normal" text-decoration="none" x="600" y="60"></text><text fill="#eeeeee" stroke="none" font-family="Arial" font-size="24px" font-style="normal" font-weight="normal" text-decoration="none" x="600" y="90"></text><text fill="#eeeeee" stroke="none" font-family="Arial" font-size="24px" font-style="normal" font-weight="normal" text-decoration="none" x="600" y="120"></text><text fill="#eeeeee" stroke="none" font-family="Arial" font-size="24px" font-style="normal" font-weight="normal" text-decoration="none" x="600" y="150"></text><text fill="#eeeeee" stroke="none" font-family="Arial" font-size="24px" font-style="normal" font-weight="normal" text-decoration="none" x="600" y="180"></text><text fill="#eeeeee" stroke="none" font-family="Arial" font-size="24px" font-style="normal" font-weight="normal" text-decoration="none" x="600" y="210"></text><text fill="#eeeeee" stroke="none" font-family="Arial" font-size="24px" font-style="normal" font-weight="normal" text-decoration="none" x="600" y="240"></text><text fill="#eeeeee" stroke="none" font-family="Arial" font-size="24px" font-style="normal" font-weight="normal" text-decoration="none" x="600" y="270"></text><text fill="#eeeeee" stroke="none" font-family="Arial" font-size="24px" font-style="normal" font-weight="normal" text-decoration="none" x="600" y="300"></text><text fill="#eeeeee" stroke="none" font-family="Arial" font-size="24px" font-style="normal" font-weight="normal" text-decoration="none" x="600" y="330"></text><text fill="#eeeeee" stroke="none" font-family="Arial" font-size="24px" font-style="normal" font-weight="normal" text-decoration="none" x="600" y="360"></text><text fill="#eeeeee" stroke="none" font-family="Arial" font-size="24px" font-style="normal" font-weight="normal" text-decoration="none" x="600" y="390"></text><text fill="#eeeeee" stroke="none" font-family="Arial" font-size="24px" font-style="normal" font-weight="normal" text-decoration="none" x="600" y="420"></text><g transform="translate(-222,-110) scale(1,1)"><rect fill="#C0C0C0" stroke="none" x="239" y="135" width="144" height="15" opacity="0.2"/></g><g transform="translate(-222,-110) scale(1,1)"><rect fill="#C0C0C0" stroke="none" x="239" y="149" width="360" height="394" opacity="0.2"/></g><g transform="translate(-222,-110) scale(1,1)"><rect fill="#c2d0d7" stroke="none" x="232" y="143" width="360" height="393"/></g><g transform="translate(-222,-110) scale(1,1)"><path fill="none" stroke="#000000" d="M 232 143 L 592 143 L 592 536 L 232 536 L 232 143 Z Z" stroke-miterlimit="10"/></g><g transform="translate(-222,-110) scale(1,1)"><rect fill="#c2d0d7" stroke="none" x="232" y="128" width="144" height="15"/></g><g transform="translate(-222,-110) scale(1,1)"><path fill="none" stroke="#000000" d="M 232 128 L 376 128 L 376 143 L 232 143 L 232 128 Z Z" stroke-miterlimit="10"/></g><g transform="translate(-222,-110) scale(1,1)"><rect fill="#c2d0d7" stroke="none" x="232" y="142" width="360" height="394"/></g><g transform="translate(-222,-110) scale(1,1)"><path fill="none" stroke="#000000" d="M 232 142 L 592 142 L 592 536 L 232 536 L 232 142 Z Z" stroke-miterlimit="10"/></g><g transform="translate(-222,-110) scale(1,1)"><g><path fill="none" stroke="none"/><text fill="#000000" stroke="none" font-family="Arial" font-size="13px" font-style="normal" font-weight="bold" text-decoration="none" x="377.67822265625" y="160.5">observable</text></g></g><g transform="translate(-222,-110) scale(1,1)"><rect fill="#C0C0C0" stroke="none" x="647" y="127" width="121.60000000000002" height="15" opacity="0.2"/></g><g transform="translate(-222,-110) scale(1,1)"><rect fill="#C0C0C0" stroke="none" x="647" y="141" width="304" height="242" opacity="0.2"/></g><g transform="translate(-222,-110) scale(1,1)"><rect fill="#c2d0d7" stroke="none" x="640" y="135" width="304" height="241"/></g><g transform="translate(-222,-110) scale(1,1)"><path fill="none" stroke="#000000" d="M 640 135 L 944 135 L 944 376 L 640 376 L 640 135 Z Z" stroke-miterlimit="10"/></g><g transform="translate(-222,-110) scale(1,1)"><rect fill="#c2d0d7" stroke="none" x="640" y="120" width="121.60000000000002" height="15"/></g><g transform="translate(-222,-110) scale(1,1)"><path fill="none" stroke="#000000" d="M 640 120 L 761.6 120 L 761.6 135 L 640 135 L 640 120 Z Z" stroke-miterlimit="10"/></g><g transform="translate(-222,-110) scale(1,1)"><rect fill="#c2d0d7" stroke="none" x="640" y="134" width="304" height="242"/></g><g transform="translate(-222,-110) scale(1,1)"><path fill="none" stroke="#000000" d="M 640 134 L 944 134 L 944 376 L 640 376 L 640 134 Z Z" stroke-miterlimit="10"/></g><g transform="translate(-222,-110) scale(1,1)"><g><path fill="none" stroke="none"/><text fill="#000000" stroke="none" font-family="Arial" font-size="13px" font-style="normal" font-weight="bold" text-decoration="none" x="764.5400390625" y="152.5">observer</text></g></g><g transform="translate(-222,-110) scale(1,1)"><rect fill="#C0C0C0" stroke="none" x="495" y="175" width="89.57080078125" height="70" opacity="0.2"/></g><g transform="translate(-222,-110) scale(1,1)"><rect fill="#8fbcd3" stroke="none" x="488" y="168" width="89.57080078125" height="70"/></g><g transform="translate(-222,-110) scale(1,1)"><path fill="none" stroke="#000000" d="M 488 168 L 577.57080078125 168 L 577.57080078125 238 L 488 238 L 488 168 Z Z" stroke-miterlimit="10"/></g><g transform="translate(-222,-110) scale(1,1)"><path fill="none" stroke="#000000" d="M 488 206 L 577.57080078125 206" stroke-miterlimit="10"/></g><g transform="translate(-222,-110) scale(1,1)"><path fill="none" stroke="#000000" d="M 488 216 L 577.57080078125 216" stroke-miterlimit="10"/></g><g transform="translate(-222,-110) scale(1,1)"><g><path fill="none" stroke="none"/><text fill="#000000" stroke="none" font-family="Arial" font-size="13px" font-style="normal" font-weight="normal" text-decoration="none" x="500.26318359375" y="183.5">«Interface»</text></g></g><g transform="translate(-222,-110) scale(1,1)"><g><path fill="none" stroke="none"/><text fill="#000000" stroke="none" font-family="Arial" font-size="13px" font-style="normal" font-weight="bold" text-decoration="none" x="504.239990234375" y="198.5">Observer</text></g></g><g transform="translate(-222,-110) scale(1,1)"><g><path fill="none" stroke="none"/><text fill="#000000" stroke="none" font-family="Arial" font-size="13px" font-style="italic" font-weight="normal" text-decoration="none" x="493" y="231.5">+update()</text></g></g><g transform="translate(-222,-110) scale(1,1)"><rect fill="#C0C0C0" stroke="none" x="679" y="255" width="108.3662109375" height="70" opacity="0.2"/></g><g transform="translate(-222,-110) scale(1,1)"><rect fill="#8fbcd3" stroke="none" x="672" y="248" width="108.3662109375" height="70"/></g><g transform="translate(-222,-110) scale(1,1)"><path fill="none" stroke="#000000" d="M 672 248 L 780.3662109375 248 L 780.3662109375 318 L 672 318 L 672 248 Z Z" stroke-miterlimit="10"/></g><g transform="translate(-222,-110) scale(1,1)"><path fill="none" stroke="#000000" d="M 672 273 L 780.3662109375 273" stroke-miterlimit="10"/></g><g transform="translate(-222,-110) scale(1,1)"><path fill="none" stroke="#000000" d="M 672 296 L 780.3662109375 296" stroke-miterlimit="10"/></g><g transform="translate(-222,-110) scale(1,1)"><g><path fill="none" stroke="none"/><text fill="#000000" stroke="none" font-family="Arial" font-size="13px" font-style="normal" font-weight="bold" text-decoration="none" x="692.943603515625" y="265.5">ObserverA</text></g></g><g transform="translate(-222,-110) scale(1,1)"><g><path fill="none" stroke="none"/><text fill="#000000" stroke="none" font-family="Arial" font-size="13px" font-style="normal" font-weight="normal" text-decoration="none" x="677" y="288.5">-subject: Subject</text></g></g><g transform="translate(-222,-110) scale(1,1)"><g><path fill="none" stroke="none"/><text fill="#000000" stroke="none" font-family="Arial" font-size="13px" font-style="normal" font-weight="normal" text-decoration="none" x="677" y="311.5">+update()</text></g></g><g transform="translate(-222,-110) scale(1,1)"><rect fill="#C0C0C0" stroke="none" x="815" y="255" width="108.3662109375" height="70" opacity="0.2"/></g><g transform="translate(-222,-110) scale(1,1)"><rect fill="#8fbcd3" stroke="none" x="808" y="248" width="108.3662109375" height="70"/></g><g transform="translate(-222,-110) scale(1,1)"><path fill="none" stroke="#000000" d="M 808 248 L 916.3662109375 248 L 916.3662109375 318 L 808 318 L 808 248 Z Z" stroke-miterlimit="10"/></g><g transform="translate(-222,-110) scale(1,1)"><path fill="none" stroke="#000000" d="M 808 273 L 916.3662109375 273" stroke-miterlimit="10"/></g><g transform="translate(-222,-110) scale(1,1)"><path fill="none" stroke="#000000" d="M 808 296 L 916.3662109375 296" stroke-miterlimit="10"/></g><g transform="translate(-222,-110) scale(1,1)"><g><path fill="none" stroke="none"/><text fill="#000000" stroke="none" font-family="Arial" font-size="13px" font-style="normal" font-weight="bold" text-decoration="none" x="828.943603515625" y="265.5">ObserverB</text></g></g><g transform="translate(-222,-110) scale(1,1)"><g><path fill="none" stroke="none"/><text fill="#000000" stroke="none" font-family="Arial" font-size="13px" font-style="normal" font-weight="normal" text-decoration="none" x="813" y="288.5">+subject: Subject</text></g></g><g transform="translate(-222,-110) scale(1,1)"><g><path fill="none" stroke="none"/><text fill="#000000" stroke="none" font-family="Arial" font-size="13px" font-style="normal" font-weight="normal" text-decoration="none" x="813" y="311.5">+update()</text></g></g><g transform="translate(-222,-110) scale(1,1)"><rect fill="#C0C0C0" stroke="none" x="279" y="271" width="233.31982421875" height="100" opacity="0.2"/></g><g transform="translate(-222,-110) scale(1,1)"><rect fill="#8fbcd3" stroke="none" x="272" y="264" width="233.31982421875" height="100"/></g><g transform="translate(-222,-110) scale(1,1)"><path fill="none" stroke="#000000" d="M 272 264 L 505.31982421875 264 L 505.31982421875 364 L 272 364 L 272 264 Z Z" stroke-miterlimit="10"/></g><g transform="translate(-222,-110) scale(1,1)"><path fill="none" stroke="#000000" d="M 272 289 L 505.31982421875 289" stroke-miterlimit="10"/></g><g transform="translate(-222,-110) scale(1,1)"><path fill="none" stroke="#000000" d="M 272 312 L 505.31982421875 312" stroke-miterlimit="10"/></g><g transform="translate(-222,-110) scale(1,1)"><g><path fill="none" stroke="none"/><text fill="#000000" stroke="none" font-family="Arial" font-size="13px" font-style="normal" font-weight="bold" text-decoration="none" x="353.252685546875" y="281.5">Observable</text></g></g><g transform="translate(-222,-110) scale(1,1)"><g><path fill="none" stroke="none"/><text fill="#000000" stroke="none" font-family="Arial" font-size="13px" font-style="normal" font-weight="normal" text-decoration="none" x="277" y="304.5">+observers: Set&lt;Observer&gt;</text></g></g><g transform="translate(-222,-110) scale(1,1)"><g><path fill="none" stroke="none"/><text fill="#000000" stroke="none" font-family="Arial" font-size="13px" font-style="normal" font-weight="normal" text-decoration="none" x="277" y="327.5">+addObserver(observer: Observer)</text></g></g><g transform="translate(-222,-110) scale(1,1)"><g><path fill="none" stroke="none"/><text fill="#000000" stroke="none" font-family="Arial" font-size="13px" font-style="normal" font-weight="normal" text-decoration="none" x="277" y="342.5">+removeObserver(observer: Observer)</text></g></g><g transform="translate(-222,-110) scale(1,1)"><g><path fill="none" stroke="none"/><text fill="#000000" stroke="none" font-family="Arial" font-size="13px" font-style="normal" font-weight="normal" text-decoration="none" x="277" y="357.5">+notifyObserver()</text></g></g><g transform="translate(-222,-110) scale(1,1)"><rect fill="#C0C0C0" stroke="none" x="263" y="407" width="89.57080078125" height="85" opacity="0.2"/></g><g transform="translate(-222,-110) scale(1,1)"><rect fill="#8fbcd3" stroke="none" x="256" y="400" width="89.57080078125" height="85"/></g><g transform="translate(-222,-110) scale(1,1)"><path fill="none" stroke="#000000" d="M 256 400 L 345.57080078125 400 L 345.57080078125 485 L 256 485 L 256 400 Z Z" stroke-miterlimit="10"/></g><g transform="translate(-222,-110) scale(1,1)"><path fill="none" stroke="#000000" d="M 256 425 L 345.57080078125 425" stroke-miterlimit="10"/></g><g transform="translate(-222,-110) scale(1,1)"><path fill="none" stroke="#000000" d="M 256 448 L 345.57080078125 448" stroke-miterlimit="10"/></g><g transform="translate(-222,-110) scale(1,1)"><g><path fill="none" stroke="none"/><text fill="#000000" stroke="none" font-family="Arial" font-size="13px" font-style="normal" font-weight="bold" text-decoration="none" x="277.30859375" y="417.5">Subject</text></g></g><g transform="translate(-222,-110) scale(1,1)"><g><path fill="none" stroke="none"/><text fill="#000000" stroke="none" font-family="Arial" font-size="13px" font-style="normal" font-weight="normal" text-decoration="none" x="261" y="440.5">+state</text></g></g><g transform="translate(-222,-110) scale(1,1)"><g><path fill="none" stroke="none"/><text fill="#000000" stroke="none" font-family="Arial" font-size="13px" font-style="normal" font-weight="normal" text-decoration="none" x="261" y="463.5">+setState()</text></g></g><g transform="translate(-222,-110) scale(1,1)"><g><path fill="none" stroke="none"/><text fill="#000000" stroke="none" font-family="Arial" font-size="13px" font-style="normal" font-weight="normal" text-decoration="none" x="261" y="478.5">+getState()</text></g></g><g transform="translate(-222,-110) scale(1,1)"><path fill="#8fbcd3" stroke="none" d="M 400 474 L 549 474 L 559 484 L 559 510 L 400 510 L 400 474"/></g><g transform="translate(-222,-110) scale(1,1)"><path fill="none" stroke="#000000" d="M 400 474 L 549 474 L 559 484 L 559 510 L 400 510 L 400 474 L 400 474" stroke-miterlimit="10"/></g><g transform="translate(-222,-110) scale(1,1)"><path fill="none" stroke="#000000" d="M 549 474 L 549 484 L 559 484 L 549 474" stroke-miterlimit="10"/></g><g transform="translate(-222,-110) scale(1,1)"><g><path fill="none" stroke="none"/><text fill="#000000" stroke="none" font-family="Arial" font-size="13px" font-style="normal" font-weight="normal" text-decoration="none" x="405" y="488">this.state = state </text><text fill="#000000" stroke="none" font-family="Arial" font-size="13px" font-style="normal" font-weight="normal" text-decoration="none" x="405" y="501">this.notifyObserver();</text></g></g><g transform="translate(-222,-110) scale(1,1)"><path fill="#8fbcd3" stroke="none" d="M 392 376 L 573 376 L 583 386 L 583 425 L 392 425 L 392 376"/></g><g transform="translate(-222,-110) scale(1,1)"><path fill="none" stroke="#000000" d="M 392 376 L 573 376 L 583 386 L 583 425 L 392 425 L 392 376 L 392 376" stroke-miterlimit="10"/></g><g transform="translate(-222,-110) scale(1,1)"><path fill="none" stroke="#000000" d="M 573 376 L 573 386 L 583 386 L 573 376" stroke-miterlimit="10"/></g><g transform="translate(-222,-110) scale(1,1)"><g><path fill="none" stroke="none"/><text fill="#000000" stroke="none" font-family="Arial" font-size="13px" font-style="normal" font-weight="normal" text-decoration="none" x="397" y="390">this.observers.forEach(</text><text fill="#000000" stroke="none" font-family="Arial" font-size="13px" font-style="normal" font-weight="normal" text-decoration="none" x="397" y="403">observer =&gt; observer.update()</text><text fill="#000000" stroke="none" font-family="Arial" font-size="13px" font-style="normal" font-weight="normal" text-decoration="none" x="397" y="416">);</text></g></g><g transform="translate(-222,-110) scale(1,1)"><path fill="none" stroke="#000000" d="M 728 248 L 728 208 L 578 208" stroke-miterlimit="10"/></g><g transform="translate(-222,-110) scale(1,1)"><path fill="#FFFFFF" stroke="none" d="M 598.3253497152483 199.58096448796803 L 578 208 L 598.3253497152483 216.41903551203197"/></g><g transform="translate(-222,-110) scale(1,1)"><path fill="none" stroke="#000000" d="M 598.3253497152483 199.58096448796803 L 578 208 L 598.3253497152483 216.41903551203197 L 598.3253497152483 199.58096448796803" stroke-miterlimit="10"/></g><g transform="translate(-222,-110) scale(1,1)"><path fill="none" stroke="#000000" d="M 864 248 L 864 208 L 578 208" stroke-miterlimit="10"/></g><g transform="translate(-222,-110) scale(1,1)"><path fill="#FFFFFF" stroke="none" d="M 598.3253497152483 199.58096448796803 L 578 208 L 598.3253497152483 216.41903551203197"/></g><g transform="translate(-222,-110) scale(1,1)"><path fill="none" stroke="#000000" d="M 598.3253497152483 199.58096448796803 L 578 208 L 598.3253497152483 216.41903551203197 L 598.3253497152483 199.58096448796803" stroke-miterlimit="10"/></g><g transform="translate(-222,-110) scale(1,1)"><path fill="none" stroke="#000000" d="M 330 399 L 353 365" stroke-miterlimit="10"/></g><g transform="translate(-222,-110) scale(1,1)"><path fill="#FFFFFF" stroke="none" d="M 348.5848636218336 386.5524144995913 L 353 365 L 334.6381686835309 377.1178855707394"/></g><g transform="translate(-222,-110) scale(1,1)"><path fill="none" stroke="#000000" d="M 348.5848636218336 386.5524144995913 L 353 365 L 334.6381686835309 377.1178855707394 L 348.5848636218336 386.5524144995913" stroke-miterlimit="10"/></g><g transform="translate(-222,-110) scale(1,1)"><path fill="none" stroke="#000000" d="M 346 442 L 728 442 L 728 440 L 726 440 L 726 318" stroke-miterlimit="10"/></g><g transform="translate(-222,-110) scale(1,1)"><path fill="#000000" stroke="none" d="M 730.209517756016 328.16267485762415 L 726 318 L 721.790482243984 328.16267485762415 L 726 340"/></g><g transform="translate(-222,-110) scale(1,1)"><path fill="none" stroke="#000000" d="M 730.209517756016 328.16267485762415 L 726 318 L 721.790482243984 328.16267485762415 L 726 340 L 730.209517756016 328.16267485762415" stroke-miterlimit="10"/></g><g transform="translate(-222,-110) scale(1,1)"><path fill="none" stroke="#000000" d="M 346 442 L 864 442 L 864 440 L 862 440 L 862 318" stroke-miterlimit="10"/></g><g transform="translate(-222,-110) scale(1,1)"><path fill="#000000" stroke="none" d="M 866.209517756016 328.16267485762415 L 862 318 L 857.790482243984 328.16267485762415 L 862 340"/></g><g transform="translate(-222,-110) scale(1,1)"><path fill="none" stroke="#000000" d="M 866.209517756016 328.16267485762415 L 862 318 L 857.790482243984 328.16267485762415 L 862 340 L 866.209517756016 328.16267485762415" stroke-miterlimit="10"/></g><g transform="translate(-222,-110) scale(1,1)"><path fill="none" stroke="#000000" d="M 458 375 L 447 365" stroke-miterlimit="10" stroke-dasharray="3"/></g><g transform="translate(-222,-110) scale(1,1)"><path fill="none" stroke="#000000" d="M 412 473 L 347 455" stroke-miterlimit="10" stroke-dasharray="3"/></g><g transform="translate(-222,-110) scale(1,1)"><path fill="none" stroke="#000000" d="M 487 238 L 454 263" stroke-miterlimit="10"/></g><g transform="translate(-222,-110) scale(1,1)"><path fill="#000000" stroke="none" d="M 459.5586386735307 253.50781710579022 L 454 263 L 464.6425379929781 260.2185642074607 L 471.5360272593882 249.71513086409982"/></g><g transform="translate(-222,-110) scale(1,1)"><path fill="none" stroke="#000000" d="M 459.5586386735307 253.50781710579022 L 454 263 L 464.6425379929781 260.2185642074607 L 471.5360272593882 249.71513086409982 L 459.5586386735307 253.50781710579022" stroke-miterlimit="10"/></g><g transform="translate(-222,-110) scale(1,1)"><path fill="none" stroke="#000000" d="M 639 282 L 593 292" stroke-miterlimit="10" stroke-dasharray="3"/></g><g transform="translate(-222,-110) scale(1,1)"><path fill="none" stroke="#000000" d="M 602.0364993053871 285.7277053398507 L 593 292 L 603.8249520248186 293.95458784923505" stroke-miterlimit="10"/></g></g></svg>
