<svg version="1.1" xmlns="http://www.w3.org/2000/svg" xmlns:xlink="http://www.w3.org/1999/xlink" width="447.181640625" height="167"><defs/><g><text fill="#eeeeee" stroke="none" font-family="Arial" font-size="24px" font-style="normal" font-weight="normal" text-decoration="none" x="0" y="0"></text><text fill="#eeeeee" stroke="none" font-family="Arial" font-size="24px" font-style="normal" font-weight="normal" text-decoration="none" x="0" y="30"></text><text fill="#eeeeee" stroke="none" font-family="Arial" font-size="24px" font-style="normal" font-weight="normal" text-decoration="none" x="0" y="60"></text><text fill="#eeeeee" stroke="none" font-family="Arial" font-size="24px" font-style="normal" font-weight="normal" text-decoration="none" x="0" y="90"></text><text fill="#eeeeee" stroke="none" font-family="Arial" font-size="24px" font-style="normal" font-weight="normal" text-decoration="none" x="0" y="120"></text><text fill="#eeeeee" stroke="none" font-family="Arial" font-size="24px" font-style="normal" font-weight="normal" text-decoration="none" x="0" y="150"></text><text fill="#eeeeee" stroke="none" font-family="Arial" font-size="24px" font-style="normal" font-weight="normal" text-decoration="none" x="200" y="0"></text><text fill="#eeeeee" stroke="none" font-family="Arial" font-size="24px" font-style="normal" font-weight="normal" text-decoration="none" x="200" y="30"></text><text fill="#eeeeee" stroke="none" font-family="Arial" font-size="24px" font-style="normal" font-weight="normal" text-decoration="none" x="200" y="60"></text><text fill="#eeeeee" stroke="none" font-family="Arial" font-size="24px" font-style="normal" font-weight="normal" text-decoration="none" x="200" y="90"></text><text fill="#eeeeee" stroke="none" font-family="Arial" font-size="24px" font-style="normal" font-weight="normal" text-decoration="none" x="200" y="120"></text><text fill="#eeeeee" stroke="none" font-family="Arial" font-size="24px" font-style="normal" font-weight="normal" text-decoration="none" x="200" y="150"></text><text fill="#eeeeee" stroke="none" font-family="Arial" font-size="24px" font-style="normal" font-weight="normal" text-decoration="none" x="400" y="0"></text><text fill="#eeeeee" stroke="none" font-family="Arial" font-size="24px" font-style="normal" font-weight="normal" text-decoration="none" x="400" y="30"></text><text fill="#eeeeee" stroke="none" font-family="Arial" font-size="24px" font-style="normal" font-weight="normal" text-decoration="none" x="400" y="60"></text><text fill="#eeeeee" stroke="none" font-family="Arial" font-size="24px" font-style="normal" font-weight="normal" text-decoration="none" x="400" y="90"></text><text fill="#eeeeee" stroke="none" font-family="Arial" font-size="24px" font-style="normal" font-weight="normal" text-decoration="none" x="400" y="120"></text><text fill="#eeeeee" stroke="none" font-family="Arial" font-size="24px" font-style="normal" font-weight="normal" text-decoration="none" x="400" y="150"></text><g transform="translate(-166,-146) scale(1,1)"><rect fill="#C0C0C0" stroke="none" x="343" y="183" width="116.30712890625" height="100" opacity="0.2"/></g><g transform="translate(-166,-146) scale(1,1)"><rect fill="#8fbcd3" stroke="none" x="336" y="176" width="116.30712890625" height="100"/></g><g transform="translate(-166,-146) scale(1,1)"><path fill="none" stroke="#000000" d="M 336 176 L 452.30712890625 176 L 452.30712890625 276 L 336 276 L 336 176 Z Z" stroke-miterlimit="10"/></g><g transform="translate(-166,-146) scale(1,1)"><path fill="none" stroke="#000000" d="M 336 201 L 452.30712890625 201" stroke-miterlimit="10"/></g><g transform="translate(-166,-146) scale(1,1)"><path fill="none" stroke="#000000" d="M 336 239 L 452.30712890625 239" stroke-miterlimit="10"/></g><g transform="translate(-166,-146) scale(1,1)"><g><path fill="none" stroke="none"/><text fill="#000000" stroke="none" font-family="Arial" font-size="13px" font-style="normal" font-weight="bold" text-decoration="none" x="364.544921875" y="193.5">Singleton</text></g></g><g transform="translate(-166,-146) scale(1,1)"><g><path fill="none" stroke="none"/><text fill="#000000" stroke="none" font-family="Arial" font-size="13px" font-style="normal" font-weight="normal" text-decoration="none" x="341" y="216.5">-uniqueInstance</text><path fill="none" stroke="#000000" d="M 341 218.5 L 433.5107421875 218.5" stroke-miterlimit="10"/></g></g><g transform="translate(-166,-146) scale(1,1)"><g><path fill="none" stroke="none"/><text fill="#000000" stroke="none" font-family="Arial" font-size="13px" font-style="normal" font-weight="normal" text-decoration="none" x="341" y="231.5">-singletonData</text></g></g><g transform="translate(-166,-146) scale(1,1)"><g><path fill="none" stroke="none"/><text fill="#000000" stroke="none" font-family="Arial" font-size="13px" font-style="normal" font-weight="normal" text-decoration="none" x="341" y="254.5">+instance()</text><path fill="none" stroke="#000000" d="M 341 256.5 L 405.669921875 256.5" stroke-miterlimit="10"/></g></g><g transform="translate(-166,-146) scale(1,1)"><g><path fill="none" stroke="none"/><text fill="#000000" stroke="none" font-family="Arial" font-size="13px" font-style="normal" font-weight="normal" text-decoration="none" x="341" y="269.5">+singleOperation()</text></g></g><g transform="translate(-166,-146) scale(1,1)"><path fill="none" stroke="#000000" d="M 394 176 L 394 156 L 482 156 L 482 226 L 452 226" stroke-miterlimit="10"/></g><g transform="translate(-166,-146) scale(1,1)"><path fill="none" stroke="#000000" d="M 462.16267485762415 221.790482243984 L 452 226 L 462.16267485762415 230.209517756016" stroke-miterlimit="10"/></g><g transform="translate(-166,-146) scale(1,1)"><rect fill="#C0C0C0" stroke="none" x="183" y="207" width="50.919921875" height="44" opacity="0.2"/></g><g transform="translate(-166,-146) scale(1,1)"><rect fill="#8fbcd3" stroke="none" x="176" y="200" width="50.919921875" height="44"/></g><g transform="translate(-166,-146) scale(1,1)"><path fill="none" stroke="#000000" d="M 176 200 L 226.919921875 200 L 226.919921875 244 L 176 244 L 176 200 Z Z" stroke-miterlimit="10"/></g><g transform="translate(-166,-146) scale(1,1)"><path fill="none" stroke="#000000" d="M 176 225 L 226.919921875 225" stroke-miterlimit="10"/></g><g transform="translate(-166,-146) scale(1,1)"><path fill="none" stroke="#000000" d="M 176 235 L 226.919921875 235" stroke-miterlimit="10"/></g><g transform="translate(-166,-146) scale(1,1)"><g><path fill="none" stroke="none"/><text fill="#000000" stroke="none" font-family="Arial" font-size="13px" font-style="normal" font-weight="bold" text-decoration="none" x="183.404052734375" y="217.5">Client</text></g></g><g transform="translate(-166,-146) scale(1,1)"><path fill="none" stroke="#000000" d="M 228 223 L 335 225" stroke-miterlimit="10"/></g><g transform="translate(-166,-146) scale(1,1)"><path fill="none" stroke="#000000" d="M 324.76043113849084 229.0188592324704 L 335 225 L 324.9177688056863 220.60129403751424" stroke-miterlimit="10"/></g><g transform="translate(-166,-146) scale(1,1)"><path fill="#8fbcd3" stroke="none" d="M 496 264 L 592.181640625 264 L 602.181640625 274 L 602.181640625 302 L 496 302 L 496 264"/></g><g transform="translate(-166,-146) scale(1,1)"><path fill="none" stroke="#000000" d="M 496 264 L 592.181640625 264 L 602.181640625 274 L 602.181640625 302 L 496 302 L 496 264 L 496 264" stroke-miterlimit="10"/></g><g transform="translate(-166,-146) scale(1,1)"><path fill="none" stroke="#000000" d="M 592.181640625 264 L 592.181640625 274 L 602.181640625 274 L 592.181640625 264" stroke-miterlimit="10"/></g><g transform="translate(-166,-146) scale(1,1)"><g><path fill="none" stroke="none"/><text fill="#000000" stroke="none" font-family="Arial" font-size="13px" font-style="normal" font-weight="normal" text-decoration="none" x="501" y="278">return</text><text fill="#000000" stroke="none" font-family="Arial" font-size="13px" font-style="normal" font-weight="normal" text-decoration="none" x="501" y="291">uniqueInstance</text></g></g><g transform="translate(-166,-146) scale(1,1)"><path fill="none" stroke="#000000" d="M 495 263 L 453 248" stroke-miterlimit="10" stroke-dasharray="3"/></g></g></svg>
