<svg version="1.1" xmlns="http://www.w3.org/2000/svg" xmlns:xlink="http://www.w3.org/1999/xlink" width="469.10888671875" height="245"><defs/><g><text fill="#eeeeee" stroke="none" font-family="Arial" font-size="24px" font-style="normal" font-weight="normal" text-decoration="none" x="0" y="0"></text><text fill="#eeeeee" stroke="none" font-family="Arial" font-size="24px" font-style="normal" font-weight="normal" text-decoration="none" x="0" y="30"></text><text fill="#eeeeee" stroke="none" font-family="Arial" font-size="24px" font-style="normal" font-weight="normal" text-decoration="none" x="0" y="60"></text><text fill="#eeeeee" stroke="none" font-family="Arial" font-size="24px" font-style="normal" font-weight="normal" text-decoration="none" x="0" y="90"></text><text fill="#eeeeee" stroke="none" font-family="Arial" font-size="24px" font-style="normal" font-weight="normal" text-decoration="none" x="0" y="120"></text><text fill="#eeeeee" stroke="none" font-family="Arial" font-size="24px" font-style="normal" font-weight="normal" text-decoration="none" x="0" y="150"></text><text fill="#eeeeee" stroke="none" font-family="Arial" font-size="24px" font-style="normal" font-weight="normal" text-decoration="none" x="0" y="180"></text><text fill="#eeeeee" stroke="none" font-family="Arial" font-size="24px" font-style="normal" font-weight="normal" text-decoration="none" x="0" y="210"></text><text fill="#eeeeee" stroke="none" font-family="Arial" font-size="24px" font-style="normal" font-weight="normal" text-decoration="none" x="0" y="240"></text><text fill="#eeeeee" stroke="none" font-family="Arial" font-size="24px" font-style="normal" font-weight="normal" text-decoration="none" x="200" y="0"></text><text fill="#eeeeee" stroke="none" font-family="Arial" font-size="24px" font-style="normal" font-weight="normal" text-decoration="none" x="200" y="30"></text><text fill="#eeeeee" stroke="none" font-family="Arial" font-size="24px" font-style="normal" font-weight="normal" text-decoration="none" x="200" y="60"></text><text fill="#eeeeee" stroke="none" font-family="Arial" font-size="24px" font-style="normal" font-weight="normal" text-decoration="none" x="200" y="90"></text><text fill="#eeeeee" stroke="none" font-family="Arial" font-size="24px" font-style="normal" font-weight="normal" text-decoration="none" x="200" y="120"></text><text fill="#eeeeee" stroke="none" font-family="Arial" font-size="24px" font-style="normal" font-weight="normal" text-decoration="none" x="200" y="150"></text><text fill="#eeeeee" stroke="none" font-family="Arial" font-size="24px" font-style="normal" font-weight="normal" text-decoration="none" x="200" y="180"></text><text fill="#eeeeee" stroke="none" font-family="Arial" font-size="24px" font-style="normal" font-weight="normal" text-decoration="none" x="200" y="210"></text><text fill="#eeeeee" stroke="none" font-family="Arial" font-size="24px" font-style="normal" font-weight="normal" text-decoration="none" x="200" y="240"></text><text fill="#eeeeee" stroke="none" font-family="Arial" font-size="24px" font-style="normal" font-weight="normal" text-decoration="none" x="400" y="0"></text><text fill="#eeeeee" stroke="none" font-family="Arial" font-size="24px" font-style="normal" font-weight="normal" text-decoration="none" x="400" y="30"></text><text fill="#eeeeee" stroke="none" font-family="Arial" font-size="24px" font-style="normal" font-weight="normal" text-decoration="none" x="400" y="60"></text><text fill="#eeeeee" stroke="none" font-family="Arial" font-size="24px" font-style="normal" font-weight="normal" text-decoration="none" x="400" y="90"></text><text fill="#eeeeee" stroke="none" font-family="Arial" font-size="24px" font-style="normal" font-weight="normal" text-decoration="none" x="400" y="120"></text><text fill="#eeeeee" stroke="none" font-family="Arial" font-size="24px" font-style="normal" font-weight="normal" text-decoration="none" x="400" y="150"></text><text fill="#eeeeee" stroke="none" font-family="Arial" font-size="24px" font-style="normal" font-weight="normal" text-decoration="none" x="400" y="180"></text><text fill="#eeeeee" stroke="none" font-family="Arial" font-size="24px" font-style="normal" font-weight="normal" text-decoration="none" x="400" y="210"></text><text fill="#eeeeee" stroke="none" font-family="Arial" font-size="24px" font-style="normal" font-weight="normal" text-decoration="none" x="400" y="240"></text><g transform="translate(-374,-630) scale(1,1)"><rect fill="#C0C0C0" stroke="none" x="583" y="647" width="161.10888671875" height="72" opacity="0.2"/></g><g transform="translate(-374,-630) scale(1,1)"><rect fill="#8fbcd3" stroke="none" x="576" y="640" width="161.10888671875" height="72"/></g><g transform="translate(-374,-630) scale(1,1)"><path fill="none" stroke="#000000" d="M 576 640 L 737.10888671875 640 L 737.10888671875 712 L 576 712 L 576 640 Z Z" stroke-miterlimit="10"/></g><g transform="translate(-374,-630) scale(1,1)"><path fill="none" stroke="#000000" d="M 576 665 L 737.10888671875 665" stroke-miterlimit="10"/></g><g transform="translate(-374,-630) scale(1,1)"><path fill="none" stroke="#000000" d="M 576 675 L 737.10888671875 675" stroke-miterlimit="10"/></g><g transform="translate(-374,-630) scale(1,1)"><g><path fill="none" stroke="none"/><text fill="#000000" stroke="none" font-family="Arial" font-size="13px" font-style="normal" font-weight="bold" text-decoration="none" x="640.659912109375" y="657.5">State</text></g></g><g transform="translate(-374,-630) scale(1,1)"><g><path fill="none" stroke="none"/><text fill="#000000" stroke="none" font-family="Arial" font-size="13px" font-style="italic" font-weight="normal" text-decoration="none" x="581" y="690.5">+action1(context: Context)</text></g></g><g transform="translate(-374,-630) scale(1,1)"><g><path fill="none" stroke="none"/><text fill="#000000" stroke="none" font-family="Arial" font-size="13px" font-style="italic" font-weight="normal" text-decoration="none" x="581" y="705.5">+action2(context: Context)</text></g></g><g transform="translate(-374,-630) scale(1,1)"><rect fill="#C0C0C0" stroke="none" x="391" y="655" width="57.38818359375" height="44" opacity="0.2"/></g><g transform="translate(-374,-630) scale(1,1)"><rect fill="#8fbcd3" stroke="none" x="384" y="648" width="57.38818359375" height="44"/></g><g transform="translate(-374,-630) scale(1,1)"><path fill="none" stroke="#000000" d="M 384 648 L 441.38818359375 648 L 441.38818359375 692 L 384 692 L 384 648 Z Z" stroke-miterlimit="10"/></g><g transform="translate(-374,-630) scale(1,1)"><path fill="none" stroke="#000000" d="M 384 673 L 441.38818359375 673" stroke-miterlimit="10"/></g><g transform="translate(-374,-630) scale(1,1)"><path fill="none" stroke="#000000" d="M 384 683 L 441.38818359375 683" stroke-miterlimit="10"/></g><g transform="translate(-374,-630) scale(1,1)"><g><path fill="none" stroke="none"/><text fill="#000000" stroke="none" font-family="Arial" font-size="13px" font-style="normal" font-weight="bold" text-decoration="none" x="388.5" y="665.5">Context</text></g></g><g transform="translate(-374,-630) scale(1,1)"><rect fill="#C0C0C0" stroke="none" x="471" y="775" width="161.10888671875" height="72" opacity="0.2"/></g><g transform="translate(-374,-630) scale(1,1)"><rect fill="#8fbcd3" stroke="none" x="464" y="768" width="161.10888671875" height="72"/></g><g transform="translate(-374,-630) scale(1,1)"><path fill="none" stroke="#000000" d="M 464 768 L 625.10888671875 768 L 625.10888671875 840 L 464 840 L 464 768 Z Z" stroke-miterlimit="10"/></g><g transform="translate(-374,-630) scale(1,1)"><path fill="none" stroke="#000000" d="M 464 793 L 625.10888671875 793" stroke-miterlimit="10"/></g><g transform="translate(-374,-630) scale(1,1)"><path fill="none" stroke="#000000" d="M 464 803 L 625.10888671875 803" stroke-miterlimit="10"/></g><g transform="translate(-374,-630) scale(1,1)"><g><path fill="none" stroke="none"/><text fill="#000000" stroke="none" font-family="Arial" font-size="13px" font-style="normal" font-weight="bold" text-decoration="none" x="523.9658203125" y="785.5">StateA</text></g></g><g transform="translate(-374,-630) scale(1,1)"><g><path fill="none" stroke="none"/><text fill="#000000" stroke="none" font-family="Arial" font-size="13px" font-style="normal" font-weight="normal" text-decoration="none" x="469" y="818.5">+action1(context: Context)</text></g></g><g transform="translate(-374,-630) scale(1,1)"><g><path fill="none" stroke="none"/><text fill="#000000" stroke="none" font-family="Arial" font-size="13px" font-style="normal" font-weight="normal" text-decoration="none" x="469" y="833.5">+action2(context: Context)</text></g></g><g transform="translate(-374,-630) scale(1,1)"><rect fill="#C0C0C0" stroke="none" x="679" y="775" width="161.10888671875" height="72" opacity="0.2"/></g><g transform="translate(-374,-630) scale(1,1)"><rect fill="#8fbcd3" stroke="none" x="672" y="768" width="161.10888671875" height="72"/></g><g transform="translate(-374,-630) scale(1,1)"><path fill="none" stroke="#000000" d="M 672 768 L 833.10888671875 768 L 833.10888671875 840 L 672 840 L 672 768 Z Z" stroke-miterlimit="10"/></g><g transform="translate(-374,-630) scale(1,1)"><path fill="none" stroke="#000000" d="M 672 793 L 833.10888671875 793" stroke-miterlimit="10"/></g><g transform="translate(-374,-630) scale(1,1)"><path fill="none" stroke="#000000" d="M 672 803 L 833.10888671875 803" stroke-miterlimit="10"/></g><g transform="translate(-374,-630) scale(1,1)"><g><path fill="none" stroke="none"/><text fill="#000000" stroke="none" font-family="Arial" font-size="13px" font-style="normal" font-weight="bold" text-decoration="none" x="731.9658203125" y="785.5">StateB</text></g></g><g transform="translate(-374,-630) scale(1,1)"><g><path fill="none" stroke="none"/><text fill="#000000" stroke="none" font-family="Arial" font-size="13px" font-style="normal" font-weight="normal" text-decoration="none" x="677" y="818.5">+action1(context: Context)</text></g></g><g transform="translate(-374,-630) scale(1,1)"><g><path fill="none" stroke="none"/><text fill="#000000" stroke="none" font-family="Arial" font-size="13px" font-style="normal" font-weight="normal" text-decoration="none" x="677" y="833.5">+action2(context: Context)</text></g></g><g transform="translate(-374,-630) scale(1,1)"><path fill="none" stroke="#000000" d="M 624 768 L 624 712" stroke-miterlimit="10"/></g><g transform="translate(-374,-630) scale(1,1)"><path fill="#FFFFFF" stroke="none" d="M 632.419035512032 732.3253497152483 L 624 712 L 615.580964487968 732.3253497152483"/></g><g transform="translate(-374,-630) scale(1,1)"><path fill="none" stroke="#000000" d="M 632.419035512032 732.3253497152483 L 624 712 L 615.580964487968 732.3253497152483 L 632.419035512032 732.3253497152483" stroke-miterlimit="10"/></g><g transform="translate(-374,-630) scale(1,1)"><path fill="none" stroke="#000000" d="M 684 768 L 684 712" stroke-miterlimit="10"/></g><g transform="translate(-374,-630) scale(1,1)"><path fill="#FFFFFF" stroke="none" d="M 692.419035512032 732.3253497152483 L 684 712 L 675.580964487968 732.3253497152483"/></g><g transform="translate(-374,-630) scale(1,1)"><path fill="none" stroke="#000000" d="M 692.419035512032 732.3253497152483 L 684 712 L 675.580964487968 732.3253497152483 L 692.419035512032 732.3253497152483" stroke-miterlimit="10"/></g><g transform="translate(-374,-630) scale(1,1)"><path fill="none" stroke="#000000" d="M 576 674 L 441 674" stroke-miterlimit="10"/></g><g transform="translate(-374,-630) scale(1,1)"><path fill="#000000" stroke="none" d="M 451.16267485762415 669.790482243984 L 441 674 L 451.16267485762415 678.209517756016 L 463 674"/></g><g transform="translate(-374,-630) scale(1,1)"><path fill="none" stroke="#000000" d="M 451.16267485762415 669.790482243984 L 441 674 L 451.16267485762415 678.209517756016 L 463 674 L 451.16267485762415 669.790482243984" stroke-miterlimit="10"/></g><g transform="translate(-374,-630) scale(1,1)"><path fill="none" stroke="#000000" d="M 544 840 L 544 864 L 412 864 L 412 692" stroke-miterlimit="10" stroke-dasharray="3"/></g><g transform="translate(-374,-630) scale(1,1)"><path fill="none" stroke="#000000" d="M 416.209517756016 702.1626748576241 L 412 692 L 407.790482243984 702.1626748576241" stroke-miterlimit="10"/></g><g transform="translate(-374,-630) scale(1,1)"><path fill="none" stroke="#000000" d="M 752 840 L 752 864 L 412 864 L 412 692" stroke-miterlimit="10" stroke-dasharray="3"/></g><g transform="translate(-374,-630) scale(1,1)"><path fill="none" stroke="#000000" d="M 416.209517756016 702.1626748576241 L 412 692 L 407.790482243984 702.1626748576241" stroke-miterlimit="10"/></g></g></svg>
