<svg version="1.1" xmlns="http://www.w3.org/2000/svg" xmlns:xlink="http://www.w3.org/1999/xlink" width="906.8134765625" height="308"><defs/><g><text fill="#eeeeee" stroke="none" font-family="Arial" font-size="24px" font-style="normal" font-weight="normal" text-decoration="none" x="0" y="0"></text><text fill="#eeeeee" stroke="none" font-family="Arial" font-size="24px" font-style="normal" font-weight="normal" text-decoration="none" x="0" y="30"></text><text fill="#eeeeee" stroke="none" font-family="Arial" font-size="24px" font-style="normal" font-weight="normal" text-decoration="none" x="0" y="60"></text><text fill="#eeeeee" stroke="none" font-family="Arial" font-size="24px" font-style="normal" font-weight="normal" text-decoration="none" x="0" y="90"></text><text fill="#eeeeee" stroke="none" font-family="Arial" font-size="24px" font-style="normal" font-weight="normal" text-decoration="none" x="0" y="120"></text><text fill="#eeeeee" stroke="none" font-family="Arial" font-size="24px" font-style="normal" font-weight="normal" text-decoration="none" x="0" y="150"></text><text fill="#eeeeee" stroke="none" font-family="Arial" font-size="24px" font-style="normal" font-weight="normal" text-decoration="none" x="0" y="180"></text><text fill="#eeeeee" stroke="none" font-family="Arial" font-size="24px" font-style="normal" font-weight="normal" text-decoration="none" x="0" y="210"></text><text fill="#eeeeee" stroke="none" font-family="Arial" font-size="24px" font-style="normal" font-weight="normal" text-decoration="none" x="0" y="240"></text><text fill="#eeeeee" stroke="none" font-family="Arial" font-size="24px" font-style="normal" font-weight="normal" text-decoration="none" x="0" y="270"></text><text fill="#eeeeee" stroke="none" font-family="Arial" font-size="24px" font-style="normal" font-weight="normal" text-decoration="none" x="0" y="300"></text><text fill="#eeeeee" stroke="none" font-family="Arial" font-size="24px" font-style="normal" font-weight="normal" text-decoration="none" x="200" y="0"></text><text fill="#eeeeee" stroke="none" font-family="Arial" font-size="24px" font-style="normal" font-weight="normal" text-decoration="none" x="200" y="30"></text><text fill="#eeeeee" stroke="none" font-family="Arial" font-size="24px" font-style="normal" font-weight="normal" text-decoration="none" x="200" y="60"></text><text fill="#eeeeee" stroke="none" font-family="Arial" font-size="24px" font-style="normal" font-weight="normal" text-decoration="none" x="200" y="90"></text><text fill="#eeeeee" stroke="none" font-family="Arial" font-size="24px" font-style="normal" font-weight="normal" text-decoration="none" x="200" y="120"></text><text fill="#eeeeee" stroke="none" font-family="Arial" font-size="24px" font-style="normal" font-weight="normal" text-decoration="none" x="200" y="150"></text><text fill="#eeeeee" stroke="none" font-family="Arial" font-size="24px" font-style="normal" font-weight="normal" text-decoration="none" x="200" y="180"></text><text fill="#eeeeee" stroke="none" font-family="Arial" font-size="24px" font-style="normal" font-weight="normal" text-decoration="none" x="200" y="210"></text><text fill="#eeeeee" stroke="none" font-family="Arial" font-size="24px" font-style="normal" font-weight="normal" text-decoration="none" x="200" y="240"></text><text fill="#eeeeee" stroke="none" font-family="Arial" font-size="24px" font-style="normal" font-weight="normal" text-decoration="none" x="200" y="270"></text><text fill="#eeeeee" stroke="none" font-family="Arial" font-size="24px" font-style="normal" font-weight="normal" text-decoration="none" x="200" y="300"></text><text fill="#eeeeee" stroke="none" font-family="Arial" font-size="24px" font-style="normal" font-weight="normal" text-decoration="none" x="400" y="0"></text><text fill="#eeeeee" stroke="none" font-family="Arial" font-size="24px" font-style="normal" font-weight="normal" text-decoration="none" x="400" y="30"></text><text fill="#eeeeee" stroke="none" font-family="Arial" font-size="24px" font-style="normal" font-weight="normal" text-decoration="none" x="400" y="60"></text><text fill="#eeeeee" stroke="none" font-family="Arial" font-size="24px" font-style="normal" font-weight="normal" text-decoration="none" x="400" y="90"></text><text fill="#eeeeee" stroke="none" font-family="Arial" font-size="24px" font-style="normal" font-weight="normal" text-decoration="none" x="400" y="120"></text><text fill="#eeeeee" stroke="none" font-family="Arial" font-size="24px" font-style="normal" font-weight="normal" text-decoration="none" x="400" y="150"></text><text fill="#eeeeee" stroke="none" font-family="Arial" font-size="24px" font-style="normal" font-weight="normal" text-decoration="none" x="400" y="180"></text><text fill="#eeeeee" stroke="none" font-family="Arial" font-size="24px" font-style="normal" font-weight="normal" text-decoration="none" x="400" y="210"></text><text fill="#eeeeee" stroke="none" font-family="Arial" font-size="24px" font-style="normal" font-weight="normal" text-decoration="none" x="400" y="240"></text><text fill="#eeeeee" stroke="none" font-family="Arial" font-size="24px" font-style="normal" font-weight="normal" text-decoration="none" x="400" y="270"></text><text fill="#eeeeee" stroke="none" font-family="Arial" font-size="24px" font-style="normal" font-weight="normal" text-decoration="none" x="400" y="300"></text><text fill="#eeeeee" stroke="none" font-family="Arial" font-size="24px" font-style="normal" font-weight="normal" text-decoration="none" x="600" y="0"></text><text fill="#eeeeee" stroke="none" font-family="Arial" font-size="24px" font-style="normal" font-weight="normal" text-decoration="none" x="600" y="30"></text><text fill="#eeeeee" stroke="none" font-family="Arial" font-size="24px" font-style="normal" font-weight="normal" text-decoration="none" x="600" y="60"></text><text fill="#eeeeee" stroke="none" font-family="Arial" font-size="24px" font-style="normal" font-weight="normal" text-decoration="none" x="600" y="90"></text><text fill="#eeeeee" stroke="none" font-family="Arial" font-size="24px" font-style="normal" font-weight="normal" text-decoration="none" x="600" y="120"></text><text fill="#eeeeee" stroke="none" font-family="Arial" font-size="24px" font-style="normal" font-weight="normal" text-decoration="none" x="600" y="150"></text><text fill="#eeeeee" stroke="none" font-family="Arial" font-size="24px" font-style="normal" font-weight="normal" text-decoration="none" x="600" y="180"></text><text fill="#eeeeee" stroke="none" font-family="Arial" font-size="24px" font-style="normal" font-weight="normal" text-decoration="none" x="600" y="210"></text><text fill="#eeeeee" stroke="none" font-family="Arial" font-size="24px" font-style="normal" font-weight="normal" text-decoration="none" x="600" y="240"></text><text fill="#eeeeee" stroke="none" font-family="Arial" font-size="24px" font-style="normal" font-weight="normal" text-decoration="none" x="600" y="270"></text><text fill="#eeeeee" stroke="none" font-family="Arial" font-size="24px" font-style="normal" font-weight="normal" text-decoration="none" x="600" y="300"></text><text fill="#eeeeee" stroke="none" font-family="Arial" font-size="24px" font-style="normal" font-weight="normal" text-decoration="none" x="800" y="0"></text><text fill="#eeeeee" stroke="none" font-family="Arial" font-size="24px" font-style="normal" font-weight="normal" text-decoration="none" x="800" y="30"></text><text fill="#eeeeee" stroke="none" font-family="Arial" font-size="24px" font-style="normal" font-weight="normal" text-decoration="none" x="800" y="60"></text><text fill="#eeeeee" stroke="none" font-family="Arial" font-size="24px" font-style="normal" font-weight="normal" text-decoration="none" x="800" y="90"></text><text fill="#eeeeee" stroke="none" font-family="Arial" font-size="24px" font-style="normal" font-weight="normal" text-decoration="none" x="800" y="120"></text><text fill="#eeeeee" stroke="none" font-family="Arial" font-size="24px" font-style="normal" font-weight="normal" text-decoration="none" x="800" y="150"></text><text fill="#eeeeee" stroke="none" font-family="Arial" font-size="24px" font-style="normal" font-weight="normal" text-decoration="none" x="800" y="180"></text><text fill="#eeeeee" stroke="none" font-family="Arial" font-size="24px" font-style="normal" font-weight="normal" text-decoration="none" x="800" y="210"></text><text fill="#eeeeee" stroke="none" font-family="Arial" font-size="24px" font-style="normal" font-weight="normal" text-decoration="none" x="800" y="240"></text><text fill="#eeeeee" stroke="none" font-family="Arial" font-size="24px" font-style="normal" font-weight="normal" text-decoration="none" x="800" y="270"></text><text fill="#eeeeee" stroke="none" font-family="Arial" font-size="24px" font-style="normal" font-weight="normal" text-decoration="none" x="800" y="300"></text><g transform="translate(-294,-158) scale(1,1)"><rect fill="#C0C0C0" stroke="none" x="423" y="239" width="140.60595703125" height="57" opacity="0.2"/></g><g transform="translate(-294,-158) scale(1,1)"><rect fill="#8fbcd3" stroke="none" x="416" y="232" width="140.60595703125" height="57"/></g><g transform="translate(-294,-158) scale(1,1)"><path fill="none" stroke="#000000" d="M 416 232 L 556.60595703125 232 L 556.60595703125 289 L 416 289 L 416 232 Z Z" stroke-miterlimit="10"/></g><g transform="translate(-294,-158) scale(1,1)"><path fill="none" stroke="#000000" d="M 416 257 L 556.60595703125 257" stroke-miterlimit="10"/></g><g transform="translate(-294,-158) scale(1,1)"><path fill="none" stroke="#000000" d="M 416 267 L 556.60595703125 267" stroke-miterlimit="10"/></g><g transform="translate(-294,-158) scale(1,1)"><g><path fill="none" stroke="none"/><text fill="#000000" stroke="none" font-family="Arial" font-size="13px" font-style="normal" font-weight="bold" text-decoration="none" x="461.01708984375" y="249.5">Element</text></g></g><g transform="translate(-294,-158) scale(1,1)"><g><path fill="none" stroke="none"/><text fill="#000000" stroke="none" font-family="Arial" font-size="13px" font-style="italic" font-weight="normal" text-decoration="none" x="421" y="282.5">+accept(visitor: Visitor)</text></g></g><g transform="translate(-294,-158) scale(1,1)"><rect fill="#C0C0C0" stroke="none" x="335" y="343" width="140.60595703125" height="57" opacity="0.2"/></g><g transform="translate(-294,-158) scale(1,1)"><rect fill="#8fbcd3" stroke="none" x="328" y="336" width="140.60595703125" height="57"/></g><g transform="translate(-294,-158) scale(1,1)"><path fill="none" stroke="#000000" d="M 328 336 L 468.60595703125 336 L 468.60595703125 393 L 328 393 L 328 336 Z Z" stroke-miterlimit="10"/></g><g transform="translate(-294,-158) scale(1,1)"><path fill="none" stroke="#000000" d="M 328 361 L 468.60595703125 361" stroke-miterlimit="10"/></g><g transform="translate(-294,-158) scale(1,1)"><path fill="none" stroke="#000000" d="M 328 371 L 468.60595703125 371" stroke-miterlimit="10"/></g><g transform="translate(-294,-158) scale(1,1)"><g><path fill="none" stroke="none"/><text fill="#000000" stroke="none" font-family="Arial" font-size="13px" font-style="normal" font-weight="bold" text-decoration="none" x="368.322998046875" y="353.5">ElementA</text></g></g><g transform="translate(-294,-158) scale(1,1)"><g><path fill="none" stroke="none"/><text fill="#000000" stroke="none" font-family="Arial" font-size="13px" font-style="normal" font-weight="normal" text-decoration="none" x="333" y="386.5">+accept(visitor: Visitor)</text></g></g><g transform="translate(-294,-158) scale(1,1)"><rect fill="#C0C0C0" stroke="none" x="519" y="343" width="140.60595703125" height="57" opacity="0.2"/></g><g transform="translate(-294,-158) scale(1,1)"><rect fill="#8fbcd3" stroke="none" x="512" y="336" width="140.60595703125" height="57"/></g><g transform="translate(-294,-158) scale(1,1)"><path fill="none" stroke="#000000" d="M 512 336 L 652.60595703125 336 L 652.60595703125 393 L 512 393 L 512 336 Z Z" stroke-miterlimit="10"/></g><g transform="translate(-294,-158) scale(1,1)"><path fill="none" stroke="#000000" d="M 512 361 L 652.60595703125 361" stroke-miterlimit="10"/></g><g transform="translate(-294,-158) scale(1,1)"><path fill="none" stroke="#000000" d="M 512 371 L 652.60595703125 371" stroke-miterlimit="10"/></g><g transform="translate(-294,-158) scale(1,1)"><g><path fill="none" stroke="none"/><text fill="#000000" stroke="none" font-family="Arial" font-size="13px" font-style="normal" font-weight="bold" text-decoration="none" x="552.322998046875" y="353.5">ElementB</text></g></g><g transform="translate(-294,-158) scale(1,1)"><g><path fill="none" stroke="none"/><text fill="#000000" stroke="none" font-family="Arial" font-size="13px" font-style="normal" font-weight="normal" text-decoration="none" x="517" y="386.5">+accept(visitor: Visitor)</text></g></g><g transform="translate(-294,-158) scale(1,1)"><rect fill="#C0C0C0" stroke="none" x="631" y="175" width="78.83056640625" height="44" opacity="0.2"/></g><g transform="translate(-294,-158) scale(1,1)"><rect fill="#8fbcd3" stroke="none" x="624" y="168" width="78.83056640625" height="44"/></g><g transform="translate(-294,-158) scale(1,1)"><path fill="none" stroke="#000000" d="M 624 168 L 702.83056640625 168 L 702.83056640625 212 L 624 212 L 624 168 Z Z" stroke-miterlimit="10"/></g><g transform="translate(-294,-158) scale(1,1)"><path fill="none" stroke="#000000" d="M 624 193 L 702.83056640625 193" stroke-miterlimit="10"/></g><g transform="translate(-294,-158) scale(1,1)"><path fill="none" stroke="#000000" d="M 624 203 L 702.83056640625 203" stroke-miterlimit="10"/></g><g transform="translate(-294,-158) scale(1,1)"><g><path fill="none" stroke="none"/><text fill="#000000" stroke="none" font-family="Arial" font-size="13px" font-style="normal" font-weight="bold" text-decoration="none" x="628.5" y="185.5">VisitorMain</text></g></g><g transform="translate(-294,-158) scale(1,1)"><rect fill="#C0C0C0" stroke="none" x="911" y="231" width="174.8134765625" height="72" opacity="0.2"/></g><g transform="translate(-294,-158) scale(1,1)"><rect fill="#8fbcd3" stroke="none" x="904" y="224" width="174.8134765625" height="72"/></g><g transform="translate(-294,-158) scale(1,1)"><path fill="none" stroke="#000000" d="M 904 224 L 1078.8134765625 224 L 1078.8134765625 296 L 904 296 L 904 224 Z Z" stroke-miterlimit="10"/></g><g transform="translate(-294,-158) scale(1,1)"><path fill="none" stroke="#000000" d="M 904 249 L 1078.8134765625 249" stroke-miterlimit="10"/></g><g transform="translate(-294,-158) scale(1,1)"><path fill="none" stroke="#000000" d="M 904 259 L 1078.8134765625 259" stroke-miterlimit="10"/></g><g transform="translate(-294,-158) scale(1,1)"><g><path fill="none" stroke="none"/><text fill="#000000" stroke="none" font-family="Arial" font-size="13px" font-style="normal" font-weight="bold" text-decoration="none" x="971.29736328125" y="241.5">Visitor</text></g></g><g transform="translate(-294,-158) scale(1,1)"><g><path fill="none" stroke="none"/><text fill="#000000" stroke="none" font-family="Arial" font-size="13px" font-style="normal" font-weight="normal" text-decoration="none" x="909" y="274.5">+visitElementA(a: ElementA)</text></g></g><g transform="translate(-294,-158) scale(1,1)"><g><path fill="none" stroke="none"/><text fill="#000000" stroke="none" font-family="Arial" font-size="13px" font-style="normal" font-weight="normal" text-decoration="none" x="909" y="289.5">+visitElementB(b: ElementA)</text></g></g><g transform="translate(-294,-158) scale(1,1)"><rect fill="#C0C0C0" stroke="none" x="815" y="343" width="174.8134765625" height="72" opacity="0.2"/></g><g transform="translate(-294,-158) scale(1,1)"><rect fill="#8fbcd3" stroke="none" x="808" y="336" width="174.8134765625" height="72"/></g><g transform="translate(-294,-158) scale(1,1)"><path fill="none" stroke="#000000" d="M 808 336 L 982.8134765625 336 L 982.8134765625 408 L 808 408 L 808 336 Z Z" stroke-miterlimit="10"/></g><g transform="translate(-294,-158) scale(1,1)"><path fill="none" stroke="#000000" d="M 808 361 L 982.8134765625 361" stroke-miterlimit="10"/></g><g transform="translate(-294,-158) scale(1,1)"><path fill="none" stroke="#000000" d="M 808 371 L 982.8134765625 371" stroke-miterlimit="10"/></g><g transform="translate(-294,-158) scale(1,1)"><g><path fill="none" stroke="none"/><text fill="#000000" stroke="none" font-family="Arial" font-size="13px" font-style="normal" font-weight="bold" text-decoration="none" x="870.603271484375" y="353.5">VisitorA</text></g></g><g transform="translate(-294,-158) scale(1,1)"><g><path fill="none" stroke="none"/><text fill="#000000" stroke="none" font-family="Arial" font-size="13px" font-style="normal" font-weight="normal" text-decoration="none" x="813" y="386.5">+visitElementA(a: ElementA)</text></g></g><g transform="translate(-294,-158) scale(1,1)"><g><path fill="none" stroke="none"/><text fill="#000000" stroke="none" font-family="Arial" font-size="13px" font-style="normal" font-weight="normal" text-decoration="none" x="813" y="401.5">+visitElementB(b: ElementA)</text></g></g><g transform="translate(-294,-158) scale(1,1)"><rect fill="#C0C0C0" stroke="none" x="1023" y="343" width="174.8134765625" height="72" opacity="0.2"/></g><g transform="translate(-294,-158) scale(1,1)"><rect fill="#8fbcd3" stroke="none" x="1016" y="336" width="174.8134765625" height="72"/></g><g transform="translate(-294,-158) scale(1,1)"><path fill="none" stroke="#000000" d="M 1016 336 L 1190.8134765625 336 L 1190.8134765625 408 L 1016 408 L 1016 336 Z Z" stroke-miterlimit="10"/></g><g transform="translate(-294,-158) scale(1,1)"><path fill="none" stroke="#000000" d="M 1016 361 L 1190.8134765625 361" stroke-miterlimit="10"/></g><g transform="translate(-294,-158) scale(1,1)"><path fill="none" stroke="#000000" d="M 1016 371 L 1190.8134765625 371" stroke-miterlimit="10"/></g><g transform="translate(-294,-158) scale(1,1)"><g><path fill="none" stroke="none"/><text fill="#000000" stroke="none" font-family="Arial" font-size="13px" font-style="normal" font-weight="bold" text-decoration="none" x="1078.603271484375" y="353.5">VisitorB</text></g></g><g transform="translate(-294,-158) scale(1,1)"><g><path fill="none" stroke="none"/><text fill="#000000" stroke="none" font-family="Arial" font-size="13px" font-style="normal" font-weight="normal" text-decoration="none" x="1021" y="386.5">+visitElementA(a: ElementA)</text></g></g><g transform="translate(-294,-158) scale(1,1)"><g><path fill="none" stroke="none"/><text fill="#000000" stroke="none" font-family="Arial" font-size="13px" font-style="normal" font-weight="normal" text-decoration="none" x="1021" y="401.5">+visitElementB(b: ElementA)</text></g></g><g transform="translate(-294,-158) scale(1,1)"><path fill="none" stroke="#000000" d="M 927 335 L 959 297" stroke-miterlimit="10"/></g><g transform="translate(-294,-158) scale(1,1)"><path fill="#FFFFFF" stroke="none" d="M 952.3475302433711 317.97008932115307 L 959 297 L 939.4679011623743 307.1240858845242"/></g><g transform="translate(-294,-158) scale(1,1)"><path fill="none" stroke="#000000" d="M 952.3475302433711 317.97008932115307 L 959 297 L 939.4679011623743 307.1240858845242 L 952.3475302433711 317.97008932115307" stroke-miterlimit="10"/></g><g transform="translate(-294,-158) scale(1,1)"><path fill="none" stroke="#000000" d="M 1066 335 L 1028 297" stroke-miterlimit="10"/></g><g transform="translate(-294,-158) scale(1,1)"><path fill="#FFFFFF" stroke="none" d="M 1048.3253497152482 305.419035512032 L 1028 297 L 1036.419035512032 317.3253497152483"/></g><g transform="translate(-294,-158) scale(1,1)"><path fill="none" stroke="#000000" d="M 1048.3253497152482 305.419035512032 L 1028 297 L 1036.419035512032 317.3253497152483 L 1048.3253497152482 305.419035512032" stroke-miterlimit="10"/></g><g transform="translate(-294,-158) scale(1,1)"><path fill="none" stroke="#000000" d="M 423 335 L 461 290" stroke-miterlimit="10"/></g><g transform="translate(-294,-158) scale(1,1)"><path fill="#FFFFFF" stroke="none" d="M 454.318869241881 310.9609754494612 L 461 290 L 441.45407925434125 300.0973750155388"/></g><g transform="translate(-294,-158) scale(1,1)"><path fill="none" stroke="#000000" d="M 454.318869241881 310.9609754494612 L 461 290 L 441.45407925434125 300.0973750155388 L 454.318869241881 310.9609754494612" stroke-miterlimit="10"/></g><g transform="translate(-294,-158) scale(1,1)"><path fill="none" stroke="#000000" d="M 555 335 L 514 290" stroke-miterlimit="10"/></g><g transform="translate(-294,-158) scale(1,1)"><path fill="#FFFFFF" stroke="none" d="M 533.9122399160356 299.354287868472 L 514 290 L 521.4655994882745 310.6945602582098"/></g><g transform="translate(-294,-158) scale(1,1)"><path fill="none" stroke="#000000" d="M 533.9122399160356 299.354287868472 L 514 290 L 521.4655994882745 310.6945602582098 L 533.9122399160356 299.354287868472" stroke-miterlimit="10"/></g><g transform="translate(-294,-158) scale(1,1)"><path fill="none" stroke="#000000" d="M 623 206 L 558 232" stroke-miterlimit="10" stroke-dasharray="3"/></g><g transform="translate(-294,-158) scale(1,1)"><path fill="none" stroke="#000000" d="M 565.8724310758183 224.31723819473166 L 558 232 L 568.9991823688811 232.1341164273886" stroke-miterlimit="10"/></g><g transform="translate(-294,-158) scale(1,1)"><path fill="none" stroke="#000000" d="M 704 199 L 903 241" stroke-miterlimit="10" stroke-dasharray="3"/></g><g transform="translate(-294,-158) scale(1,1)"><path fill="none" stroke="#000000" d="M 892.1870874294452 243.0201291398174 L 903 241 L 893.925669183346 234.78256321062094" stroke-miterlimit="10"/></g><g transform="translate(-294,-158) scale(1,1)"><path fill="#8fbcd3" stroke="none" d="M 304 432 L 477 432 L 487 442 L 487 455 L 304 455 L 304 432"/></g><g transform="translate(-294,-158) scale(1,1)"><path fill="none" stroke="#000000" d="M 304 432 L 477 432 L 487 442 L 487 455 L 304 455 L 304 432 L 304 432" stroke-miterlimit="10"/></g><g transform="translate(-294,-158) scale(1,1)"><path fill="none" stroke="#000000" d="M 477 432 L 477 442 L 487 442 L 477 432" stroke-miterlimit="10"/></g><g transform="translate(-294,-158) scale(1,1)"><g><path fill="none" stroke="none"/><text fill="#000000" stroke="none" font-family="Arial" font-size="13px" font-style="normal" font-weight="normal" text-decoration="none" x="309" y="446">visitor.visitElementA(this);</text></g></g><g transform="translate(-294,-158) scale(1,1)"><path fill="#8fbcd3" stroke="none" d="M 504 432 L 669 432 L 679 442 L 679 455 L 504 455 L 504 432"/></g><g transform="translate(-294,-158) scale(1,1)"><path fill="none" stroke="#000000" d="M 504 432 L 669 432 L 679 442 L 679 455 L 504 455 L 504 432 L 504 432" stroke-miterlimit="10"/></g><g transform="translate(-294,-158) scale(1,1)"><path fill="none" stroke="#000000" d="M 669 432 L 669 442 L 679 442 L 669 432" stroke-miterlimit="10"/></g><g transform="translate(-294,-158) scale(1,1)"><g><path fill="none" stroke="none"/><text fill="#000000" stroke="none" font-family="Arial" font-size="13px" font-style="normal" font-weight="normal" text-decoration="none" x="509" y="446">visitor.visitElementB(this);</text></g></g><g transform="translate(-294,-158) scale(1,1)"><path fill="none" stroke="#000000" d="M 396 431 L 397 394" stroke-miterlimit="10" stroke-dasharray="3"/></g><g transform="translate(-294,-158) scale(1,1)"><path fill="none" stroke="#000000" d="M 590 431 L 586 394" stroke-miterlimit="10" stroke-dasharray="3"/></g><g transform="translate(-294,-158) scale(1,1)"><path fill="#8fbcd3" stroke="none" d="M 624 240 L 821 240 L 831 250 L 831 317 L 624 317 L 624 240"/></g><g transform="translate(-294,-158) scale(1,1)"><path fill="none" stroke="#000000" d="M 624 240 L 821 240 L 831 250 L 831 317 L 624 317 L 624 240 L 624 240" stroke-miterlimit="10"/></g><g transform="translate(-294,-158) scale(1,1)"><path fill="none" stroke="#000000" d="M 821 240 L 821 250 L 831 250 L 821 240" stroke-miterlimit="10"/></g><g transform="translate(-294,-158) scale(1,1)"><g><path fill="none" stroke="none"/><text fill="#000000" stroke="none" font-family="Arial" font-size="13px" font-style="normal" font-weight="normal" text-decoration="none" x="629" y="254">VisitorA visitor = new VisitorA()</text><text fill="#000000" stroke="none" font-family="Arial" font-size="13px" font-style="normal" font-weight="normal" text-decoration="none" x="629" y="267">for(Element element: elements) { </text></g></g><g transform="translate(-294,-158) scale(1,1)"><g><path fill="none" stroke="none"/><text fill="#000000" stroke="none" font-family="Arial" font-size="13px" font-style="normal" font-weight="normal" text-decoration="none" x="629" y="282">     element.accept(visitor);           </text><text fill="#000000" stroke="none" font-family="Arial" font-size="13px" font-style="normal" font-weight="normal" text-decoration="none" x="629" y="295">}</text></g></g><g transform="translate(-294,-158) scale(1,1)"><path fill="none" stroke="#000000" d="M 699 239 L 680 213" stroke-miterlimit="10" stroke-dasharray="3"/></g></g></svg>
